<?xml version="1.0" encoding="UTF-8"?>
<svg version="1.1" xmlns="http://www.w3.org/2000/svg" width="790" height="401">
<path d="M0 0 C1.42139812 -0.003905 2.8427951 -0.00824323 4.26419067 -0.01298523 C7.22059946 -0.02037604 10.17688867 -0.02020869 13.13330078 -0.01489258 C16.87342209 -0.00910512 20.613047 -0.02604644 24.35308647 -0.04923725 C27.28238663 -0.06415274 30.21157205 -0.06482252 33.14090347 -0.06172752 C35.17443284 -0.06247232 37.20794477 -0.07619009 39.24142456 -0.09040833 C62.64553535 0.02393076 84.16876172 7.72957122 101.4453125 23.80078125 C103.44226489 25.9596487 104.66090913 27.60838207 105.7578125 30.30078125 C106.4178125 30.30078125 107.0778125 30.30078125 107.7578125 30.30078125 C109.29511595 32.39682957 110.69628283 34.47564266 112.0703125 36.67578125 C112.67588989 37.63653564 112.67588989 37.63653564 113.29370117 38.61669922 C125.7578125 58.63246296 125.7578125 58.63246296 125.7578125 69.30078125 C126.32242188 69.57792969 126.88703125 69.85507813 127.46875 70.140625 C146.30486068 79.68725448 161.9670455 96.51779792 169.7578125 116.30078125 C173.07926515 127.06183898 174.89147308 137.35283088 175.27539062 148.58007812 C175.32663086 149.72379883 175.32663086 149.72379883 175.37890625 150.890625 C175.41649048 151.90950806 175.41649048 151.90950806 175.45483398 152.94897461 C175.70684737 155.4658939 175.70684737 155.4658939 176.75830078 158.41967773 C178.16757445 163.16551917 178.10117655 167.89030804 178.12890625 172.80859375 C178.13793472 173.81107147 178.1469632 174.81354919 178.15626526 175.84640503 C178.1707262 177.96267737 178.17964412 180.078994 178.18334961 182.1953125 C178.1951997 185.39532062 178.24438891 188.5933694 178.29492188 191.79296875 C178.38448009 202.97606689 178.18654983 212.26605181 172.7578125 222.30078125 C172.40662354 222.98366211 172.05543457 223.66654297 171.69360352 224.37011719 C168.15495165 230.84643315 163.86246796 237.91975909 158.7578125 243.30078125 C158.0978125 243.30078125 157.4378125 243.30078125 156.7578125 243.30078125 C156.54511719 243.8525 156.33242188 244.40421875 156.11328125 244.97265625 C148.44390776 258.14541303 130.21506003 265.58863564 116.3828125 269.67578125 C115.18205078 270.03410034 115.18205078 270.03410034 113.95703125 270.3996582 C96.61097536 275.13180201 77.71322575 275.30832802 59.8828125 276.80078125 C54.82271487 277.22550817 49.76281193 277.6524391 44.703125 278.08203125 C43.48922089 278.18472824 42.27531677 278.28742523 41.02462769 278.39323425 C34.03424577 278.99282319 27.0591145 279.6722128 20.0859375 280.4453125 C13.83541263 281.13288844 7.673238 281.58968484 1.3828125 281.48828125 C0.12754761 281.49057739 0.12754761 281.49057739 -1.15307617 281.49291992 C-5.78988111 281.47010496 -9.99205968 280.98863429 -14.5546875 280.11328125 C-24.18465818 279.15526091 -33.36887005 285.74765099 -41.64550781 289.99902344 C-52.89567574 295.63891582 -65.41999483 298.38166604 -77.5390625 301.51953125 C-81.71356952 302.60542697 -85.83505527 303.77461656 -89.9453125 305.08203125 C-101.16694943 308.54388781 -111.79609378 309.86067559 -123.4921875 309.86328125 C-125.43774536 309.86702759 -125.43774536 309.86702759 -127.42260742 309.87084961 C-134.33571995 309.74961402 -140.40016071 309.06248642 -146.96386719 306.83959961 C-149.50798076 306.23792166 -150.8135603 306.39453841 -153.2421875 307.30078125 C-154.79826157 308.42001251 -156.31449032 309.59522847 -157.8046875 310.80078125 C-184.35798621 330.5646823 -220.23385802 335.51691741 -252.30102539 331.0637207 C-263.11831298 329.42146901 -273.70588006 327.24596955 -284.2421875 324.30078125 C-287.14091875 323.49790063 -289.88377931 323.09429731 -292.8828125 322.87109375 C-294.229198 322.76414185 -294.229198 322.76414185 -295.6027832 322.6550293 C-296.55628662 322.57937744 -297.50979004 322.50372559 -298.4921875 322.42578125 C-324.37712593 320.1867753 -346.51688203 313.78431823 -368.2421875 299.30078125 C-368.2421875 298.64078125 -368.2421875 297.98078125 -368.2421875 297.30078125 C-368.91894531 297.11386719 -369.59570312 296.92695313 -370.29296875 296.734375 C-374.46760044 294.70511694 -377.22680874 291.67325731 -380.4296875 288.36328125 C-381.05810547 287.72970703 -381.68652344 287.09613281 -382.33398438 286.44335938 C-384.92833071 283.8046178 -387.18063894 281.39310409 -389.2421875 278.30078125 C-390.98601501 278.70652329 -392.72975922 279.1126258 -394.47314453 279.52026367 C-396.00508089 279.87844074 -397.53731563 280.23534372 -399.06982422 280.59106445 C-402.86554916 281.47875551 -406.64594902 282.39362531 -410.40625 283.421875 C-435.78870059 290.31806286 -461.02602264 287.84035512 -483.9453125 274.7578125 C-486.11188036 273.34499815 -488.1819742 271.86397811 -490.2421875 270.30078125 C-490.98726562 269.75679688 -491.73234375 269.2128125 -492.5 268.65234375 C-509.80329741 255.6895345 -522.91617461 236.52213043 -526.88330078 215.01953125 C-529.00812263 198.92292163 -528.68584585 181.7724425 -521.4296875 166.98828125 C-519.31468134 162.23803015 -519.31468134 162.23803015 -519.8671875 157.23828125 C-520.3209375 156.26890625 -520.7746875 155.29953125 -521.2421875 154.30078125 C-521.5721875 153.31078125 -521.9021875 152.32078125 -522.2421875 151.30078125 C-522.9021875 151.30078125 -523.5621875 151.30078125 -524.2421875 151.30078125 C-537.57901351 135.76406641 -542.65258435 117.0628827 -542.5546875 97.05078125 C-542.54977295 95.86218506 -542.5448584 94.67358887 -542.53979492 93.44897461 C-542.33140761 77.80496531 -539.78827473 62.58346553 -529.65625 50.11328125 C-528.24761967 48.30774403 -527.15054746 46.49596361 -526.0546875 44.48828125 C-524.59831291 41.92707076 -523.54964694 40.08381809 -521.2421875 38.30078125 C-520.5821875 38.30078125 -519.9221875 38.30078125 -519.2421875 38.30078125 C-518.85740234 37.42292969 -518.85740234 37.42292969 -518.46484375 36.52734375 C-512.27429622 25.25382269 -495.21933564 17.01791102 -483.3046875 13.42578125 C-460.80574459 7.19369231 -437.34458037 6.11374346 -414.15039062 6.11547852 C-410.88137812 6.11329075 -407.61270318 6.09507465 -404.34375 6.07617188 C-366.49539868 5.96949954 -331.68870212 15.07997809 -304.2421875 42.30078125 C-301.77128834 45.20850008 -299.45901235 48.19575837 -297.2421875 51.30078125 C-296.08460938 50.89085937 -294.92703125 50.4809375 -293.734375 50.05859375 C-292.19532248 49.51429469 -290.65625942 48.97002543 -289.1171875 48.42578125 C-288.35664063 48.15636719 -287.59609375 47.88695312 -286.8125 47.609375 C-285.30966722 47.07820135 -283.80609104 46.54912603 -282.30175781 46.0222168 C-280.58484455 45.4208087 -278.87024936 44.81278806 -277.15625 44.203125 C-264.35748521 40.23996861 -250.90652142 39.94483402 -237.6171875 39.61328125 C-236.81480652 39.59316986 -236.01242554 39.57305847 -235.18572998 39.55233765 C-225.52893068 39.32690618 -215.88492211 39.28869407 -206.2265625 39.421875 C-204.39404444 39.44178641 -202.56152491 39.46156286 -200.72900391 39.48120117 C-197.25063396 39.5195814 -193.77555785 39.59329243 -190.29833984 39.6887207 C-180.73660594 39.86524484 -172.92775376 38.7415429 -163.91796875 35.54785156 C-158.58587673 33.7388501 -153.23705121 32.86070283 -147.6796875 32.05078125 C-146.68517578 31.8909375 -145.69066406 31.73109375 -144.66601562 31.56640625 C-132.63478395 29.71900024 -120.7066427 29.24952342 -108.55859375 29.265625 C-105.38646869 29.25768422 -102.21435432 29.2479239 -99.04223633 29.23754883 C-96.8712989 29.23803995 -94.70032984 29.2512059 -92.52954102 29.27661133 C-89.35053211 29.30976327 -86.17509419 29.29217024 -82.99609375 29.265625 C-81.55370079 29.29945534 -81.55370079 29.29945534 -80.08216858 29.33396912 C-74.55233363 29.23580709 -71.77441501 28.4104432 -67.82397461 24.42797852 C-67.22564316 23.72898941 -66.62731171 23.03000031 -66.010849 22.30982971 C-50.26006846 4.41828776 -22.15449117 -0.02594037 0 0 Z " fill="#F628FD" transform="translate(577.2421875,34.69921875)"/>
<path d="M0 0 C1.42139812 -0.003905 2.8427951 -0.00824323 4.26419067 -0.01298523 C7.22059946 -0.02037604 10.17688867 -0.02020869 13.13330078 -0.01489258 C16.87342209 -0.00910512 20.613047 -0.02604644 24.35308647 -0.04923725 C27.28238663 -0.06415274 30.21157205 -0.06482252 33.14090347 -0.06172752 C35.17443284 -0.06247232 37.20794477 -0.07619009 39.24142456 -0.09040833 C62.64553535 0.02393076 84.16876172 7.72957122 101.4453125 23.80078125 C103.44226489 25.9596487 104.66090913 27.60838207 105.7578125 30.30078125 C106.4178125 30.30078125 107.0778125 30.30078125 107.7578125 30.30078125 C109.29511595 32.39682957 110.69628283 34.47564266 112.0703125 36.67578125 C112.67588989 37.63653564 112.67588989 37.63653564 113.29370117 38.61669922 C125.7578125 58.63246296 125.7578125 58.63246296 125.7578125 69.30078125 C126.32242188 69.57792969 126.88703125 69.85507813 127.46875 70.140625 C146.30486068 79.68725448 161.9670455 96.51779792 169.7578125 116.30078125 C173.07926515 127.06183898 174.89147308 137.35283088 175.27539062 148.58007812 C175.32663086 149.72379883 175.32663086 149.72379883 175.37890625 150.890625 C175.41649048 151.90950806 175.41649048 151.90950806 175.45483398 152.94897461 C175.70684737 155.4658939 175.70684737 155.4658939 176.75830078 158.41967773 C178.16757445 163.16551917 178.10117655 167.89030804 178.12890625 172.80859375 C178.13793472 173.81107147 178.1469632 174.81354919 178.15626526 175.84640503 C178.1707262 177.96267737 178.17964412 180.078994 178.18334961 182.1953125 C178.1951997 185.39532062 178.24438891 188.5933694 178.29492188 191.79296875 C178.38448009 202.97606689 178.18654983 212.26605181 172.7578125 222.30078125 C172.40662354 222.98366211 172.05543457 223.66654297 171.69360352 224.37011719 C168.15495165 230.84643315 163.86246796 237.91975909 158.7578125 243.30078125 C158.0978125 243.30078125 157.4378125 243.30078125 156.7578125 243.30078125 C156.54511719 243.8525 156.33242188 244.40421875 156.11328125 244.97265625 C148.44390776 258.14541303 130.21506003 265.58863564 116.3828125 269.67578125 C115.18205078 270.03410034 115.18205078 270.03410034 113.95703125 270.3996582 C96.61097536 275.13180201 77.71322575 275.30832802 59.8828125 276.80078125 C54.82271487 277.22550817 49.76281193 277.6524391 44.703125 278.08203125 C43.48922089 278.18472824 42.27531677 278.28742523 41.02462769 278.39323425 C34.03424577 278.99282319 27.0591145 279.6722128 20.0859375 280.4453125 C13.83541263 281.13288844 7.673238 281.58968484 1.3828125 281.48828125 C0.12754761 281.49057739 0.12754761 281.49057739 -1.15307617 281.49291992 C-5.78988111 281.47010496 -9.99205968 280.98863429 -14.5546875 280.11328125 C-24.18465818 279.15526091 -33.36887005 285.74765099 -41.64550781 289.99902344 C-52.89567574 295.63891582 -65.41999483 298.38166604 -77.5390625 301.51953125 C-81.71356952 302.60542697 -85.83505527 303.77461656 -89.9453125 305.08203125 C-101.16694943 308.54388781 -111.79609378 309.86067559 -123.4921875 309.86328125 C-125.43774536 309.86702759 -125.43774536 309.86702759 -127.42260742 309.87084961 C-134.33571995 309.74961402 -140.40016071 309.06248642 -146.96386719 306.83959961 C-149.50798076 306.23792166 -150.8135603 306.39453841 -153.2421875 307.30078125 C-154.79826157 308.42001251 -156.31449032 309.59522847 -157.8046875 310.80078125 C-184.35798621 330.5646823 -220.23385802 335.51691741 -252.30102539 331.0637207 C-263.11831298 329.42146901 -273.70588006 327.24596955 -284.2421875 324.30078125 C-287.14091875 323.49790063 -289.88377931 323.09429731 -292.8828125 322.87109375 C-294.229198 322.76414185 -294.229198 322.76414185 -295.6027832 322.6550293 C-296.55628662 322.57937744 -297.50979004 322.50372559 -298.4921875 322.42578125 C-324.37712593 320.1867753 -346.51688203 313.78431823 -368.2421875 299.30078125 C-368.2421875 298.64078125 -368.2421875 297.98078125 -368.2421875 297.30078125 C-368.91894531 297.11386719 -369.59570312 296.92695313 -370.29296875 296.734375 C-374.46760044 294.70511694 -377.22680874 291.67325731 -380.4296875 288.36328125 C-381.05810547 287.72970703 -381.68652344 287.09613281 -382.33398438 286.44335938 C-384.92833071 283.8046178 -387.18063894 281.39310409 -389.2421875 278.30078125 C-390.98601501 278.70652329 -392.72975922 279.1126258 -394.47314453 279.52026367 C-396.00508089 279.87844074 -397.53731563 280.23534372 -399.06982422 280.59106445 C-402.86554916 281.47875551 -406.64594902 282.39362531 -410.40625 283.421875 C-435.78870059 290.31806286 -461.02602264 287.84035512 -483.9453125 274.7578125 C-486.11188036 273.34499815 -488.1819742 271.86397811 -490.2421875 270.30078125 C-490.98726562 269.75679688 -491.73234375 269.2128125 -492.5 268.65234375 C-509.80329741 255.6895345 -522.91617461 236.52213043 -526.88330078 215.01953125 C-529.00812263 198.92292163 -528.68584585 181.7724425 -521.4296875 166.98828125 C-519.31468134 162.23803015 -519.31468134 162.23803015 -519.8671875 157.23828125 C-520.3209375 156.26890625 -520.7746875 155.29953125 -521.2421875 154.30078125 C-521.5721875 153.31078125 -521.9021875 152.32078125 -522.2421875 151.30078125 C-522.9021875 151.30078125 -523.5621875 151.30078125 -524.2421875 151.30078125 C-537.57901351 135.76406641 -542.65258435 117.0628827 -542.5546875 97.05078125 C-542.54977295 95.86218506 -542.5448584 94.67358887 -542.53979492 93.44897461 C-542.33140761 77.80496531 -539.78827473 62.58346553 -529.65625 50.11328125 C-528.24761967 48.30774403 -527.15054746 46.49596361 -526.0546875 44.48828125 C-524.59831291 41.92707076 -523.54964694 40.08381809 -521.2421875 38.30078125 C-520.5821875 38.30078125 -519.9221875 38.30078125 -519.2421875 38.30078125 C-518.85740234 37.42292969 -518.85740234 37.42292969 -518.46484375 36.52734375 C-512.27429622 25.25382269 -495.21933564 17.01791102 -483.3046875 13.42578125 C-460.80574459 7.19369231 -437.34458037 6.11374346 -414.15039062 6.11547852 C-410.88137812 6.11329075 -407.61270318 6.09507465 -404.34375 6.07617188 C-366.49539868 5.96949954 -331.68870212 15.07997809 -304.2421875 42.30078125 C-301.77128834 45.20850008 -299.45901235 48.19575837 -297.2421875 51.30078125 C-296.08460938 50.89085937 -294.92703125 50.4809375 -293.734375 50.05859375 C-292.19532248 49.51429469 -290.65625942 48.97002543 -289.1171875 48.42578125 C-288.35664063 48.15636719 -287.59609375 47.88695312 -286.8125 47.609375 C-285.30966722 47.07820135 -283.80609104 46.54912603 -282.30175781 46.0222168 C-280.58484455 45.4208087 -278.87024936 44.81278806 -277.15625 44.203125 C-264.35748521 40.23996861 -250.90652142 39.94483402 -237.6171875 39.61328125 C-236.81480652 39.59316986 -236.01242554 39.57305847 -235.18572998 39.55233765 C-225.52893068 39.32690618 -215.88492211 39.28869407 -206.2265625 39.421875 C-204.39404444 39.44178641 -202.56152491 39.46156286 -200.72900391 39.48120117 C-197.25063396 39.5195814 -193.77555785 39.59329243 -190.29833984 39.6887207 C-180.73660594 39.86524484 -172.92775376 38.7415429 -163.91796875 35.54785156 C-158.58587673 33.7388501 -153.23705121 32.86070283 -147.6796875 32.05078125 C-146.68517578 31.8909375 -145.69066406 31.73109375 -144.66601562 31.56640625 C-132.63478395 29.71900024 -120.7066427 29.24952342 -108.55859375 29.265625 C-105.38646869 29.25768422 -102.21435432 29.2479239 -99.04223633 29.23754883 C-96.8712989 29.23803995 -94.70032984 29.2512059 -92.52954102 29.27661133 C-89.35053211 29.30976327 -86.17509419 29.29217024 -82.99609375 29.265625 C-81.55370079 29.29945534 -81.55370079 29.29945534 -80.08216858 29.33396912 C-74.55233363 29.23580709 -71.77441501 28.4104432 -67.82397461 24.42797852 C-67.22564316 23.72898941 -66.62731171 23.03000031 -66.010849 22.30982971 C-50.26006846 4.41828776 -22.15449117 -0.02594037 0 0 Z M-40.1484375 63.34375 C-44.72050134 68.95797545 -47.2421875 75.04096309 -47.2421875 82.30078125 C-48.40234375 82.02363281 -49.5625 81.74648437 -50.7578125 81.4609375 C-52.33583513 81.09461082 -53.91396614 80.72875078 -55.4921875 80.36328125 C-56.25015625 80.18087891 -57.008125 79.99847656 -57.7890625 79.81054688 C-70.30780067 76.94166938 -83.03324129 77.09802983 -95.8046875 77.11328125 C-97.0860257 77.11368912 -97.0860257 77.11368912 -98.39324951 77.11410522 C-109.40861417 77.13016785 -120.37595254 77.329721 -131.3671875 78.11328125 C-132.39400635 78.18329346 -133.4208252 78.25330566 -134.47875977 78.32543945 C-147.86815358 79.30497597 -147.86815358 79.30497597 -159.70703125 84.86743164 C-165.60673005 88.69381121 -172.27039419 88.00932148 -179.0625 87.97265625 C-180.52621237 87.98327771 -181.98990959 87.9962059 -183.45358276 88.0112915 C-187.31205492 88.04542975 -191.17002302 88.05088013 -195.02862549 88.04937744 C-198.84209233 88.05166662 -202.65537499 88.07654808 -206.46875 88.1015625 C-207.58918261 88.1086964 -207.58918261 88.1086964 -208.73225021 88.11597443 C-210.2375041 88.12564191 -211.74275696 88.13547072 -213.24800873 88.14546204 C-214.74931304 88.15525803 -216.25062035 88.16460659 -217.75193024 88.17350769 C-228.45670112 88.23726226 -239.15778356 88.35354872 -249.859375 88.62890625 C-251.6722551 88.66126373 -251.6722551 88.66126373 -253.52175903 88.6942749 C-263.29704342 88.98838179 -271.64194039 90.15959437 -279.1796875 96.80078125 C-280.07558594 97.57421875 -280.97148437 98.34765625 -281.89453125 99.14453125 C-283.05662109 100.211875 -283.05662109 100.211875 -284.2421875 101.30078125 C-284.84160156 101.84734375 -285.44101562 102.39390625 -286.05859375 102.95703125 C-287.46251152 104.25247033 -287.46251152 104.25247033 -287.2421875 106.30078125 C-287.81026123 106.27983398 -288.37833496 106.25888672 -288.96362305 106.23730469 C-300.56255808 105.86681409 -310.3472896 105.96812229 -321.2421875 110.30078125 C-323.23913764 110.97652867 -325.23838417 111.64563495 -327.2421875 112.30078125 C-327.20738281 111.32238281 -327.17257812 110.34398437 -327.13671875 109.3359375 C-326.83772952 94.85631606 -330.34494504 84.31566337 -340.5546875 73.55078125 C-341.75993288 72.44089595 -342.99046 71.35796623 -344.2421875 70.30078125 C-344.92410156 69.71683594 -345.60601562 69.13289063 -346.30859375 68.53125 C-353.30797887 63.09517933 -361.04885633 60.57160182 -369.38330078 57.91455078 C-371.54427702 57.20103696 -373.63241782 56.33959182 -375.7421875 55.48828125 C-393.17371559 49.81134682 -416.35388281 53.04837152 -434.3137207 54.36279297 C-436.93816662 54.55139058 -439.56345681 54.71739157 -442.18945312 54.8828125 C-458.85476363 56.0214138 -474.70305078 57.82146965 -486.6171875 70.73828125 C-494.21704045 80.35617425 -496.3672232 91.23868966 -495.2421875 103.30078125 C-492.93699696 113.77766521 -486.82175377 121.34407491 -478.91796875 128.3046875 C-476.99402819 129.64141816 -476.99402819 129.64141816 -473.2421875 129.30078125 C-473.26539063 129.98398438 -473.28859375 130.6671875 -473.3125 131.37109375 C-473.46247662 139.74835931 -472.82178818 147.92862602 -471.95361328 156.25634766 C-470.27890449 172.83924841 -470.27890449 172.83924841 -473.0546875 177.05078125 C-473.7765625 177.79328125 -474.4984375 178.53578125 -475.2421875 179.30078125 C-480.29312371 188.23705301 -481.71540753 197.58684547 -479.4296875 207.61328125 C-477.54131559 213.47717296 -474.77282354 218.27229962 -471.2421875 223.30078125 C-470.6646875 224.12578125 -470.0871875 224.95078125 -469.4921875 225.80078125 C-461.70737734 234.45057032 -452.88089131 237.66708593 -441.44287109 238.6159668 C-429.2488598 239.14903582 -418.51075457 236.51233598 -406.89013672 233.02124023 C-403.85654749 232.11008546 -400.81469137 231.23294473 -397.76953125 230.36132812 C-388.00067504 227.53207832 -378.4968691 224.5526602 -369.2421875 220.30078125 C-367.8269925 219.69317535 -366.41051332 219.08854258 -364.9921875 218.48828125 C-363.6309375 217.90046875 -363.6309375 217.90046875 -362.2421875 217.30078125 C-362.28859375 217.91824219 -362.335 218.53570312 -362.3828125 219.171875 C-362.67186857 225.95436922 -361.35121243 230.34863484 -358.2421875 236.30078125 C-357.8915625 237.09226562 -357.5409375 237.88375 -357.1796875 238.69921875 C-351.90419193 250.31263608 -343.86656077 258.44056477 -333.2421875 265.30078125 C-332.64921875 265.70941406 -332.05625 266.11804688 -331.4453125 266.5390625 C-322.6131384 272.20127312 -311.18311412 274.31819307 -300.85546875 274.546875 C-299.0775293 274.59618164 -299.0775293 274.59618164 -297.26367188 274.64648438 C-294.77939713 274.70796985 -292.29501421 274.76522262 -289.81054688 274.81835938 C-288.62912109 274.85251953 -287.44769531 274.88667969 -286.23046875 274.921875 C-285.15321533 274.94693115 -284.07596191 274.9719873 -282.96606445 274.99780273 C-280.2421875 275.30078125 -280.2421875 275.30078125 -277.2421875 277.30078125 C-274.85518159 277.65755793 -272.45663339 277.93968226 -270.0546875 278.17578125 C-261.95095406 279.08045537 -261.95095406 279.08045537 -258.2421875 281.30078125 C-246.02533982 288.37230431 -225.3934389 286.4803876 -212.2421875 283.30078125 C-193.7895076 278.3358445 -176.81634702 269.08123647 -166.8984375 251.984375 C-166.516875 251.24316406 -166.1353125 250.50195312 -165.7421875 249.73828125 C-163.94059329 246.39166663 -162.17040967 243.79519273 -159.2421875 241.30078125 C-158.99210937 242.03425781 -158.74203125 242.76773438 -158.484375 243.5234375 C-155.13594825 251.01001429 -147.44618277 256.91257205 -140.12109375 260.26171875 C-126.10520668 264.75384308 -109.77809061 261.57907413 -96.23681641 256.96777344 C-93.12398622 255.92686131 -89.96519073 255.05921552 -86.8046875 254.17578125 C-85.12439453 253.69044922 -85.12439453 253.69044922 -83.41015625 253.1953125 C-80.48916738 252.37052033 -77.55779964 251.61416509 -74.6171875 250.86328125 C-68.5866533 249.23148964 -62.94640619 246.82407598 -57.2421875 244.30078125 C-56.5630127 244.01259521 -55.88383789 243.72440918 -55.18408203 243.42749023 C-49.67434512 241.05568991 -44.51836751 238.30599292 -39.3671875 235.23828125 C-38.62210938 234.80451172 -37.87703125 234.37074219 -37.109375 233.92382812 C-33.14001947 231.64610382 -33.14001947 231.64610382 -29.69873047 228.67797852 C-28.2421875 227.30078125 -28.2421875 227.30078125 -25.2421875 226.92578125 C-21.76687004 227.36019593 -21.57660276 227.94195428 -19.2421875 230.30078125 C-12.95564846 233.41360453 -6.57576892 233.77741401 0.3203125 233.67578125 C1.3198999 233.66853027 2.3194873 233.6612793 3.34936523 233.65380859 C11.42672749 233.50877047 19.30907768 232.62965248 27.30126953 231.50708008 C35.25688132 230.41148449 43.1797421 229.8230024 51.1953125 229.36328125 C62.32971959 228.6977082 73.37173482 227.68231977 84.4453125 226.36328125 C85.48230789 226.24389694 85.48230789 226.24389694 86.54025269 226.12210083 C103.50526129 224.40982542 103.50526129 224.40982542 117.7578125 215.92578125 C118.30308594 215.4565625 118.84835937 214.98734375 119.41015625 214.50390625 C122.5340449 211.73899747 124.90470463 209.04560341 126.7578125 205.30078125 C126.7578125 204.64078125 126.7578125 203.98078125 126.7578125 203.30078125 C127.4178125 203.30078125 128.0778125 203.30078125 128.7578125 203.30078125 C130.32557999 199.12564672 131.01364553 195.6567235 131.0234375 191.203125 C131.02730469 189.50639648 131.02730469 189.50639648 131.03125 187.77539062 C131.02351562 186.60814453 131.01578125 185.44089844 131.0078125 184.23828125 C131.01554688 183.06716797 131.02328125 181.89605469 131.03125 180.68945312 C131.02867187 179.55958984 131.02609375 178.42972656 131.0234375 177.265625 C131.02118164 176.24073975 131.01892578 175.21585449 131.01660156 174.15991211 C130.74552733 171.16505329 129.8838787 169.06782778 128.7578125 166.30078125 C128.48657227 163.6887207 128.48657227 163.6887207 128.44921875 160.9140625 C128.42408203 159.89248047 128.39894531 158.87089844 128.37304688 157.81835938 C128.3382129 155.70122781 128.30689588 153.58403512 128.27929688 151.46679688 C127.99257923 140.31278122 125.46899844 132.20337485 118.7578125 123.30078125 C118.355625 122.73359375 117.9534375 122.16640625 117.5390625 121.58203125 C111.82849055 114.01938192 103.45380094 111.16666435 94.7578125 108.30078125 C93.7678125 107.97078125 92.7778125 107.64078125 91.7578125 107.30078125 C89.18515432 107.23049004 86.64139819 107.20707293 84.0703125 107.23828125 C83.36841797 107.24279297 82.66652344 107.24730469 81.94335938 107.25195312 C80.21480712 107.26371198 78.48629885 107.28164671 76.7578125 107.30078125 C77.24507812 106.38296875 77.73234375 105.46515625 78.234375 104.51953125 C80.42161146 99.39794576 80.19604416 94.28788454 80.1328125 88.80078125 C80.15021484 87.29064453 80.15021484 87.29064453 80.16796875 85.75 C80.14452743 79.7880922 79.56963706 75.57125433 76.7578125 70.30078125 C76.38140625 69.57890625 76.005 68.85703125 75.6171875 68.11328125 C69.50772912 58.13163094 61.68634953 51.70269659 50.27880859 48.68945312 C43.68425665 47.10741377 37.36868152 46.83322449 30.609375 46.83203125 C29.39438324 46.82441772 28.17939148 46.8168042 26.92758179 46.80895996 C24.3745935 46.79822374 21.82156153 46.79527923 19.26855469 46.79980469 C15.39963358 46.80077702 11.53269838 46.75907358 7.6640625 46.71484375 C-11.98501063 46.61806786 -26.10447598 48.29253714 -40.1484375 63.34375 Z " fill="#FEFDFE" transform="translate(577.2421875,34.69921875)"/>
<path d="M0 0 C0.85464844 -0.02578125 1.70929688 -0.0515625 2.58984375 -0.078125 C5.59702522 0.32093226 6.93133753 1.10906155 9.0625 3.25 C9.375 6.875 9.375 6.875 9.0625 10.25 C7.25134044 12.06115956 4.44971773 11.63199448 2 11.8125 C0.89527344 11.89628906 -0.20945312 11.98007813 -1.34765625 12.06640625 C-2.20230469 12.12699219 -3.05695313 12.18757812 -3.9375 12.25 C0.69721229 29.34050157 14.28850456 46.18188006 26.0625 59.25 C26.7225 59.58 27.3825 59.91 28.0625 60.25 C31.18596336 44.69515246 32.15731632 29.06877541 33.0625 13.25 C31.95390625 13.22421875 30.8453125 13.1984375 29.703125 13.171875 C28.23954453 13.11558344 26.77600438 13.05823633 25.3125 13 C24.58289063 12.98582031 23.85328125 12.97164062 23.1015625 12.95703125 C19.55224858 12.7956988 17.41769815 12.51310974 14.53125 10.375 C13.0625 8.25 13.0625 8.25 13.3125 5.5 C13.68375 4.38625 13.68375 4.38625 14.0625 3.25 C19.5360038 1.42018701 24.35027785 0.94267687 30.1015625 0.94921875 C30.94544525 0.94493362 31.789328 0.9406485 32.65878296 0.93623352 C34.43201809 0.93052069 36.20527665 0.92996734 37.97851562 0.93432617 C40.68660263 0.93749895 43.3936092 0.91394545 46.1015625 0.88867188 C47.8307278 0.88639979 49.55989601 0.88569496 51.2890625 0.88671875 C52.49702988 0.87290413 52.49702988 0.87290413 53.72940063 0.85881042 C58.35717326 0.89684683 61.23750536 1.3546982 65.0625 4.25 C64.73747202 7.17525181 64.20470891 9.03668664 62.5625 11.5 C58.9465125 14.03119125 55.39072466 14.06503313 51.0625 14.25 C50.98902344 15.59578125 50.98902344 15.59578125 50.9140625 16.96875 C50.08218897 30.85243242 48.27301435 44.51659167 46.0625 58.25 C45.4025 58.25 44.7425 58.25 44.0625 58.25 C43.94261719 59.06855469 43.82273437 59.88710937 43.69921875 60.73046875 C42.97202325 64.75011996 41.97117425 68.63019914 40.875 72.5625 C40.6579541 73.34214111 40.4409082 74.12178223 40.21728516 74.92504883 C29.6421005 112.11781611 29.6421005 112.11781611 14.0625 123.25 C9.47552339 125.06897348 4.93300822 125.56812885 0.0625 126.25 C-0.2675 126.58 -0.5975 126.91 -0.9375 127.25 C-19.68218283 128.09666109 -19.68218283 128.09666109 -27.9375 125.25 C-28.51242187 124.569375 -29.08734375 123.88875 -29.6796875 123.1875 C-32.84556692 120.47075918 -35.72875823 120.80543046 -39.6875 121 C-40.38488281 121.01804687 -41.08226562 121.03609375 -41.80078125 121.0546875 C-43.51361539 121.10161446 -45.22573824 121.17335395 -46.9375 121.25 C-46.9375 120.59 -46.9375 119.93 -46.9375 119.25 C-50.99207148 117.31488521 -54.13247191 117.04630395 -58.6015625 117.16015625 C-59.88933594 117.18013672 -61.17710937 117.20011719 -62.50390625 117.22070312 C-65.18647047 117.27797862 -67.86847885 117.34639661 -70.55078125 117.41601562 C-80.5862591 117.5608061 -90.80062472 117.39119769 -98.4375 110.06640625 C-104.1003518 103.20904664 -106.78090142 96.09831663 -105.9375 87.25 C-104.625 83.625 -104.625 83.625 -102.9375 80.25 C-102.586875 79.13625 -102.23625 78.0225 -101.875 76.875 C-98.81822402 69.82212625 -91.59391831 64.62332078 -84.6875 61.75 C-78.35298788 59.45427077 -72.2214586 59.10923014 -65.5625 59.1875 C-64.82644531 59.19201172 -64.09039062 59.19652344 -63.33203125 59.20117188 C-61.53381842 59.21284858 -59.73564803 59.23077989 -57.9375 59.25 C-58.11399382 49.01335839 -60.0397168 42.0966748 -65.6875 33.625 C-69.27381873 31.43336078 -72.8667182 31.35055107 -76.9375 32.25 C-78.96272193 34.37497747 -78.96272193 34.37497747 -79.9375 37.25 C-82.71527778 42.13888889 -82.71527778 42.13888889 -84.9375 43.25 C-86.76787287 43.37145993 -88.60314133 43.42543185 -90.4375 43.4375 C-91.4171875 43.45167969 -92.396875 43.46585938 -93.40625 43.48046875 C-95.9375 43.25 -95.9375 43.25 -97.9375 41.25 C-98.80931137 36.14367627 -97.0432374 32.71250645 -94.49609375 28.43359375 C-90.98107943 23.50904988 -86.7411984 20.05086551 -80.9375 18.25 C-70.30016566 17.38690754 -61.29153677 17.52217078 -52.75 24.4375 C-48.98426739 27.92949567 -46.3400826 31.73351721 -43.9375 36.25 C-43.40769531 37.11044922 -43.40769531 37.11044922 -42.8671875 37.98828125 C-39.83137051 45.37373518 -40.78754917 54.30707238 -40.8125 62.125 C-40.80863281 63.35992187 -40.80476563 64.59484375 -40.80078125 65.8671875 C-40.80207031 67.0428125 -40.80335938 68.2184375 -40.8046875 69.4296875 C-40.80581543 70.49944824 -40.80694336 71.56920898 -40.80810547 72.67138672 C-40.9375 75.25 -40.9375 75.25 -41.9375 77.25 C-42.03380957 78.93141972 -42.06825055 80.6166068 -42.0703125 82.30078125 C-42.07160156 83.30947266 -42.07289063 84.31816406 -42.07421875 85.35742188 C-42.06841797 86.94393555 -42.06841797 86.94393555 -42.0625 88.5625 C-42.06636719 89.60857422 -42.07023437 90.65464844 -42.07421875 91.73242188 C-42.07228516 93.25125977 -42.07228516 93.25125977 -42.0703125 94.80078125 C-42.06862061 96.18777222 -42.06862061 96.18777222 -42.06689453 97.6027832 C-41.93776627 100.2445526 -41.52394703 102.67446676 -40.9375 105.25 C-39.9475 105.25 -38.9575 105.25 -37.9375 105.25 C-37.4425 103.765 -37.4425 103.765 -36.9375 102.25 C-25.89013944 101.46834713 -25.89013944 101.46834713 -22.5 104.25 C-21.984375 105.24 -21.46875 106.23 -20.9375 107.25 C-18.00497535 112.69853936 -18.00497535 112.69853936 -13.5625 116.8125 C-7.30309388 117.85573435 -2.37807642 115.76084677 3.14453125 113.08984375 C5.0625 112.25 5.0625 112.25 7.0625 112.25 C7.34351563 111.54230469 7.62453125 110.83460938 7.9140625 110.10546875 C9.06376215 107.2468618 10.24625934 104.40402628 11.4375 101.5625 C11.87191406 100.51449219 12.30632812 99.46648437 12.75390625 98.38671875 C13.58097428 96.40422434 14.42053872 94.42685631 15.27734375 92.45703125 C18.13646853 86.06551462 18.13646853 86.06551462 18.0625 79.25 C14.38169776 71.84199884 8.2713177 65.72902986 2.88671875 59.53125 C-0.25535752 55.90286346 -3.1746029 52.1750681 -5.9375 48.25 C-6.61039062 47.29996094 -7.28328125 46.34992188 -7.9765625 45.37109375 C-12.04399076 39.56347711 -16.01010968 33.69440792 -19.875 27.75 C-20.44118042 26.88737549 -20.44118042 26.88737549 -21.01879883 26.00732422 C-23.04884555 22.85420401 -24.67816283 19.78405613 -25.9375 16.25 C-26.54078125 16.22421875 -27.1440625 16.1984375 -27.765625 16.171875 C-31.59571171 15.90006239 -34.24765729 15.70428666 -37.5 13.5625 C-39.37883644 10.54002398 -39.4585865 8.74872367 -38.9375 5.25 C-37.8046875 3.59619141 -37.8046875 3.59619141 -35.9375 2.25 C-33.07421875 1.83349609 -33.07421875 1.83349609 -29.625 1.7734375 C-28.38492188 1.7425 -27.14484375 1.7115625 -25.8671875 1.6796875 C-23.92199219 1.65261719 -23.92199219 1.65261719 -21.9375 1.625 C-19.37492288 1.57405413 -16.81241352 1.51953739 -14.25 1.4609375 C-13.11175781 1.44337402 -11.97351563 1.42581055 -10.80078125 1.40771484 C-7.06594775 1.20199329 -3.7959592 0.06849851 0 0 Z " fill="#FEF7FE" transform="translate(354.9375,156.75)"/>
<path d="M0 0 C1.00842453 -0.00637985 2.01684906 -0.0127597 3.05583191 -0.01933289 C4.67622124 -0.02100212 4.67622124 -0.02100212 6.3293457 -0.02270508 C8.01445 -0.02769768 8.01445 -0.02769768 9.7335968 -0.03279114 C12.10982861 -0.03784938 14.4860675 -0.0401998 16.86230469 -0.04003906 C20.47448645 -0.04221785 24.08635888 -0.06036435 27.69848633 -0.0793457 C30.01293842 -0.08228149 32.32739194 -0.08426505 34.6418457 -0.08520508 C36.2470533 -0.09598335 36.2470533 -0.09598335 37.88468933 -0.10697937 C50.05144535 -0.07043071 60.04467101 2.13327628 69.94262695 9.45776367 C71.97130371 12.3655337 72.61731598 14.40595433 72.34887695 17.96948242 C70.69855283 24.72853048 66.3429451 29.12565924 60.69262695 32.89526367 C54.9895243 36.26064336 49.0016611 38.80331706 42.81762695 41.14526367 C45.55431273 42.96972085 47.43720486 43.76384888 50.52856445 44.69604492 C51.44379883 44.98286133 52.3590332 45.26967773 53.30200195 45.56518555 C55.2186681 46.15702097 57.13794886 46.74045871 59.05981445 47.31518555 C64.59125923 49.06706869 67.95457669 50.63489148 71.81762695 55.14526367 C72.70063477 55.84006836 73.58364258 56.53487305 74.4934082 57.25073242 C81.33169582 62.65044694 81.33169582 62.65044694 82.63793945 66.66870117 C82.98696208 74.23085813 79.69535727 78.95216565 74.8215332 84.36010742 C68.29644684 90.79716564 60.90160647 94.5310475 52.66870117 98.2902832 C51.08923654 99.01981171 49.53090944 99.79481708 47.9777832 100.57885742 C39.65690409 104.69442321 30.76496868 106.83646981 21.81762695 109.14526367 C20.60204102 109.46881836 19.38645508 109.79237305 18.1340332 110.12573242 C13.84596877 111.24367333 10.2722124 112.14526367 5.81762695 112.14526367 C5.32262695 113.63026367 5.32262695 113.63026367 4.81762695 115.14526367 C2.71409201 115.22628428 0.60966743 115.28446274 -1.49487305 115.33276367 C-2.66663086 115.36756836 -3.83838867 115.40237305 -5.0456543 115.43823242 C-8.18237305 115.14526367 -8.18237305 115.14526367 -10.0769043 113.79370117 C-11.6490456 111.44937739 -11.60630137 109.90079775 -11.18237305 107.14526367 C-8.28144803 105.21131366 -7.28562568 104.84394426 -3.99487305 104.52026367 C-2.73674805 104.39651367 -1.47862305 104.27276367 -0.18237305 104.14526367 C-0.58861532 98.45252157 -0.99764315 92.75998878 -1.40917969 87.06762695 C-1.54860538 85.13376188 -1.68728857 83.19984312 -1.82519531 81.26586914 C-2.02430056 78.47552044 -2.22613334 75.68537993 -2.4284668 72.89526367 C-2.51915688 71.61196167 -2.51915688 71.61196167 -2.61167908 70.30273438 C-2.8843579 66.57417825 -3.19792535 62.87639419 -3.7097168 59.17260742 C-4.32900878 54.44318727 -4.410235 49.72224204 -4.4987793 44.95776367 C-4.51956039 44.01465332 -4.54034149 43.07154297 -4.56175232 42.09985352 C-4.6266439 39.11505759 -4.68584926 36.13018081 -4.74487305 33.14526367 C-4.78811583 31.11009938 -4.83173187 29.07494298 -4.87573242 27.03979492 C-4.98226254 22.07503204 -5.08369643 17.1101886 -5.18237305 12.14526367 C-7.06182617 12.1974707 -7.06182617 12.1974707 -8.97924805 12.25073242 C-10.63027629 12.27887495 -12.28131905 12.30617461 -13.93237305 12.33276367 C-15.16987305 12.37046875 -15.16987305 12.37046875 -16.43237305 12.40893555 C-22.60535058 12.48360866 -22.60535058 12.48360866 -25.76049805 10.63354492 C-26.2297168 10.14241211 -26.69893555 9.6512793 -27.18237305 9.14526367 C-26.43237305 4.39526367 -26.43237305 4.39526367 -24.18237305 2.14526367 C-21.1003418 1.76635742 -21.1003418 1.76635742 -17.36987305 1.58276367 C-12.54734036 1.36400141 -12.54734036 1.36400141 -7.78874207 0.63896179 C-5.12998555 0.13534044 -2.70368731 0.01167796 0 0 Z " fill="#FEF5FE" transform="translate(143.182373046875,123.854736328125)"/>
<path d="M0 0 C0.94537628 -0.00517639 1.89075256 -0.01035278 2.86477661 -0.01568604 C5.61442647 -0.02754118 8.36362633 -0.02416078 11.11328125 -0.015625 C11.92935852 -0.01958282 12.74543579 -0.02354065 13.58624268 -0.02761841 C24.99870703 0.06252998 37.8844445 2.46595714 46.4609375 10.5546875 C48.20285912 12.96231166 48.526134 15.24702174 48.23046875 18.17578125 C46.18744076 25.98044214 40.44040715 31.24308829 33.6875 35.25 C28.80783666 37.5520634 23.76096269 39.42515769 18.6875 41.25 C19.47253906 41.57613281 20.25757813 41.90226562 21.06640625 42.23828125 C23.24308708 43.14367365 25.41882654 44.05133166 27.59375 44.9609375 C29.80699271 45.88312196 32.02651079 46.7903026 34.25 47.6875 C55.73967879 57.45553581 55.73967879 57.45553581 59.5546875 67.54296875 C60.04864735 73.12471507 57.43920552 77.40799087 54.11328125 81.70703125 C41.72205606 94.69686635 23.15693078 103.17864256 5.875 107.25 C4.47890889 107.58747708 3.08307611 107.92602453 1.6875 108.265625 C1.01074219 108.42998047 0.33398438 108.59433594 -0.36328125 108.76367188 C-3.99088544 109.66875549 -7.58328277 110.70008754 -11.17578125 111.734375 C-13.3125 112.25 -13.3125 112.25 -16.3125 112.25 C-16.3125 112.91 -16.3125 113.57 -16.3125 114.25 C-19.66588688 115.36779563 -22.34501233 115.45267056 -25.875 115.5 C-27.03128906 115.52578125 -28.18757813 115.5515625 -29.37890625 115.578125 C-30.34699219 115.46984375 -31.31507813 115.3615625 -32.3125 115.25 C-34.46165785 112.02626323 -34.69536803 110.98296326 -34.3125 107.25 C-31.30632731 104.24382731 -28.48868402 104.65414684 -24.3125 104.25 C-24.66621351 81.35009954 -26.30596088 58.54693003 -27.94042969 35.70947266 C-28.02983322 34.45789368 -28.11923676 33.2063147 -28.21134949 31.91680908 C-28.38199048 29.53758039 -28.55421221 27.15846439 -28.72822571 24.77947998 C-28.80510117 23.7144928 -28.88197662 22.64950562 -28.96118164 21.55224609 C-29.02922501 20.62125092 -29.09726837 19.69025574 -29.16737366 18.73104858 C-29.29355704 16.57384483 -29.3125 14.41089108 -29.3125 12.25 C-31.08367187 12.30220703 -31.08367187 12.30220703 -32.890625 12.35546875 C-34.44790242 12.38361232 -36.00519525 12.41091187 -37.5625 12.4375 C-38.33980469 12.46263672 -39.11710937 12.48777344 -39.91796875 12.51367188 C-45.74247175 12.58834499 -45.74247175 12.58834499 -48.859375 10.73828125 C-49.57867187 10.00158203 -49.57867187 10.00158203 -50.3125 9.25 C-50.0625 6.875 -50.0625 6.875 -49.3125 4.25 C-37.19902186 -3.30718276 -13.89015941 0.03535916 0 0 Z " fill="#FEF6FE" transform="translate(481.3125,146.75)"/>
<path d="M0 0 C1.56105217 0.00033989 1.56105217 0.00033989 3.15364075 0.00068665 C4.26527084 0.0161705 5.37690094 0.03165436 6.5222168 0.04760742 C8.24289619 0.05397469 8.24289619 0.05397469 9.99833679 0.06047058 C13.65627676 0.07724134 17.31366254 0.11489182 20.97143555 0.15307617 C23.45384946 0.16812503 25.93627202 0.18181308 28.41870117 0.1940918 C34.49896786 0.22713968 40.5789121 0.27732377 46.65893555 0.34057617 C48.18385553 3.39041613 47.89456103 5.98291307 47.65893555 9.34057617 C46.09100982 11.49991519 45.22792226 12.24762191 42.57421875 12.68115234 C41.40379028 12.65758667 41.40379028 12.65758667 40.2097168 12.63354492 C39.3621582 12.62387695 38.51459961 12.61420898 37.64135742 12.60424805 C36.7602832 12.57911133 35.87920898 12.55397461 34.97143555 12.52807617 C34.07875977 12.51454102 33.18608398 12.50100586 32.26635742 12.48706055 C30.06327389 12.45171696 27.86140972 12.4023811 25.65893555 12.34057617 C25.72677246 12.94973877 25.79460938 13.55890137 25.86450195 14.18652344 C26.64302343 21.82234628 26.84496374 29.43457271 26.99023438 37.10266113 C27.27345247 51.20106796 28.23478472 65.03628668 29.94018555 79.04370117 C30.75749074 85.79292145 31.2281578 92.55709371 31.65893555 99.34057617 C48.41847572 99.64840446 64.95805168 98.72099656 81.65893555 97.34057617 C81.52181152 96.61064453 81.3846875 95.88071289 81.2434082 95.12866211 C79.95713531 87.92691577 79.27218961 80.89703421 79.03393555 73.59057617 C78.99526367 72.59541992 78.9565918 71.60026367 78.91674805 70.57495117 C78.82400602 68.16365853 78.73812604 65.75234516 78.65893555 63.34057617 C81.89775225 61.61263529 84.0879918 61.06851084 87.78393555 61.09057617 C89.08717773 61.0828418 89.08717773 61.0828418 90.41674805 61.07495117 C92.65893555 61.34057617 92.65893555 61.34057617 94.65893555 63.34057617 C95.55579392 66.08107652 95.80847011 68.66512223 95.9050293 71.53588867 C95.93653076 72.32995117 95.96803223 73.12401367 96.00048828 73.94213867 C96.03215088 74.77487305 96.06381348 75.60760742 96.09643555 76.46557617 C96.32449424 88.4651451 96.32449424 88.4651451 100.65893555 99.34057617 C101.20192197 104.55324586 101.20192197 104.55324586 99.40893555 107.15307617 C95.6174988 109.72583682 91.25689901 109.56554911 86.7956543 109.80541992 C85.41869623 109.88410946 84.04174327 109.96288863 82.66479492 110.04174805 C80.52418704 110.15982213 78.38350264 110.27610173 76.24267578 110.39013672 C67.48396549 110.86277694 58.87694241 111.6324041 50.18408203 112.86572266 C44.91904451 113.57494753 39.64231656 114.00001441 34.34643555 114.40307617 C32.3502778 114.55981536 30.35418305 114.71735899 28.3581543 114.87573242 C27.40158936 114.95098145 26.44502441 115.02623047 25.45947266 115.10375977 C22.78693504 115.3297524 20.12273037 115.59958511 17.45581055 115.88354492 C13.03808609 116.33381215 8.6609238 116.55619485 4.22143555 116.59057617 C3.52856445 116.61120117 2.83569336 116.63182617 2.12182617 116.65307617 C-0.80441165 116.67569444 -2.82949679 116.68913931 -5.2902832 115.01245117 C-6.94101316 112.38601094 -6.7184482 110.35964617 -6.34106445 107.34057617 C-4.4876367 104.78108071 -3.40350052 104.36138819 -0.34106445 103.34057617 C2.23159373 103.27028496 4.77534986 103.24686785 7.34643555 103.27807617 C8.04833008 103.28258789 8.75022461 103.28709961 9.47338867 103.29174805 C11.20194093 103.30350691 12.9304492 103.32144164 14.65893555 103.34057617 C14.51714517 101.11114869 14.37033857 98.88203989 14.22143555 96.65307617 C14.14022461 95.41170898 14.05901367 94.1703418 13.9753418 92.89135742 C13.74729763 89.52069142 13.74729763 89.52069142 13.15454102 86.97875977 C12.62127518 84.14010431 12.48258735 81.46566597 12.4128418 78.57885742 C12.38125977 77.46937744 12.34967773 76.35989746 12.31713867 75.21679688 C12.28555664 74.04076904 12.25397461 72.86474121 12.22143555 71.65307617 C11.95305836 63.06671206 11.49207568 54.61624714 10.39404297 46.09814453 C9.14165909 35.9004994 8.98032952 25.60166676 8.65893555 15.34057617 C7.97694092 15.35000244 7.29494629 15.35942871 6.59228516 15.36914062 C5.24662476 15.38013794 5.24662476 15.38013794 3.8737793 15.39135742 C2.98553467 15.40078369 2.09729004 15.41020996 1.18212891 15.41992188 C-2.81017356 15.29437777 -5.86381432 14.27616793 -9.21606445 12.15307617 C-11.092395 9.13009918 -10.83319434 6.7854854 -10.34106445 3.34057617 C-6.88834643 0.67343536 -4.31240704 -0.03147742 0 0 Z " fill="#FEF8FE" transform="translate(574.341064453125,116.659423828125)"/>
<path d="M0 0 C21.54644272 -0.75971786 21.54644272 -0.75971786 31 4 C31.69867188 4.30035156 32.39734375 4.60070312 33.1171875 4.91015625 C39.69362095 7.86571292 46.28877743 12.50839086 51 18 C51.74512313 22.2223644 51.28150424 25.20661811 49.0625 28.8125 C41.54814305 37.99075028 28.06321075 43.64374505 17 47 C15.35391331 47.58261801 13.70806741 48.16591692 12.0625 48.75 C9.00625484 49.82397026 7.40167994 50 4 50 C2.37914782 46.75829565 2.5111006 43.16003144 2.24609375 39.58984375 C2.18092056 38.74837296 2.11574738 37.90690216 2.04859924 37.03993225 C1.91129884 35.25374665 1.77609935 33.46739851 1.64282227 31.6809082 C1.44010816 28.97234884 1.22937317 26.26450325 1.01757812 23.55664062 C0.88493055 21.81774535 0.75275462 20.07881402 0.62109375 18.33984375 C0.55860947 17.53949203 0.49612518 16.73914032 0.43174744 15.91453552 C0.04101159 10.59554996 -0.052866 5.33348147 0 0 Z " fill="#F628FD" transform="translate(471,197)"/>
<path d="M0 0 C3.27075883 -0.0580476 6.54138524 -0.09361165 9.8125 -0.125 C10.74126953 -0.14175781 11.67003906 -0.15851563 12.62695312 -0.17578125 C13.51962891 -0.18222656 14.41230469 -0.18867188 15.33203125 -0.1953125 C16.15421143 -0.20578613 16.9763916 -0.21625977 17.82348633 -0.22705078 C20 0 20 0 23 2 C24.50999366 2.45438341 26.03284789 2.86697315 27.5625 3.25 C35.67554826 5.60349359 44.51414948 10.40706519 50 17 C51.3125 20.375 51.3125 20.375 51 24 C45.5257465 35.23203407 32.4511896 39.99409454 21.82714844 45.10180664 C20.15592283 45.92335114 18.51531964 46.80644716 16.87890625 47.6953125 C13.81660877 49.08311081 11.46499768 49.4838416 8.125 49.6875 C7.15820312 49.75324219 6.19140625 49.81898438 5.1953125 49.88671875 C4.47085938 49.92410156 3.74640625 49.96148437 3 50 C1.97482396 43.65245169 1.66549463 37.35727105 1.39453125 30.93945312 C1.2381631 27.56675389 1.05718858 24.32576312 0.47265625 20.99609375 C-0.17968609 16.8609981 -0.10581447 12.80318042 -0.0625 8.625 C-0.05798828 7.79355469 -0.05347656 6.96210938 -0.04882812 6.10546875 C-0.03713164 4.07028103 -0.01919935 2.03513077 0 0 Z " fill="#F62AFD" transform="translate(157,174)"/>
<path d="M0 0 C0.86818359 -0.00386719 1.73636719 -0.00773438 2.63085938 -0.01171875 C9.34903679 -0.00156278 15.6818727 0.18828155 21.875 3.0625 C22.99841797 3.57103516 22.99841797 3.57103516 24.14453125 4.08984375 C26.0625 5.125 26.0625 5.125 28.0625 7.125 C27.73923742 11.1119052 26.50064211 13.97901018 24.0625 17.125 C18.81869681 21.091426 13.23257716 23.38299138 7 25.3125 C6.23623047 25.55935547 5.47246094 25.80621094 4.68554688 26.06054688 C2.4831143 26.76705861 0.27443418 27.44891862 -1.9375 28.125 C-3.17371094 28.51300781 -4.40992188 28.90101563 -5.68359375 29.30078125 C-8.61040661 30.04214681 -10.94209523 30.30653968 -13.9375 30.125 C-13.99808594 28.86945313 -14.05867187 27.61390625 -14.12109375 26.3203125 C-14.53898364 17.89608962 -14.97547826 9.50833231 -15.9375 1.125 C-10.59428225 0.01950667 -5.42826176 -0.02407211 0 0 Z " fill="#F62BFD" transform="translate(169.9375,131.875)"/>
<path d="M0 0 C3.01238379 1.02838223 4.43648204 2.36779633 6.42578125 4.828125 C7.08453233 8.61594374 6.59096226 10.48399789 4.92578125 13.953125 C-2.00323343 21.92149188 -14.85005045 24.44070209 -24.67578125 27.21484375 C-26.56339061 27.66546308 -26.56339061 27.66546308 -27.57421875 28.828125 C-29.57380239 28.86893283 -31.57467129 28.87066856 -33.57421875 28.828125 C-33.66509766 27.07435547 -33.66509766 27.07435547 -33.7578125 25.28515625 C-33.84225909 23.73696886 -33.926905 22.18879232 -34.01171875 20.640625 C-34.07069336 19.48723633 -34.07069336 19.48723633 -34.13085938 18.31054688 C-34.35001532 14.38259797 -34.74828211 10.68249597 -35.57421875 6.828125 C-35.61246498 4.49510514 -35.61996159 2.16100992 -35.57421875 -0.171875 C-26.6946231 -4.61167283 -9.6807689 -1.41478084 0 0 Z " fill="#F62BFD" transform="translate(504.57421875,156.171875)"/>
<path d="M0 0 C-0.33 11.55 -0.66 23.1 -1 35 C-7.0850601 38.04253005 -13.36876178 38.19722023 -19.8671875 36.0546875 C-24.4885816 33.87426714 -28.69412648 31.71655947 -31 27 C-31.84968242 21.0422268 -31.47712125 16.04743408 -28 11 C-23.42299596 5.24463448 -19.06747108 2.78056442 -12 1 C-9 0 -9 0 0 0 Z " fill="#F62EFD" transform="translate(297,225)"/>
<path d="M0 0 C4.888125 -0.061875 4.888125 -0.061875 9.875 -0.125 C10.90093262 -0.14320801 11.92686523 -0.16141602 12.98388672 -0.18017578 C13.79100098 -0.1851709 14.59811523 -0.19016602 15.4296875 -0.1953125 C16.25710449 -0.20578613 17.08452148 -0.21625977 17.93701172 -0.22705078 C20 0 20 0 22 2 C15.4 2 8.8 2 2 2 C2 9.26 2 16.52 2 24 C1.67 24 1.34 24 1 24 C0.67 16.08 0.34 8.16 0 0 Z " fill="#F863FD" transform="translate(471,197)"/>
<path d="M0 0 C3.19934367 3.19934367 2.98298792 6.34333382 3.09765625 10.76953125 C3.09108215 12.11722242 3.07926444 13.46489707 3.0625 14.8125 C3.05798828 15.50537109 3.05347656 16.19824219 3.04882812 16.91210938 C3.03713156 18.60811068 3.01919924 20.30406703 3 22 C5.64 21.34 8.28 20.68 11 20 C10.67 20.66 10.34 21.32 10 22 C5.545 23.485 5.545 23.485 1 25 C0.67 16.75 0.34 8.5 0 0 Z " fill="#FA8BFD" transform="translate(247,125)"/>
<path d="M0 0 C-7.04859382 2.93608093 -13.35549653 3.43315569 -20.9375 3.3125 C-21.97712891 3.31572266 -23.01675781 3.31894531 -24.08789062 3.32226562 C-31.73244491 3.26755509 -31.73244491 3.26755509 -34 1 C-33.3387915 1.00523682 -32.67758301 1.01047363 -31.99633789 1.01586914 C-29.01840149 1.03657656 -26.04048018 1.04964012 -23.0625 1.0625 C-22.02158203 1.07087891 -20.98066406 1.07925781 -19.90820312 1.08789062 C-18.91884766 1.09111328 -17.92949219 1.09433594 -16.91015625 1.09765625 C-15.99371338 1.10289307 -15.07727051 1.10812988 -14.13305664 1.11352539 C-12.01636977 1.23921211 -12.01636977 1.23921211 -11 0 C-6.97279717 -0.75984959 -3.92759816 -1.16180608 0 0 Z " fill="#FA90FD" transform="translate(366,282)"/>
<path d="M0 0 C0.33 0.99 0.66 1.98 1 3 C2.57201172 2.96519531 2.57201172 2.96519531 4.17578125 2.9296875 C5.55468037 2.91092697 6.9335872 2.89272707 8.3125 2.875 C9.00279297 2.85824219 9.69308594 2.84148437 10.40429688 2.82421875 C14.17135396 2.78782206 15.78431704 2.85621136 19 5 C12.4 5 5.8 5 -1 5 C-0.67 3.35 -0.34 1.7 0 0 Z " fill="#F86BFD" transform="translate(653,139)"/>
<path d="M0 0 C0.66 0 1.32 0 2 0 C3.38938077 1.96147874 4.7260411 3.96166576 6 6 C5.38125 6.12375 4.7625 6.2475 4.125 6.375 C1.80879168 6.87197356 1.80879168 6.87197356 0 9 C-3.0390625 9.4140625 -3.0390625 9.4140625 -6.625 9.625 C-7.81351562 9.69976562 -9.00203125 9.77453125 -10.2265625 9.8515625 C-11.14179688 9.90054688 -12.05703125 9.94953125 -13 10 C-9.96474514 7.97649676 -8.80573798 7.67875982 -5.3125 7.375 C-4.50425781 7.30023438 -3.69601562 7.22546875 -2.86328125 7.1484375 C-1.94095703 7.07496094 -1.94095703 7.07496094 -1 7 C-0.67 4.69 -0.34 2.38 0 0 Z " fill="#F86FFD" transform="translate(364,160)"/>
<path d="M0 0 C0.66 0.33 1.32 0.66 2 1 C0.90344712 2.31886772 -0.20253423 3.62990057 -1.3125 4.9375 C-1.92738281 5.66839844 -2.54226563 6.39929688 -3.17578125 7.15234375 C-5 9 -5 9 -8 10 C-6.34908222 5.70761377 -3.26245434 3.1206085 0 0 Z " fill="#F74DFD" transform="translate(276,229)"/>
<path d="M0 0 C0.53625 0.226875 1.0725 0.45375 1.625 0.6875 C-0.355 1.6775 -2.335 2.6675 -4.375 3.6875 C-3.385 4.6775 -2.395 5.6675 -1.375 6.6875 C-3.685 6.3575 -5.995 6.0275 -8.375 5.6875 C-8.375 4.6975 -8.375 3.7075 -8.375 2.6875 C-2.95961538 -0.38942308 -2.95961538 -0.38942308 0 0 Z " fill="#F85BFD" transform="translate(194.375,161.3125)"/>
<path d="M0 0 C0.66 0.33 1.32 0.66 2 1 C0.88266271 2.50571657 -0.24410035 4.00444292 -1.375 5.5 C-2.00148438 6.3353125 -2.62796875 7.170625 -3.2734375 8.03125 C-3.84320313 8.6809375 -4.41296875 9.330625 -5 10 C-5.66 10 -6.32 10 -7 10 C-5.6062718 5.56541027 -3.39417765 3.12621626 0 0 Z " fill="#FCC6FE" transform="translate(267,178)"/>
<path d="M0 0 C0.66 0.33 1.32 0.66 2 1 C1.07038578 2.15224028 0.1309875 3.29659176 -0.8125 4.4375 C-1.59560547 5.39462891 -1.59560547 5.39462891 -2.39453125 6.37109375 C-4 8 -4 8 -7 9 C-5.44499019 5.18315774 -2.96404505 2.80804268 0 0 Z " fill="#F85BFD" transform="translate(96,100)"/>
<path d="M0 0 C-2.475 1.485 -2.475 1.485 -5 3 C-4.67 3.66 -4.34 4.32 -4 5 C-6.97 4.505 -6.97 4.505 -10 4 C-7.39928297 0.98864344 -3.94054294 -1.97027147 0 0 Z " fill="#F869FD" transform="translate(509,185)"/>
<path d="M0 0 C0.66 0.33 1.32 0.66 2 1 C1.04882866 2.1725131 0.08882991 3.33787015 -0.875 4.5 C-1.40867187 5.1496875 -1.94234375 5.799375 -2.4921875 6.46875 C-2.98976563 6.9740625 -3.48734375 7.479375 -4 8 C-4.66 8 -5.32 8 -6 8 C-4.55746343 4.63408134 -2.66735273 2.48952921 0 0 Z " fill="#FDCCFE" transform="translate(261,224)"/>
<path d="M0 0 C1.98 0 3.96 0 6 0 C5.01 0.66 4.02 1.32 3 2 C2.42251197 3.96361864 2.42251197 3.96361864 2.3125 6.125 C2.209375 7.40375 2.10625 8.6825 2 10 C1.67 10 1.34 10 1 10 C0.67 6.7 0.34 3.4 0 0 Z " fill="#F74CFD" transform="translate(154,133)"/>
<path d="M0 0 C0.66 0 1.32 0 2 0 C1.1875 1.9375 1.1875 1.9375 0 4 C-0.99 4.33 -1.98 4.66 -3 5 C-3 5.66 -3 6.32 -3 7 C-3.66 6.67 -4.32 6.34 -5 6 C-3.38405168 3.95880212 -1.7143618 1.95927063 0 0 Z " fill="#F85DFD" transform="translate(542,93)"/>
</svg>
