<?xml version="1.0" encoding="UTF-8"?>
<svg version="1.1" xmlns="http://www.w3.org/2000/svg" width="222" height="227">
<path d="M0 0 C0.495 0.99 0.495 0.99 1 2 C2.32 2 3.64 2 5 2 C7.375 4.1875 7.375 4.1875 10 7 C11.96271781 8.71679808 13.97712601 10.35347466 16 12 C16 10.02 16 8.04 16 6 C17.32 5.34 18.64 4.68 20 4 C23.18772993 6.12515329 24.24920753 7.66515721 26 11 C26 11.66 26 12.32 26 13 C26.66 13 27.32 13 28 13 C28.99 15.475 28.99 15.475 30 18 C31.32 18 32.64 18 34 18 C37.49358064 19.90953476 40.47600973 22.30007807 41.671875 26.1796875 C41.9375 28.375 41.9375 28.375 42 32 C42.77321882 29.01758453 43.41196203 26.02419525 44 23 C44.66 23 45.32 23 46 23 C45.83242187 22.10796875 45.66484375 21.2159375 45.4921875 20.296875 C45.18667969 18.54117187 45.18667969 18.54117187 44.875 16.75 C44.56175781 15.00976562 44.56175781 15.00976562 44.2421875 13.234375 C43.99626121 9.95006902 44.10507866 8.63532106 46 6 C46.66 5.67 47.32 5.34 48 5 C51.33461391 6.22246538 53.10284616 8.02880338 55.3125 10.75 C57.57788182 13.44619161 59.80059307 15.75608236 62.5625 17.9375 C70.55024427 24.60877863 74.56783337 34.82724277 79 44 C79.59554687 45.10408203 79.59554687 45.10408203 80.203125 46.23046875 C81 48 81 48 81 51 C81.66 51.33 82.32 51.66 83 52 C87.73403889 66.41287869 88.11242957 78.91348718 82 93 C81.20248234 95.66294311 80.56355839 98.35473306 79.9375 101.0625 C76.79126981 114.41818396 76.79126981 114.41818396 73.875 116.5625 C71.73218405 117.86948833 71.73218405 117.86948833 71.5625 120.5 C71.73473444 123.06293998 71.73473444 123.06293998 73.5625 124.3125 C74.036875 124.869375 74.51125 125.42625 75 126 C74.77430887 128.03122013 74.54083128 130.06382401 74.1953125 132.078125 C73.94057528 134.58473925 74.74646131 135.86161048 76 138 C76.125 140.75 76.125 140.75 76 143 C75.34 143 74.68 143 74 143 C73.8453125 143.804375 73.8453125 143.804375 73.6875 144.625 C72.54170187 148.58321171 70.61394054 152.05547609 68.375 155.5 C66.80899254 158.3472863 66.37308927 160.79143228 66 164 C65.154375 164.2475 64.30875 164.495 63.4375 164.75 C60.75018253 165.72720635 58.72354187 166.67837488 56.3125 168.125 C53 170 53 170 50 170 C50 170.66 50 171.32 50 172 C50.99 171.67 51.98 171.34 53 171 C53.99 173.475 53.99 173.475 55 176 C52.03875445 178.96124555 49.1981502 178.95957658 45.10546875 179.09765625 C44.14253906 179.08605469 43.17960938 179.07445312 42.1875 179.0625 C41.21167969 179.05347656 40.23585937 179.04445312 39.23046875 179.03515625 C38.12638672 179.01775391 38.12638672 179.01775391 37 179 C37.33 180.65 37.66 182.3 38 184 C33.24564388 185.58478537 28.08784454 185.47451012 23.25 184.375 C20.49345399 183.91557567 19.32387698 184.5368182 17 186 C20.92592596 188.05643741 24.76570244 189.68938409 29 191 C29 191.66 29 192.32 29 193 C30.65 193 32.3 193 34 193 C34 193.66 34 194.32 34 195 C35.32 195.33 36.64 195.66 38 196 C38.33 197.65 38.66 199.3 39 201 C37.39743892 201.50512244 35.79288208 202.00391627 34.1875 202.5 C33.29417969 202.7784375 32.40085938 203.056875 31.48046875 203.34375 C29 204 29 204 26 204 C25.67 204.66 25.34 205.32 25 206 C23.07421875 206.37890625 23.07421875 206.37890625 20.6875 206.5625 C17.44552636 206.81072998 17.44552636 206.81072998 14.28149414 207.49829102 C-3.16992284 211.33592204 -26.05885708 209.41880027 -41.1875 200 C-44.43543935 197.59664908 -47.27581594 194.97957631 -50 192 C-50.33 191.67 -50.66 191.34 -51 191 C-51.04063832 189.33382885 -51.042721 187.66611905 -51 186 C-52.02738281 185.74089844 -53.05476563 185.48179687 -54.11328125 185.21484375 C-66.23280416 181.72907291 -77.9935033 171.57142326 -85.53125 161.7265625 C-88.30802196 158.65981119 -89.15509891 158.72674221 -93 158 C-94.94921875 155.63671875 -94.94921875 155.63671875 -96.6875 152.6875 C-97.26886719 151.72199219 -97.85023437 150.75648438 -98.44921875 149.76171875 C-99.37794499 148.10779065 -100.26876089 146.43034377 -101.078125 144.71484375 C-102.29241901 142.45605107 -103.71016441 142.0341193 -106 141 C-107.41164959 138.17670081 -107.13206965 135.7709921 -107.125 132.625 C-107.12757812 131.48289063 -107.13015625 130.34078125 -107.1328125 129.1640625 C-107.0238268 126.56763848 -106.76461243 124.46375117 -106 122 C-108.475 122.99 -108.475 122.99 -111 124 C-111.99 123.01 -112.98 122.02 -114 121 C-112.59677057 116.43950436 -110.75206167 112.29946475 -108.609375 108.05078125 C-108.40828125 107.37402344 -108.2071875 106.69726562 -108 106 C-108.66 105.01 -109.32 104.02 -110 103 C-109.77359227 98.92466093 -107.97415321 96.11300006 -105.921875 92.71484375 C-104.75001362 90.53498296 -104.29645999 88.44579493 -104 86 C-109.14793357 88.73826254 -113.39808201 91.86294183 -117.7890625 95.70703125 C-120 97 -120 97 -122.7109375 96.76171875 C-125 96 -125 96 -126 95 C-126.64089042 74.81195184 -114.08999138 53.42314522 -101 39 C-92.9597205 30.57626102 -84.04068136 23.66653664 -72.09375 22.91015625 C-70 23 -70 23 -67 24 C-64.66700175 24.03954234 -62.33291811 24.04401732 -60 24 C-59.62875 22.576875 -59.62875 22.576875 -59.25 21.125 C-56.57153866 17.40491481 -55.61800798 17.3190015 -51.25 16.5 C-46.21879622 15.87720536 -42.67083183 16.08920516 -38 18 C-38 17.34 -38 16.68 -38 16 C-37.34 15.67 -36.68 15.34 -36 15 C-35.27840576 13.35636866 -34.60648579 11.68949614 -34 10 C-33.34 10 -32.68 10 -32 10 C-31.67 9.34 -31.34 8.68 -31 8 C-30.401875 7.87625 -29.80375 7.7525 -29.1875 7.625 C-26.82203161 7.19276069 -26.82203161 7.19276069 -25.53515625 4.9765625 C-21.48125353 1.81589258 -17.22770069 2.57766948 -12.25 2.75 C-10.77466797 2.77707031 -10.77466797 2.77707031 -9.26953125 2.8046875 C-6.84536217 2.85175874 -4.42317941 2.91749258 -2 3 C-2 2.34 -2 1.68 -2 1 C-1.34 0.67 -0.68 0.34 0 0 Z M31 20 C32 23 32 23 32 23 Z M-36 36 C-36 36.66 -36 37.32 -36 38 C-36.721875 37.938125 -37.44375 37.87625 -38.1875 37.8125 C-41.57992434 38.03866162 -43.19661201 39.13107467 -46 41 C-47.32608822 41.68096422 -48.65686601 42.35330586 -50 43 C-50 43.66 -50 44.32 -50 45 C-50.58136719 45.10183594 -51.16273437 45.20367187 -51.76171875 45.30859375 C-60.88544336 48.12691706 -69.00614253 60.11516297 -73.58203125 68.015625 C-82.21835302 86.19234631 -83.59164383 106.48081662 -76.875 125.5 C-73.02272913 134.94939384 -67.22585298 144.68610203 -59 151 C-58.34 151 -57.68 151 -57 151 C-56.70416016 151.86625 -56.70416016 151.86625 -56.40234375 152.75 C-54.44697318 155.88730766 -51.72462011 157.2728831 -48.5625 159 C-47.93722412 159.34812744 -47.31194824 159.69625488 -46.66772461 160.05493164 C-35.4463509 166.15633038 -25.13388687 168.17856517 -12.4375 168.1875 C-11.51775391 168.19974609 -10.59800781 168.21199219 -9.65039062 168.22460938 C-4.66069188 168.23537077 -0.68530336 167.90018892 4 166 C6.54039226 165.2461744 9.08550482 164.51131949 11.6328125 163.78125 C13.89283665 163.03536744 15.90424383 162.12031206 18 161 C18 160.34 18 159.68 18 159 C18.928125 158.896875 19.85625 158.79375 20.8125 158.6875 C24.2584654 157.94425256 24.76796192 157.51104284 27 155 C28.051875 154.319375 29.10375 153.63875 30.1875 152.9375 C31.115625 152.298125 32.04375 151.65875 33 151 C33 150.34 33 149.68 33 149 C33.66 149 34.32 149 35 149 C35 148.34 35 147.68 35 147 C35.66 147 36.32 147 37 147 C38.62449249 144.99099461 40.10176866 142.99802185 41.5625 140.875 C41.97435547 140.30523437 42.38621094 139.73546875 42.81054688 139.1484375 C45.37540138 135.45437536 46.61198942 132.47913963 47 128 C47.66 128 48.32 128 49 128 C52.48420296 117.70402006 52.48420296 117.70402006 54 107 C54.0515625 105.81664063 54.103125 104.63328125 54.15625 103.4140625 C54.61788083 87.83402188 50.65269572 75.46939437 43 62 C42.01 61.01 42.01 61.01 41 60 C40.195625 59.01 39.39125 58.02 38.5625 57 C33.44533208 50.99838331 27.33360022 44.17360477 20 41 C19.13503906 40.58621094 18.27007812 40.17242187 17.37890625 39.74609375 C16.44949219 39.31425781 15.52007812 38.88242187 14.5625 38.4375 C13.63566406 38.00308594 12.70882812 37.56867187 11.75390625 37.12109375 C9.12826226 36.05221456 6.80958106 35.35180003 4 35 C3.34 35.33 2.68 35.66 2 36 C2 35.34 2 34.68 2 34 C-1.35855523 33.24709147 -4.46650994 32.87190871 -7.90625 32.8671875 C-8.81503906 32.86589844 -9.72382812 32.86460938 -10.66015625 32.86328125 C-12.06587891 32.86908203 -12.06587891 32.86908203 -13.5 32.875 C-14.43714844 32.87113281 -15.37429687 32.86726563 -16.33984375 32.86328125 C-17.70302734 32.86521484 -17.70302734 32.86521484 -19.09375 32.8671875 C-20.32641602 32.86887939 -20.32641602 32.86887939 -21.58398438 32.87060547 C-26.53032911 33.13551682 -31.31744738 34.43914913 -36 36 Z " fill="#0148B0" transform="translate(131,9)"/>
<path d="M0 0 C0.495 0.99 0.495 0.99 1 2 C2.85646148 2.39494817 2.85646148 2.39494817 5.0625 2.5 C9.55395056 2.89588106 13.65321479 3.81451313 18 5 C18 5.66 18 6.32 18 7 C18.70125 7.2475 19.4025 7.495 20.125 7.75 C25.69360377 10.17113208 29.41110446 13.13762539 33 18 C34.60996061 20.06994936 36.26048833 22.03160522 38 24 C38.66 24 39.32 24 40 24 C40.2165625 25.11375 40.2165625 25.11375 40.4375 26.25 C40.623125 27.1575 40.80875 28.065 41 29 C41.2165625 30.11375 41.2165625 30.11375 41.4375 31.25 C41.623125 31.8275 41.80875 32.405 42 33 C42.66 33.33 43.32 33.66 44 34 C44.77147688 36.67747859 45.43090618 39.28043662 46 42 C46.309375 43.4540625 46.309375 43.4540625 46.625 44.9375 C47.49539984 52.0457654 46.89883953 58.92163868 46 66 C45.34 66 44.68 66 44 66 C43.96261719 66.61488281 43.92523438 67.22976562 43.88671875 67.86328125 C43.82097656 68.67152344 43.75523437 69.47976562 43.6875 70.3125 C43.62949219 71.11300781 43.57148438 71.91351563 43.51171875 72.73828125 C42.90766607 75.40810188 42.02669691 76.22791326 40 78 C38.56313367 80.24151147 37.24466753 82.38897167 36.25390625 84.86328125 C34.50320134 87.84656968 32.18513565 89.58775919 29.5 91.75 C28.5203125 92.54921875 27.540625 93.3484375 26.53125 94.171875 C24 96 24 96 22 96 C21.67 96.66 21.34 97.32 21 98 C19.11740978 98.92685807 17.19252926 99.76890573 15.25 100.5625 C13.67992187 101.21412109 13.67992187 101.21412109 12.078125 101.87890625 C0.0808516 106.24847156 -13.82823294 105.07891958 -25.58984375 100.61328125 C-38.70848102 94.4070989 -48.32516772 83.86107649 -54.0390625 70.5859375 C-58.21815064 57.97055929 -57.60297025 42.00636482 -52 30 C-49.89840564 26.45508329 -47.55775288 23.22604936 -45 20 C-44.401875 19.113125 -43.80375 18.22625 -43.1875 17.3125 C-31.12636326 4.56215545 -16.61335083 1.62127993 0 0 Z " fill="#013FAA" transform="translate(123,56)"/>
<path d="M0 0 C0.721875 0.391875 1.44375 0.78375 2.1875 1.1875 C1.8575 3.1675 1.5275 5.1475 1.1875 7.1875 C0.1975 6.8575 -0.7925 6.5275 -1.8125 6.1875 C-1.8125 5.1975 -1.8125 4.2075 -1.8125 3.1875 C-3.7925 3.8475 -5.7725 4.5075 -7.8125 5.1875 C-7.8125 6.8375 -7.8125 8.4875 -7.8125 10.1875 C-8.946875 10.47625 -10.08125 10.765 -11.25 11.0625 C-12.425625 11.43375 -13.60125 11.805 -14.8125 12.1875 C-16.45699869 15.47649737 -15.77137015 19.03784736 -15.65234375 22.65625 C-15.8125 25.1875 -15.8125 25.1875 -17.8125 27.1875 C-18.8025 27.6515625 -18.8025 27.6515625 -19.8125 28.125 C-22.13381409 29.15536859 -22.13381409 29.15536859 -23.8125 32.1875 C-23.8125 33.1775 -23.8125 34.1675 -23.8125 35.1875 C-25.7925 35.1875 -27.7725 35.1875 -29.8125 35.1875 C-31.91678384 40.31669186 -32.03005666 44.7485835 -31.8125 50.1875 C-29.68310172 51.53776777 -29.68310172 51.53776777 -26.6875 50.25 C-25.73875 49.899375 -24.79 49.54875 -23.8125 49.1875 C-23.8125 49.8475 -23.8125 50.5075 -23.8125 51.1875 C-21.1725 51.1875 -18.5325 51.1875 -15.8125 51.1875 C-15.8125 69.1875 -15.8125 69.1875 -16.375 70.9375 C-16.97139389 73.29838793 -16.97139389 73.29838793 -16.3125 76.125 C-15.47451546 81.2576553 -17.12513996 85.35040122 -18.8125 90.1875 C-17.3275 90.6825 -17.3275 90.6825 -15.8125 91.1875 C-15.8125 101.5625 -15.8125 101.5625 -17.8125 106.1875 C-17.1525 106.1875 -16.4925 106.1875 -15.8125 106.1875 C-15.8125 109.4875 -15.8125 112.7875 -15.8125 116.1875 C-12.3475 115.6925 -12.3475 115.6925 -8.8125 115.1875 C-8.1525 117.8275 -7.4925 120.4675 -6.8125 123.1875 C-5.843125 123.166875 -4.87375 123.14625 -3.875 123.125 C-0.8125 123.1875 -0.8125 123.1875 0.1875 124.1875 C0.22842937 126.52047433 0.22991723 128.85455225 0.1875 131.1875 C3.1875 132.52083333 3.1875 132.52083333 6.1875 131.1875 C6.496875 132.13625 6.80625 133.085 7.125 134.0625 C8.06144742 137.04830408 8.06144742 137.04830408 9.1875 139.1875 C11.4975 139.1875 13.8075 139.1875 16.1875 139.1875 C16.1875 141.1675 16.1875 143.1475 16.1875 145.1875 C16.8475 145.1875 17.5075 145.1875 18.1875 145.1875 C18.1875 146.1775 18.1875 147.1675 18.1875 148.1875 C17.5275 148.1875 16.8675 148.1875 16.1875 148.1875 C15.8575 148.8475 15.5275 149.5075 15.1875 150.1875 C8.42780253 144.9566313 2.65582923 139.80627821 -2.7421875 133.15625 C-4.65371692 130.97600937 -4.65371692 130.97600937 -7.33984375 130.73828125 C-9.8125 130.1875 -9.8125 130.1875 -11.76171875 127.82421875 C-12.33535156 126.85097656 -12.90898438 125.87773437 -13.5 124.875 C-14.08136719 123.90949219 -14.66273437 122.94398438 -15.26171875 121.94921875 C-16.19044499 120.29529065 -17.08126089 118.61784377 -17.890625 116.90234375 C-19.10491901 114.64355107 -20.52266441 114.2216193 -22.8125 113.1875 C-24.22414959 110.36420081 -23.94456965 107.9584921 -23.9375 104.8125 C-23.94136719 103.09933594 -23.94136719 103.09933594 -23.9453125 101.3515625 C-23.8363268 98.75513848 -23.57711243 96.65125117 -22.8125 94.1875 C-25.2875 95.1775 -25.2875 95.1775 -27.8125 96.1875 C-28.8025 95.1975 -29.7925 94.2075 -30.8125 93.1875 C-29.40927057 88.62700436 -27.56456167 84.48696475 -25.421875 80.23828125 C-25.22078125 79.56152344 -25.0196875 78.88476562 -24.8125 78.1875 C-25.4725 77.1975 -26.1325 76.2075 -26.8125 75.1875 C-26.58609227 71.11216093 -24.78665321 68.30050006 -22.734375 64.90234375 C-21.56251362 62.72248296 -21.10895999 60.63329493 -20.8125 58.1875 C-25.96043357 60.92576254 -30.21058201 64.05044183 -34.6015625 67.89453125 C-36.8125 69.1875 -36.8125 69.1875 -39.5234375 68.94921875 C-41.8125 68.1875 -41.8125 68.1875 -42.8125 67.1875 C-43.45089686 47.07799897 -30.94617338 25.51015495 -17.8125 11.1875 C-5.19570492 -1.50098142 -5.19570492 -1.50098142 0 0 Z " fill="#06A3EA" transform="translate(47.8125,36.8125)"/>
<path d="M0 0 C3.31529273 0.98562757 4.74949379 1.65447419 6.8125 4.5 C8 7 8 7 8 9 C8.66 9 9.32 9 10 9 C10.66 10.65 11.32 12.3 12 14 C13.32 14 14.64 14 16 14 C19.49358064 15.90953476 22.47600973 18.30007807 23.671875 22.1796875 C23.9375 24.375 23.9375 24.375 24 28 C24.77321882 25.01758453 25.41196203 22.02419525 26 19 C26.66 19 27.32 19 28 19 C27.74863281 17.66195313 27.74863281 17.66195313 27.4921875 16.296875 C27.28851563 15.12640625 27.08484375 13.9559375 26.875 12.75 C26.66617188 11.58984375 26.45734375 10.4296875 26.2421875 9.234375 C25.99626121 5.95006902 26.10507866 4.63532106 28 2 C28.66 1.67 29.32 1.34 30 1 C33.33461391 2.22246538 35.10284616 4.02880338 37.3125 6.75 C39.57788182 9.44619161 41.80059307 11.75608236 44.5625 13.9375 C52.55024427 20.60877863 56.56783337 30.82724277 61 40 C61.59554687 41.10408203 61.59554687 41.10408203 62.203125 42.23046875 C63 44 63 44 63 47 C63.66 47.33 64.32 47.66 65 48 C69.73403889 62.41287869 70.11242957 74.91348718 64 89 C63.20248234 91.66294311 62.56355839 94.35473306 61.9375 97.0625 C58.79126981 110.41818396 58.79126981 110.41818396 55.875 112.5625 C53.73218405 113.86948833 53.73218405 113.86948833 53.5625 116.5 C53.74224651 119.06225461 53.74224651 119.06225461 55.5625 120.375 C56.036875 120.91125 56.51125 121.4475 57 122 C56.6875 125.6875 56.6875 125.6875 56 129 C54.68 129 53.36 129 52 129 C51 128 51 128 50.97265625 125.015625 C51.03230521 122.51555535 51.0947816 120.01555148 51.16015625 117.515625 C51.19901031 114.04570219 51.19901031 114.04570219 49.87109375 111.234375 C49.58363281 110.49703125 49.29617187 109.7596875 49 109 C49.99 107.515 49.99 107.515 51 106 C53.31 106.33 55.62 106.66 58 107 C58 105.68 58 104.36 58 103 C57.34 103 56.68 103 56 103 C56.495 101.02 56.495 101.02 57 99 C57.66 99 58.32 99 59 99 C59 91.74 59 84.48 59 77 C59.99 77 60.98 77 62 77 C62.33 76.34 62.66 75.68 63 75 C63.66 75.33 64.32 75.66 65 76 C64.67 70.72 64.34 65.44 64 60 C62.35 59.34 60.7 58.68 59 58 C59.165 57.38125 59.33 56.7625 59.5 56.125 C60.20584152 53.12517354 60.00312563 52.0093769 59 49 C59.32550502 47.33178677 59.65846063 45.66500443 60 44 C59.67 43.34 59.34 42.68 59 42 C58.4225 42.20625 57.845 42.4125 57.25 42.625 C54.48032433 43.08661261 53.35438733 42.42944945 51 41 C51.2784375 40.1028125 51.2784375 40.1028125 51.5625 39.1875 C52.22093687 36.83591238 52.22093687 36.83591238 51 34 C51.185625 33.34 51.37125 32.68 51.5625 32 C51.706875 31.34 51.85125 30.68 52 30 C50.29107501 26.68539295 50.29107501 26.68539295 46.875 26.3125 C45.92625 26.209375 44.9775 26.10625 44 26 C43 23 43 23 43 20 C41.72125 19.87625 40.4425 19.7525 39.125 19.625 C35.25 19.25 35.25 19.25 33 17 C33.39532025 14.54901444 34.21301426 12.36095721 35 10 C31.95555364 11.63753682 31.95555364 11.63753682 31.1875 13.875 C30.95601274 16.49852224 31.65228304 17.78023089 33 20 C32.34 20.598125 31.68 21.19625 31 21.8125 C28.6626154 23.87501834 28.6626154 23.87501834 29 27 C28.34 27.66 27.68 28.32 27 29 C26.60235737 30.98821313 26.26224651 32.98944339 26 35 C23.69 35 21.38 35 19 35 C18.67 32.36 18.34 29.72 18 27 C15.69 27 13.38 27 11 27 C11 24.03 11 21.06 11 18 C7.04 18.495 7.04 18.495 3 19 C3.33 17.35 3.66 15.7 4 14 C1.78918149 13.89459074 1.78918149 13.89459074 -1 15 C-1.66 13.68 -2.32 12.36 -3 11 C-3.66 11 -4.32 11 -5 11 C-5 10.34 -5 9.68 -5 9 C-7.31 9.66 -9.62 10.32 -12 11 C-13.10844919 7.67465243 -12.84454356 5.37817425 -12 2 C-7.62140745 2.50522222 -5.18348776 5.17827222 -2 8 C-2.04125 7.05125 -2.0825 6.1025 -2.125 5.125 C-2 2 -2 2 0 0 Z M13 16 C14 19 14 19 14 19 Z " fill="#060B7F" transform="translate(149,13)"/>
<path d="M0 0 C4.87218653 -0.06202323 9.7445843 -0.10457796 14.6171875 -0.09130859 C15.3692749 -0.09018066 16.1213623 -0.08905273 16.89624023 -0.08789062 C18.74609375 0.04150391 18.74609375 0.04150391 20.74609375 1.04150391 C21.12828142 2.69765048 21.46004477 4.36607415 21.74609375 6.04150391 C22.24109375 7.03150391 22.24109375 7.03150391 22.74609375 8.04150391 C26.32144394 9.1176093 26.32144394 9.1176093 29.74609375 8.04150391 C29.74609375 10.35150391 29.74609375 12.66150391 29.74609375 15.04150391 C31.06609375 14.71150391 32.38609375 14.38150391 33.74609375 14.04150391 C33.74609375 14.70150391 33.74609375 15.36150391 33.74609375 16.04150391 C35.72609375 15.38150391 37.70609375 14.72150391 39.74609375 14.04150391 C39.46765625 15.71212891 39.46765625 15.71212891 39.18359375 17.41650391 C38.42928718 20.86719251 38.42928718 20.86719251 39.74609375 23.04150391 C40.69484375 23.12400391 41.64359375 23.20650391 42.62109375 23.29150391 C45.74609375 24.04150391 45.74609375 24.04150391 47.62109375 26.97900391 C48.74609375 30.04150391 48.74609375 30.04150391 48.74609375 32.04150391 C50.06609375 31.71150391 51.38609375 31.38150391 52.74609375 31.04150391 C53.65023048 34.87874563 53.85186273 38.41652665 53.80859375 42.35400391 C53.79957031 43.42263672 53.79054688 44.49126953 53.78125 45.59228516 C53.76964844 46.40052734 53.75804687 47.20876953 53.74609375 48.04150391 C56.05609375 48.70150391 58.36609375 49.36150391 60.74609375 50.04150391 C60.71354167 52.02718099 60.68098958 54.01285807 60.6484375 55.99853516 C60.66346158 58.24455852 60.66346158 58.24455852 61.74609375 61.04150391 C61.74609375 64.97046786 60.74309512 68.24043619 59.74609375 72.04150391 C60.40609375 72.37150391 61.06609375 72.70150391 61.74609375 73.04150391 C61.58109375 73.63962891 61.41609375 74.23775391 61.24609375 74.85400391 C60.63468135 77.15494726 60.63468135 77.15494726 60.74609375 80.04150391 C60.08609375 80.04150391 59.42609375 80.04150391 58.74609375 80.04150391 C58.74609375 81.36150391 58.74609375 82.68150391 58.74609375 84.04150391 C58.27171875 84.49525391 57.79734375 84.94900391 57.30859375 85.41650391 C53.48418167 89.39389247 54.24210503 97.70146758 53.74609375 103.04150391 C52.75609375 103.04150391 51.76609375 103.04150391 50.74609375 103.04150391 C50.64296875 103.63962891 50.53984375 104.23775391 50.43359375 104.85400391 C49.74609375 107.04150391 49.74609375 107.04150391 48.27734375 108.38525391 C46.36923622 110.44912531 46.07488022 111.98871416 45.55859375 114.72900391 C45.32076172 115.94136719 45.32076172 115.94136719 45.078125 117.17822266 C44.96855469 117.79310547 44.85898438 118.40798828 44.74609375 119.04150391 C41.98345086 119.6388321 39.58576606 120.04150391 36.74609375 120.04150391 C37.05546875 121.21712891 37.05546875 121.21712891 37.37109375 122.41650391 C37.49484375 123.28275391 37.61859375 124.14900391 37.74609375 125.04150391 C35.39475589 127.39284177 34.56707575 127.32021551 31.37109375 127.72900391 C28.56462168 128.27583663 27.17230893 128.55681065 25.265625 130.72509766 C24.03110075 132.85975108 24.03110075 132.85975108 22.74609375 136.04150391 C22.06546875 136.00669922 21.38484375 135.97189453 20.68359375 135.93603516 C14.60128282 135.76618339 9.13841129 136.26160871 3.18359375 137.54150391 C-3.0947665 138.87185418 -9.14934867 139.34423019 -15.56640625 139.35400391 C-16.3850415 139.35916016 -17.20367676 139.36431641 -18.04711914 139.36962891 C-21.9461977 139.32367533 -23.94235633 139.24920385 -27.25390625 137.04150391 C-18.67390625 137.04150391 -10.09390625 137.04150391 -1.25390625 137.04150391 C-0.92390625 136.38150391 -0.59390625 135.72150391 -0.25390625 135.04150391 C1.06609375 135.37150391 2.38609375 135.70150391 3.74609375 136.04150391 C4.07609375 135.38150391 4.40609375 134.72150391 4.74609375 134.04150391 C7.31243769 133.39991792 9.88432581 133.01951244 12.49609375 132.60400391 C13.23859375 132.41837891 13.98109375 132.23275391 14.74609375 132.04150391 C15.07609375 131.38150391 15.40609375 130.72150391 15.74609375 130.04150391 C16.40609375 130.04150391 17.06609375 130.04150391 17.74609375 130.04150391 C18.07609375 129.38150391 18.40609375 128.72150391 18.74609375 128.04150391 C19.69484375 127.73212891 20.64359375 127.42275391 21.62109375 127.10400391 C24.71782248 126.05111614 25.66691296 125.40420934 27.74609375 123.04150391 C31.41276042 120.04150391 31.41276042 120.04150391 33.74609375 120.04150391 C33.74609375 119.38150391 33.74609375 118.72150391 33.74609375 118.04150391 C34.40609375 118.04150391 35.06609375 118.04150391 35.74609375 118.04150391 C35.74609375 117.38150391 35.74609375 116.72150391 35.74609375 116.04150391 C36.40609375 116.04150391 37.06609375 116.04150391 37.74609375 116.04150391 C38.01421875 115.48462891 38.28234375 114.92775391 38.55859375 114.35400391 C40.42534868 110.71874431 42.54131242 107.33662994 44.87109375 103.97900391 C46.45511464 101.49737117 47.30673033 99.89736611 47.74609375 97.04150391 C48.40609375 97.04150391 49.06609375 97.04150391 49.74609375 97.04150391 C49.87910889 96.32897461 50.01212402 95.61644531 50.14916992 94.88232422 C50.7404119 92.06854439 51.51007868 89.35304394 52.296875 86.58837891 C54.01714331 79.76586801 54.08802374 73.29233017 53.93359375 66.29150391 C53.92005859 65.10556641 53.90652344 63.91962891 53.89257812 62.69775391 C53.85766784 59.81183698 53.80863914 56.92693126 53.74609375 54.04150391 C53.08609375 53.71150391 52.42609375 53.38150391 51.74609375 53.04150391 C50.71312884 49.3957454 49.88137063 45.83625559 49.24609375 42.10400391 C49.08109375 41.42337891 48.91609375 40.74275391 48.74609375 40.04150391 C48.08609375 39.71150391 47.42609375 39.38150391 46.74609375 39.04150391 C46.74609375 38.05150391 46.74609375 37.06150391 46.74609375 36.04150391 C46.08609375 35.71150391 45.42609375 35.38150391 44.74609375 35.04150391 C43.16628695 33.13257069 41.89260758 31.36592739 40.87109375 29.10400391 C38.12175145 24.06354303 33.09297652 20.64849174 28.74609375 17.04150391 C27.66328125 15.89681641 27.66328125 15.89681641 26.55859375 14.72900391 C24.7928887 12.70079464 24.7928887 12.70079464 21.74609375 13.04150391 C20.73070114 12.05713718 19.73270539 11.05471537 18.74609375 10.04150391 C16.59006597 8.83367841 16.59006597 8.83367841 14.24609375 7.85400391 C13.47265625 7.50982422 12.69921875 7.16564453 11.90234375 6.81103516 C9.65675961 5.8734438 9.65675961 5.8734438 6.74609375 6.04150391 C6.74609375 5.38150391 6.74609375 4.72150391 6.74609375 4.04150391 C5.42609375 4.37150391 4.10609375 4.70150391 2.74609375 5.04150391 C2.74609375 4.38150391 2.74609375 3.72150391 2.74609375 3.04150391 C-1.46218098 2.98321755 -5.67035114 2.9478109 -9.87890625 2.91650391 C-11.06871094 2.89974609 -12.25851563 2.88298828 -13.484375 2.86572266 C-15.21494141 2.85605469 -15.21494141 2.85605469 -16.98046875 2.84619141 C-18.03830566 2.83571777 -19.09614258 2.82524414 -20.18603516 2.81445312 C-23.49431317 3.05929624 -26.13787318 3.94093377 -29.25390625 5.04150391 C-32.62890625 5.16650391 -32.62890625 5.16650391 -35.25390625 5.04150391 C-35.25390625 5.70150391 -35.25390625 6.36150391 -35.25390625 7.04150391 C-37.56390625 7.70150391 -39.87390625 8.36150391 -42.25390625 9.04150391 C-41.25390625 6.04150391 -41.25390625 6.04150391 -39.19140625 4.68994141 C-26.66269572 -0.74138789 -13.4079452 0.17101971 0 0 Z " fill="#0F177C" transform="translate(130.25390625,39.95849609375)"/>
<path d="M0 0 C3.36704285 -0.2295711 5.41370268 -0.33943529 8.375 1.375 C8.91125 1.91125 9.4475 2.4475 10 3 C10 3.66 10 4.32 10 5 C8.2335343 6.0076952 6.46166177 7.00591714 4.6875 8 C3.20830078 8.8353125 3.20830078 8.8353125 1.69921875 9.6875 C-1 11 -1 11 -4 11 C-4 11.66 -4 12.32 -4 13 C-3.01 12.67 -2.02 12.34 -1 12 C-0.01 14.475 -0.01 14.475 1 17 C-1.96124555 19.96124555 -4.8018498 19.95957658 -8.89453125 20.09765625 C-9.85746094 20.08605469 -10.82039063 20.07445312 -11.8125 20.0625 C-12.78832031 20.05347656 -13.76414062 20.04445312 -14.76953125 20.03515625 C-15.87361328 20.01775391 -15.87361328 20.01775391 -17 20 C-16.505 22.475 -16.505 22.475 -16 25 C-20.75435612 26.58478537 -25.91215546 26.47451012 -30.75 25.375 C-33.50654601 24.91557567 -34.67612302 25.5368182 -37 27 C-33.07407404 29.05643741 -29.23429756 30.68938409 -25 32 C-25 32.66 -25 33.32 -25 34 C-23.35 34 -21.7 34 -20 34 C-20 34.66 -20 35.32 -20 36 C-18.68 36.33 -17.36 36.66 -16 37 C-15.505 39.475 -15.505 39.475 -15 42 C-16.60256108 42.50512244 -18.20711792 43.00391627 -19.8125 43.5 C-20.70582031 43.7784375 -21.59914062 44.056875 -22.51953125 44.34375 C-25 45 -25 45 -28 45 C-28.495 45.99 -28.495 45.99 -29 47 C-30.92578125 47.37890625 -30.92578125 47.37890625 -33.3125 47.5625 C-36.54711599 47.80781806 -36.54711599 47.80781806 -39.70092773 48.50268555 C-44.84683333 49.61580116 -50.28216273 49.22623522 -55.53417969 49.24023438 C-57.72890607 49.24990703 -59.92268189 49.28093857 -62.1171875 49.3125 C-69.27856598 49.3651662 -75.45067643 49.25751696 -82 46 C-82 45.67 -82 45.34 -82 45 C-78.37 45 -74.74 45 -71 45 C-70.67 45.66 -70.34 46.32 -70 47 C-65.66645485 46.8600776 -61.33322453 46.71199848 -57 46.5625 C-55.16888672 46.50352539 -55.16888672 46.50352539 -53.30078125 46.44335938 C-47.14055436 46.22691897 -41.09870047 45.90718169 -35 45 C-33.14617903 40.5971752 -32.31260196 37.61222132 -34 33 C-37.47307328 31.13016255 -37.47307328 31.13016255 -41 30 C-40.67 28.02 -40.34 26.04 -40 24 C-38.865625 23.87625 -37.73125 23.7525 -36.5625 23.625 C-35.386875 23.41875 -34.21125 23.2125 -33 23 C-32.67 22.34 -32.34 21.68 -32 21 C-31.34 20.34 -30.68 19.68 -30 19 C-29.505 17.515 -29.505 17.515 -29 16 C-28.01 16 -27.02 16 -26 16 C-26 16.66 -26 17.32 -26 18 C-25.34 18 -24.68 18 -24 18 C-23.67 17.34 -23.34 16.68 -23 16 C-18.38 16 -13.76 16 -9 16 C-9 13.36 -9 10.72 -9 8 C-6.69 8 -4.38 8 -2 8 C-1.34 5.36 -0.68 2.72 0 0 Z " fill="#0B1E8A" transform="translate(185,168)"/>
<path d="M0 0 C0.721875 0.391875 1.44375 0.78375 2.1875 1.1875 C1.8575 3.1675 1.5275 5.1475 1.1875 7.1875 C0.1975 6.8575 -0.7925 6.5275 -1.8125 6.1875 C-1.8125 5.1975 -1.8125 4.2075 -1.8125 3.1875 C-3.7925 3.8475 -5.7725 4.5075 -7.8125 5.1875 C-7.8125 6.8375 -7.8125 8.4875 -7.8125 10.1875 C-8.946875 10.47625 -10.08125 10.765 -11.25 11.0625 C-12.425625 11.43375 -13.60125 11.805 -14.8125 12.1875 C-16.45699869 15.47649737 -15.77137015 19.03784736 -15.65234375 22.65625 C-15.8125 25.1875 -15.8125 25.1875 -17.8125 27.1875 C-18.8025 27.6515625 -18.8025 27.6515625 -19.8125 28.125 C-22.13381409 29.15536859 -22.13381409 29.15536859 -23.8125 32.1875 C-23.8125 33.1775 -23.8125 34.1675 -23.8125 35.1875 C-25.7925 35.1875 -27.7725 35.1875 -29.8125 35.1875 C-31.91678384 40.31669186 -32.03005666 44.7485835 -31.8125 50.1875 C-29.68310172 51.53776777 -29.68310172 51.53776777 -26.6875 50.25 C-25.73875 49.899375 -24.79 49.54875 -23.8125 49.1875 C-23.8125 49.8475 -23.8125 50.5075 -23.8125 51.1875 C-21.1725 51.1875 -18.5325 51.1875 -15.8125 51.1875 C-16.1425 52.5075 -16.4725 53.8275 -16.8125 55.1875 C-16.8125 54.5275 -16.8125 53.8675 -16.8125 53.1875 C-17.18375 53.6825 -17.555 54.1775 -17.9375 54.6875 C-20.55944393 56.78505514 -22.55092472 56.40493835 -25.8125 56.1875 C-26.121875 57.05375 -26.121875 57.05375 -26.4375 57.9375 C-27.8125 60.1875 -27.8125 60.1875 -30.75 62.125 C-33.89417763 64.24250739 -35.14132685 65.8451537 -36.8125 69.1875 C-41.6875 68.3125 -41.6875 68.3125 -42.8125 67.1875 C-43.45089686 47.07799897 -30.94617338 25.51015495 -17.8125 11.1875 C-5.19570492 -1.50098142 -5.19570492 -1.50098142 0 0 Z " fill="#13A3E2" transform="translate(47.8125,36.8125)"/>
<path d="M0 0 C2.66666667 0 5.33333333 0 8 0 C8 0.99 8 1.98 8 3 C7.30132812 3.24234375 6.60265625 3.4846875 5.8828125 3.734375 C4.97273438 4.06953125 4.06265625 4.4046875 3.125 4.75 C2.22007813 5.07484375 1.31515625 5.3996875 0.3828125 5.734375 C-2.3831282 7.2034976 -2.73375655 8.2413982 -4 11 C-7.125 11.75 -7.125 11.75 -10 12 C-10 12.66 -10 13.32 -10 14 C-10.969375 14.268125 -11.93875 14.53625 -12.9375 14.8125 C-13.948125 15.204375 -14.95875 15.59625 -16 16 C-16.33 16.99 -16.66 17.98 -17 19 C-18.12920844 19.98229612 -19.30380519 20.91298049 -20.5 21.8125 C-32.20316111 31.85578727 -38.03039521 46.99917157 -40 62 C-40.86734388 78.66107073 -38.34132099 94.57203998 -28.13671875 108.1953125 C-27 110 -27 110 -27 113 C-30.465 113.495 -30.465 113.495 -34 114 C-34.98120464 110.94736336 -34.98120464 109.05263664 -34 106 C-34.804375 105.731875 -35.60875 105.46375 -36.4375 105.1875 C-37.283125 104.795625 -38.12875 104.40375 -39 104 C-39.33 103.01 -39.66 102.02 -40 101 C-40.33 101.99 -40.66 102.98 -41 104 C-41.66 103.67 -42.32 103.34 -43 103 C-43.05067427 95.52525728 -43.08572275 88.05055881 -43.10986328 80.57568359 C-43.11992616 78.03237248 -43.13357774 75.48907295 -43.15087891 72.94580078 C-43.17511427 69.29196312 -43.18648027 65.63827832 -43.1953125 61.984375 C-43.20563507 60.84570984 -43.21595764 59.70704468 -43.22659302 58.53387451 C-43.22674408 57.47307678 -43.22689514 56.41227905 -43.22705078 55.31933594 C-43.231492 54.38667908 -43.23593323 53.45402222 -43.24050903 52.49310303 C-42.98513248 49.84588409 -42.20124151 48.33658821 -41 46 C-41 44.68 -41 43.36 -41 42 C-41.66 41.67 -42.32 41.34 -43 41 C-38.25 40 -38.25 40 -36 40 C-35.83044205 38.27111445 -35.66448486 36.54187557 -35.5 34.8125 C-35.4071875 33.84957031 -35.314375 32.88664062 -35.21875 31.89453125 C-35.01875156 29.24812333 -34.96120817 26.65239135 -35 24 C-32.36 24 -29.72 24 -27 24 C-27 21.36 -27 18.72 -27 16 C-26.38125 15.896875 -25.7625 15.79375 -25.125 15.6875 C-22.63473516 15.12474627 -22.63473516 15.12474627 -21 12 C-20.67 12.33 -20.34 12.66 -20 13 C-19.67 11.35 -19.34 9.7 -19 8 C-12.375 7.875 -12.375 7.875 -9 9 C-8.01 9 -7.02 9 -6 9 C-6 8.34 -6 7.68 -6 7 C-5 6 -4 5 -3 4 C-2.67 3.01 -2.34 2.02 -2 1 C-1.34 1 -0.68 1 0 1 C0 0.67 0 0.34 0 0 Z " fill="#0F7AC6" transform="translate(91,40)"/>
<path d="M0 0 C3.31529273 0.98562757 4.74949379 1.65447419 6.8125 4.5 C8 7 8 7 8 9 C8.66 9 9.32 9 10 9 C10.66 10.65 11.32 12.3 12 14 C13.32 14 14.64 14 16 14 C19.49358064 15.90953476 22.47600973 18.30007807 23.671875 22.1796875 C23.9375 24.375 23.9375 24.375 24 28 C24.77321882 25.01758453 25.41196203 22.02419525 26 19 C26.99 19 27.98 19 29 19 C29 15.04 29 11.08 29 7 C34 6 34 6 35.80078125 7.14453125 C36.29964844 7.69496094 36.79851562 8.24539062 37.3125 8.8125 C37.82425781 9.35519531 38.33601563 9.89789063 38.86328125 10.45703125 C40 12 40 12 40 14 C40.66 14 41.32 14 42 14 C43.27400375 15.47000433 44.5435008 16.94515781 45.7578125 18.46484375 C47.07336124 20.09066342 48.48213245 21.56202021 50 23 C49.505 24.485 49.505 24.485 49 26 C47.33333333 26 45.66666667 26 44 26 C43 23 43 23 43 20 C41.72125 19.87625 40.4425 19.7525 39.125 19.625 C35.25 19.25 35.25 19.25 33 17 C33.39532025 14.54901444 34.21301426 12.36095721 35 10 C31.95555364 11.63753682 31.95555364 11.63753682 31.1875 13.875 C30.95601274 16.49852224 31.65228304 17.78023089 33 20 C32.34 20.598125 31.68 21.19625 31 21.8125 C28.6626154 23.87501834 28.6626154 23.87501834 29 27 C28.34 27.66 27.68 28.32 27 29 C26.60235737 30.98821313 26.26224651 32.98944339 26 35 C23.69 35 21.38 35 19 35 C18.67 32.36 18.34 29.72 18 27 C15.69 27 13.38 27 11 27 C11 24.03 11 21.06 11 18 C7.04 18.495 7.04 18.495 3 19 C3.33 17.35 3.66 15.7 4 14 C1.78918149 13.89459074 1.78918149 13.89459074 -1 15 C-1.66 13.68 -2.32 12.36 -3 11 C-3.66 11 -4.32 11 -5 11 C-5 10.34 -5 9.68 -5 9 C-7.31 9.66 -9.62 10.32 -12 11 C-13.10844919 7.67465243 -12.84454356 5.37817425 -12 2 C-7.62140745 2.50522222 -5.18348776 5.17827222 -2 8 C-2.04125 7.05125 -2.0825 6.1025 -2.125 5.125 C-2 2 -2 2 0 0 Z M13 16 C14 19 14 19 14 19 Z " fill="#06198E" transform="translate(149,13)"/>
<path d="M0 0 C3.63 0.66 7.26 1.32 11 2 C11 2.66 11 3.32 11 4 C11.70125 4.2475 12.4025 4.495 13.125 4.75 C18.69360377 7.17113208 22.41110446 10.13762539 26 15 C27.60996061 17.06994936 29.26048833 19.03160522 31 21 C31.66 21 32.32 21 33 21 C33.144375 21.7425 33.28875 22.485 33.4375 23.25 C33.623125 24.1575 33.80875 25.065 34 26 C34.144375 26.7425 34.28875 27.485 34.4375 28.25 C34.623125 28.8275 34.80875 29.405 35 30 C35.66 30.33 36.32 30.66 37 31 C37.77147688 33.67747859 38.43090618 36.28043662 39 39 C39.20625 39.969375 39.4125 40.93875 39.625 41.9375 C40.49539984 49.0457654 39.89883953 55.92163868 39 63 C38.34 63 37.68 63 37 63 C36.96261719 63.61488281 36.92523438 64.22976562 36.88671875 64.86328125 C36.82097656 65.67152344 36.75523437 66.47976562 36.6875 67.3125 C36.60048828 68.51326172 36.60048828 68.51326172 36.51171875 69.73828125 C35.90766607 72.40810188 35.02669691 73.22791326 33 75 C31.56323822 77.24134838 30.24511917 79.39103205 29.25 81.86328125 C27.51173495 84.83462807 25.22571682 86.58547319 22.5625 88.75 C21.59441406 89.54921875 20.62632812 90.3484375 19.62890625 91.171875 C17 93 17 93 14 93 C14.33 90.69 14.66 88.38 15 86 C15.99 86.66 16.98 87.32 18 88 C19.485 87.505 19.485 87.505 21 87 C21.33 84.03 21.66 81.06 22 78 C25.465 77.01 25.465 77.01 29 76 C29.74957157 72.52852158 29.74957157 72.52852158 30 69 C30.99 68.505 30.99 68.505 32 68 C31.95875 67.13375 31.9175 66.2675 31.875 65.375 C32.00506332 61.86329042 32.83023526 59.28996333 34 56 C34 55.01 34 54.02 34 53 C34.99 53 35.98 53 37 53 C36.505 48.545 36.505 48.545 36 44 C34.02 44.495 34.02 44.495 32 45 C32.33 42.69 32.66 40.38 33 38 C32.01 38.99 31.02 39.98 30 41 C30.01160156 39.80761719 30.02320313 38.61523438 30.03515625 37.38671875 C30.04453592 35.82031406 30.05363593 34.25390769 30.0625 32.6875 C30.07087891 31.90181641 30.07925781 31.11613281 30.08789062 30.30664062 C30.09111328 29.54931641 30.09433594 28.79199219 30.09765625 28.01171875 C30.10289307 27.31522217 30.10812988 26.61872559 30.11352539 25.90112305 C30.06895991 23.77502032 30.06895991 23.77502032 29 21 C26.69 21 24.38 21 22 21 C22.04125 19.824375 22.0825 18.64875 22.125 17.4375 C21.74347724 14.43830719 21.25135092 13.25238105 19.09375 11.0859375 C13.16719884 6.82857322 6.7274351 3.77538673 0 1 C0 0.67 0 0.34 0 0 Z " fill="#0D1F7E" transform="translate(130,59)"/>
<path d="M0 0 C0.66 0 1.32 0 2 0 C2 10.375 2 10.375 0 15 C0.66 15 1.32 15 2 15 C2 18.3 2 21.6 2 25 C5.465 24.505 5.465 24.505 9 24 C9.66 26.64 10.32 29.28 11 32 C12.4540625 31.9690625 12.4540625 31.9690625 13.9375 31.9375 C17 32 17 32 18 33 C18.04092937 35.33297433 18.04241723 37.66705225 18 40 C21 41.33333333 21 41.33333333 24 40 C24.309375 40.94875 24.61875 41.8975 24.9375 42.875 C25.87394742 45.86080408 25.87394742 45.86080408 27 48 C29.31 48 31.62 48 34 48 C34 49.98 34 51.96 34 54 C34.66 54 35.32 54 36 54 C36 54.99 36 55.98 36 57 C35.34 57 34.68 57 34 57 C33.505 57.99 33.505 57.99 33 59 C26.24030253 53.7691313 20.46832923 48.61877821 15.0703125 41.96875 C13.15878308 39.78850937 13.15878308 39.78850937 10.47265625 39.55078125 C8 39 8 39 6.05078125 36.63671875 C5.47714844 35.66347656 4.90351562 34.69023437 4.3125 33.6875 C3.73113281 32.72199219 3.14976563 31.75648438 2.55078125 30.76171875 C1.62348035 29.11032899 0.73376764 27.43558739 -0.07421875 25.72265625 C-1.28854705 23.46308334 -2.66523157 22.93390737 -5 22 C-5.26666667 14 -5.26666667 14 -3 10 C-2.61709538 8.00889599 -2.27395385 6.00899487 -2 4 C-1.34 4 -0.68 4 0 4 C0 2.68 0 1.36 0 0 Z " fill="#04A5EF" transform="translate(30,128)"/>
<path d="M0 0 C0.33 0.66 0.66 1.32 1 2 C1.66 2.33 2.32 2.66 3 3 C2.34 3 1.68 3 1 3 C1 3.66 1 4.32 1 5 C0.34 5 -0.32 5 -1 5 C-0.67 6.32 -0.34 7.64 0 9 C-2.3078491 10.15392455 -4.47230331 10.53437166 -7 11 C-7.33 12.98 -7.66 14.96 -8 17 C-8.99 17 -9.98 17 -11 17 C-11.33 17.66 -11.66 18.32 -12 19 C-13.32 19 -14.64 19 -16 19 C-16 19.763125 -16 20.52625 -16 21.3125 C-16 23.20833333 -16 25.10416667 -16 27 C-17.98 27.33 -19.96 27.66 -22 28 C-21.9071875 29.1446875 -21.9071875 29.1446875 -21.8125 30.3125 C-22.03512091 33.50339968 -22.68302438 33.96106145 -25 36 C-25.33 36.99 -25.66 37.98 -26 39 C-25.34 39.33 -24.68 39.66 -24 40 C-23.515625 42.8359375 -23.515625 42.8359375 -23.25 46.375 C-23.15203125 47.53773437 -23.0540625 48.70046875 -22.953125 49.8984375 C-23 53 -23 53 -25 56 C-24.68493373 59.14221967 -24.68493373 59.14221967 -24 62 C-24.66 62 -25.32 62 -26 62 C-26.33 62.66 -26.66 63.32 -27 64 C-31.1092582 51.6722254 -30.49694616 36.77917035 -25 25 C-22.89840564 21.45508329 -20.55775288 18.22604936 -18 15 C-17.401875 14.113125 -16.80375 13.22625 -16.1875 12.3125 C-13.2746579 9.23320978 -9.94436444 7.01129433 -6.4375 4.6484375 C-4.23742515 3.16056637 -2.11013554 1.6119091 0 0 Z " fill="#0761BC" transform="translate(96,61)"/>
<path d="M0 0 C4.98163672 0.73279604 4.98163672 0.73279604 10 1 C9.34 2.32 8.68 3.64 8 5 C7.07767578 4.96519531 7.07767578 4.96519531 6.13671875 4.9296875 C5.32847656 4.91164063 4.52023438 4.89359375 3.6875 4.875 C2.48673828 4.84019531 2.48673828 4.84019531 1.26171875 4.8046875 C-1.28388576 4.84182678 -1.28388576 4.84182678 -4 7 C-4.71727778 8.64551962 -5.38325228 10.31422289 -6 12 C-6.99 13.485 -6.99 13.485 -8 15 C-10.91517292 13.92598892 -12.77810176 13.22189824 -15 11 C-15.99 11.66 -16.98 12.32 -18 13 C-20.28397032 12.65394389 -21.93409037 12.03295481 -24 11 C-24 11.66 -24 12.32 -24 13 C-27.63 13 -31.26 13 -35 13 C-35 12.34 -35 11.68 -35 11 C-35.99 10.67 -36.98 10.34 -38 10 C-36.1781122 7.43279447 -34.71387046 6.15656079 -31.61328125 5.4765625 C-24.78369625 4.73876792 -24.78369625 4.73876792 -21 6 C-18.66700175 6.03954234 -16.33291811 6.04401732 -14 6 C-13.608125 5.030625 -13.21625 4.06125 -12.8125 3.0625 C-11 0 -11 0 -8.6875 -0.9375 C-5.63886436 -1.0083985 -2.99391828 -0.5870428 0 0 Z " fill="#0467C2" transform="translate(85,27)"/>
<path d="M0 0 C2.66666667 0 5.33333333 0 8 0 C8 0.99 8 1.98 8 3 C7.30132812 3.24234375 6.60265625 3.4846875 5.8828125 3.734375 C4.97273438 4.06953125 4.06265625 4.4046875 3.125 4.75 C2.22007813 5.07484375 1.31515625 5.3996875 0.3828125 5.734375 C-2.3831282 7.2034976 -2.73375655 8.2413982 -4 11 C-7.125 11.75 -7.125 11.75 -10 12 C-10 12.66 -10 13.32 -10 14 C-10.969375 14.268125 -11.93875 14.53625 -12.9375 14.8125 C-13.948125 15.204375 -14.95875 15.59625 -16 16 C-16.33 16.99 -16.66 17.98 -17 19 C-18.12920844 19.98229612 -19.30380519 20.91298049 -20.5 21.8125 C-28.29129082 28.41053006 -34.08649285 38.2883095 -37 48 C-38.17821566 44.5823943 -37.79212234 42.73050275 -36.5625 39.375 C-34.85070838 34.14625469 -34.68644458 29.45818691 -35 24 C-32.36 24 -29.72 24 -27 24 C-27 21.36 -27 18.72 -27 16 C-26.38125 15.896875 -25.7625 15.79375 -25.125 15.6875 C-22.63473516 15.12474627 -22.63473516 15.12474627 -21 12 C-20.67 12.33 -20.34 12.66 -20 13 C-19.67 11.35 -19.34 9.7 -19 8 C-12.375 7.875 -12.375 7.875 -9 9 C-8.01 9 -7.02 9 -6 9 C-6 8.34 -6 7.68 -6 7 C-5 6 -4 5 -3 4 C-2.67 3.01 -2.34 2.02 -2 1 C-1.34 1 -0.68 1 0 1 C0 0.67 0 0.34 0 0 Z " fill="#1062A8" transform="translate(91,40)"/>
<path d="M0 0 C2 1 2 1 4 3 C5.98 2.34 7.96 1.68 10 1 C10 1.66 10 2.32 10 3 C12.64 3 15.28 3 18 3 C17.67 4.32 17.34 5.64 17 7 C17 6.34 17 5.68 17 5 C16.62875 5.495 16.2575 5.99 15.875 6.5 C13.25305607 8.59755514 11.26157528 8.21743835 8 8 C7.79375 8.5775 7.5875 9.155 7.375 9.75 C5.51490783 12.79378719 2.94908576 14.05485833 0 16 C-0.33 16.99 -0.66 17.98 -1 19 C-2.98 19 -4.96 19 -7 19 C-7.33266291 12.79029227 -6.45029331 8.71735105 -4 3 C-3.01 3.33 -2.02 3.66 -1 4 C-0.67 2.68 -0.34 1.36 0 0 Z " fill="#08B8F5" transform="translate(14,85)"/>
<path d="M0 0 C3.31529273 0.98562757 4.74949379 1.65447419 6.8125 4.5 C8 7 8 7 8 9 C8.66 9 9.32 9 10 9 C10.33 11.97 10.66 14.94 11 18 C7.04 18.495 7.04 18.495 3 19 C3.33 17.35 3.66 15.7 4 14 C1.78918149 13.89459074 1.78918149 13.89459074 -1 15 C-1.66 13.68 -2.32 12.36 -3 11 C-3.66 11 -4.32 11 -5 11 C-5 10.34 -5 9.68 -5 9 C-7.31 9.66 -9.62 10.32 -12 11 C-13.10844919 7.67465243 -12.84454356 5.37817425 -12 2 C-7.62140745 2.50522222 -5.18348776 5.17827222 -2 8 C-2.04125 7.05125 -2.0825 6.1025 -2.125 5.125 C-2 2 -2 2 0 0 Z " fill="#091C85" transform="translate(149,13)"/>
<path d="M0 0 C4.87218653 -0.06202323 9.7445843 -0.10457796 14.6171875 -0.09130859 C15.3692749 -0.09018066 16.1213623 -0.08905273 16.89624023 -0.08789062 C18.74609375 0.04150391 18.74609375 0.04150391 20.74609375 1.04150391 C21.12828142 2.69765048 21.46004477 4.36607415 21.74609375 6.04150391 C22.24109375 7.03150391 22.24109375 7.03150391 22.74609375 8.04150391 C24.7707263 8.69363682 24.7707263 8.69363682 26.74609375 9.04150391 C26.41609375 10.03150391 26.08609375 11.02150391 25.74609375 12.04150391 C24.75609375 11.54650391 24.75609375 11.54650391 23.74609375 11.04150391 C23.08609375 11.70150391 22.42609375 12.36150391 21.74609375 13.04150391 C21.34390625 12.59162109 20.94171875 12.14173828 20.52734375 11.67822266 C18.53615148 9.84859642 16.72009217 8.93019322 14.24609375 7.85400391 C13.47265625 7.50982422 12.69921875 7.16564453 11.90234375 6.81103516 C9.65675961 5.8734438 9.65675961 5.8734438 6.74609375 6.04150391 C6.74609375 5.38150391 6.74609375 4.72150391 6.74609375 4.04150391 C5.42609375 4.37150391 4.10609375 4.70150391 2.74609375 5.04150391 C2.74609375 4.38150391 2.74609375 3.72150391 2.74609375 3.04150391 C-1.46218098 2.98321755 -5.67035114 2.9478109 -9.87890625 2.91650391 C-11.06871094 2.89974609 -12.25851563 2.88298828 -13.484375 2.86572266 C-15.21494141 2.85605469 -15.21494141 2.85605469 -16.98046875 2.84619141 C-18.03830566 2.83571777 -19.09614258 2.82524414 -20.18603516 2.81445312 C-23.49431317 3.05929624 -26.13787318 3.94093377 -29.25390625 5.04150391 C-32.62890625 5.16650391 -32.62890625 5.16650391 -35.25390625 5.04150391 C-35.25390625 5.70150391 -35.25390625 6.36150391 -35.25390625 7.04150391 C-37.56390625 7.70150391 -39.87390625 8.36150391 -42.25390625 9.04150391 C-41.25390625 6.04150391 -41.25390625 6.04150391 -39.19140625 4.68994141 C-26.66269572 -0.74138789 -13.4079452 0.17101971 0 0 Z " fill="#04218D" transform="translate(130.25390625,39.95849609375)"/>
<path d="M0 0 C2.125 0.375 2.125 0.375 4 1 C3.67 2.65 3.34 4.3 3 6 C2.32453125 6.06316406 1.6490625 6.12632812 0.953125 6.19140625 C-4.3431463 6.77161126 -4.3431463 6.77161126 -8.5546875 9.69140625 C-9.78017972 11.81529069 -9.78017972 11.81529069 -11 15 C-11.680625 14.96519531 -12.36125 14.93039063 -13.0625 14.89453125 C-19.14481093 14.72467948 -24.60768246 15.22010481 -30.5625 16.5 C-36.84086025 17.83035028 -42.89544242 18.30272628 -49.3125 18.3125 C-50.13113525 18.31765625 -50.94977051 18.3228125 -51.79321289 18.328125 C-55.69229145 18.28217143 -57.68845008 18.20769994 -61 16 C-52.42 16 -43.84 16 -35 16 C-34.67 15.34 -34.34 14.68 -34 14 C-32.68 14.33 -31.36 14.66 -30 15 C-29.67 14.34 -29.34 13.68 -29 13 C-26.43365606 12.35841401 -23.86176794 11.97800854 -21.25 11.5625 C-20.13625 11.2840625 -20.13625 11.2840625 -19 11 C-18.67 10.34 -18.34 9.68 -18 9 C-17.34 9 -16.68 9 -16 9 C-15.67 8.34 -15.34 7.68 -15 7 C-14.05125 6.690625 -13.1025 6.38125 -12.125 6.0625 C-9.15310098 5.05205433 -7.93911169 4.37002539 -6 2 C-5.505 2.99 -5.505 2.99 -5 4 C-4.34 4 -3.68 4 -3 4 C-2.67 3.34 -2.34 2.68 -2 2 C-1.34 1.34 -0.68 0.68 0 0 Z " fill="#072391" transform="translate(164,161)"/>
<path d="M0 0 C2.125 0.9375 2.125 0.9375 4 2 C4 3.65 4 5.3 4 7 C4.7425 7.144375 5.485 7.28875 6.25 7.4375 C7.1575 7.623125 8.065 7.80875 9 8 C9.7425 8.144375 10.485 8.28875 11.25 8.4375 C11.8275 8.623125 12.405 8.80875 13 9 C13.33 9.66 13.66 10.32 14 11 C14.66 11.33 15.32 11.66 16 12 C16.99 11.67 17.98 11.34 19 11 C19.4640625 12.423125 19.4640625 12.423125 19.9375 13.875 C20.87394742 16.86080408 20.87394742 16.86080408 22 19 C24.31 19 26.62 19 29 19 C29 20.98 29 22.96 29 25 C29.66 25 30.32 25 31 25 C31 25.99 31 26.98 31 28 C30.34 28 29.68 28 29 28 C28.67 28.66 28.34 29.32 28 30 C21.24030253 24.7691313 15.46832923 19.61877821 10.0703125 12.96875 C7.65099916 10.66811996 6.20973513 10.57557447 3 10 C1.41796875 8.44140625 1.41796875 8.44140625 0.1875 6.5625 C-0.23144531 5.94503906 -0.65039062 5.32757813 -1.08203125 4.69140625 C-2 3 -2 3 -2 1 C-1.34 0.67 -0.68 0.34 0 0 Z " fill="#2683C4" transform="translate(35,157)"/>
<path d="M0 0 C0.5775 0.639375 1.155 1.27875 1.75 1.9375 C4.03786229 4.0347071 5.07654209 4.39514664 8 5 C9.21333397 7.42666795 9 9.33499722 9 12 C11.31 12 13.62 12 16 12 C16 12.66 16 13.32 16 14 C15.34 14 14.68 14 14 14 C14.66 15.65 15.32 17.3 16 19 C15.67 19.33 15.34 19.66 15 20 C15.99 20 16.98 20 18 20 C18 20.66 18 21.32 18 22 C21.62885324 22.15149298 21.62885324 22.15149298 25 21 C25 22.32 25 23.64 25 25 C23.1875 26.0625 23.1875 26.0625 21 27 C20.01 26.67 19.02 26.34 18 26 C18 25.34 18 24.68 18 24 C17.40703125 24.21914062 16.8140625 24.43828125 16.203125 24.6640625 C14 25 14 25 12.359375 24.0234375 C6.95816899 18.49113426 2.21350123 12.05184992 -1 5 C-0.71875 2.1015625 -0.71875 2.1015625 0 0 Z " fill="#135FB2" transform="translate(71,124)"/>
<path d="M0 0 C0.495 0.99 0.495 0.99 1 2 C3.02463255 2.65213292 3.02463255 2.65213292 5 3 C5.495 5.475 5.495 5.475 6 8 C4.39743892 8.50512244 2.79288208 9.00391627 1.1875 9.5 C0.29417969 9.7784375 -0.59914062 10.056875 -1.51953125 10.34375 C-4 11 -4 11 -7 11 C-7.33 11.66 -7.66 12.32 -8 13 C-9.92578125 13.37890625 -9.92578125 13.37890625 -12.3125 13.5625 C-15.54711599 13.80781806 -15.54711599 13.80781806 -18.70092773 14.50268555 C-23.84683333 15.61580116 -29.28216273 15.22623522 -34.53417969 15.24023438 C-36.72890607 15.24990703 -38.92268189 15.28093857 -41.1171875 15.3125 C-48.27856598 15.3651662 -54.45067643 15.25751696 -61 12 C-61 11.67 -61 11.34 -61 11 C-57.37 11 -53.74 11 -50 11 C-49.67 11.66 -49.34 12.32 -49 13 C-44.66645485 12.8600776 -40.33322453 12.71199848 -36 12.5625 C-34.16888672 12.50352539 -34.16888672 12.50352539 -32.30078125 12.44335938 C-26.14055436 12.22691897 -20.09870047 11.90718169 -14 11 C-13.71125 10.195625 -13.4225 9.39125 -13.125 8.5625 C-12 6 -12 6 -10 5 C-9.34 5.99 -8.68 6.98 -8 8 C-4.7 7.67 -1.4 7.34 2 7 C2 6.01 2 5.02 2 4 C1.01 3.67 0.02 3.34 -1 3 C-0.67 2.01 -0.34 1.02 0 0 Z " fill="#112388" transform="translate(164,202)"/>
<path d="M0 0 C3.36704285 -0.2295711 5.41370268 -0.33943529 8.375 1.375 C8.91125 1.91125 9.4475 2.4475 10 3 C10 3.66 10 4.32 10 5 C8.2335343 6.0076952 6.46166177 7.00591714 4.6875 8 C3.20830078 8.8353125 3.20830078 8.8353125 1.69921875 9.6875 C-1 11 -1 11 -4 11 C-4 11.66 -4 12.32 -4 13 C-3.01 12.67 -2.02 12.34 -1 12 C-0.34 13.65 0.32 15.3 1 17 C-2.02153065 20.02153065 -4.93732828 19.96666651 -9.11328125 20.09765625 C-10.69689453 20.08025391 -10.69689453 20.08025391 -12.3125 20.0625 C-13.38113281 20.05347656 -14.44976562 20.04445312 -15.55078125 20.03515625 C-16.35902344 20.02355469 -17.16726562 20.01195312 -18 20 C-17.67 19.34 -17.34 18.68 -17 18 C-14.93359375 17.5859375 -14.93359375 17.5859375 -12.4375 17.375 C-11.61121094 17.30023438 -10.78492188 17.22546875 -9.93359375 17.1484375 C-8.97646484 17.07496094 -8.97646484 17.07496094 -8 17 C-8.165 15.88625 -8.33 14.7725 -8.5 13.625 C-9 10 -9 10 -9 8 C-6.69 8 -4.38 8 -2 8 C-1.34 5.36 -0.68 2.72 0 0 Z " fill="#071182" transform="translate(185,168)"/>
<path d="M0 0 C0.60328125 0.55042969 1.2065625 1.10085937 1.828125 1.66796875 C2.74851563 2.48201172 2.74851563 2.48201172 3.6875 3.3125 C5.078125 4.85546875 5.078125 4.85546875 5.078125 6.85546875 C5.738125 6.85546875 6.398125 6.85546875 7.078125 6.85546875 C8.35212875 8.32547308 9.6216258 9.80062656 10.8359375 11.3203125 C12.15148624 12.94613217 13.56025745 14.41748896 15.078125 15.85546875 C14.748125 16.84546875 14.418125 17.83546875 14.078125 18.85546875 C12.41145833 18.85546875 10.74479167 18.85546875 9.078125 18.85546875 C8.078125 15.85546875 8.078125 15.85546875 8.078125 12.85546875 C6.16 12.66984375 6.16 12.66984375 4.203125 12.48046875 C0.328125 12.10546875 0.328125 12.10546875 -1.921875 9.85546875 C-1.52655475 7.40448319 -0.70886074 5.21642596 0.078125 2.85546875 C-2.96632136 4.49300557 -2.96632136 4.49300557 -3.734375 6.73046875 C-3.96586226 9.35399099 -3.26959196 10.63569964 -1.921875 12.85546875 C-3.241875 14.17546875 -4.561875 15.49546875 -5.921875 16.85546875 C-6.581875 16.52546875 -7.241875 16.19546875 -7.921875 15.85546875 C-7.261875 10.57546875 -6.601875 5.29546875 -5.921875 -0.14453125 C-1.921875 -1.14453125 -1.921875 -1.14453125 0 0 Z " fill="#06128E" transform="translate(183.921875,20.14453125)"/>
<path d="M0 0 C0.33 0 0.66 0 1 0 C1.24954005 1.43410368 1.47392642 2.87260072 1.6875 4.3125 C1.81511719 5.11300781 1.94273438 5.91351563 2.07421875 6.73828125 C2 9 2 9 0.58203125 10.60546875 C0.05996094 11.06566406 -0.46210937 11.52585937 -1 12 C-1.33 12.99 -1.66 13.98 -2 15 C-1.34 15.33 -0.68 15.66 0 16 C0.484375 18.8359375 0.484375 18.8359375 0.75 22.375 C0.84796875 23.53773437 0.9459375 24.70046875 1.046875 25.8984375 C1 29 1 29 -1 32 C-0.68493373 35.14221967 -0.68493373 35.14221967 0 38 C-0.66 38 -1.32 38 -2 38 C-2.33 38.66 -2.66 39.32 -3 40 C-4.82519495 34.52441515 -5.38491205 29.63448475 -5.375 23.875 C-5.37556396 23.04693848 -5.37612793 22.21887695 -5.37670898 21.36572266 C-5.26170589 14.87401794 -4.84499726 4.84499726 0 0 Z " fill="#1E6DB1" transform="translate(72,85)"/>
<path d="M0 0 C1.4540625 0.0309375 1.4540625 0.0309375 2.9375 0.0625 C2.81632812 0.65562988 2.69515625 1.24875977 2.5703125 1.85986328 C-1.14212184 20.30423656 -2.88154652 36.77406808 2.9375 55.0625 C-1.38369576 52.18170283 -1.94468696 49.01281491 -3.0625 44.0625 C-4.17500367 35.91473499 -4.17062142 27.64910264 -4.25 19.4375 C-4.26969849 18.13945435 -4.26969849 18.13945435 -4.28979492 16.81518555 C-4.29084229 15.99703369 -4.29188965 15.17888184 -4.29296875 14.3359375 C-4.29707764 13.60810059 -4.30118652 12.88026367 -4.30541992 12.13037109 C-4.0625 10.0625 -4.0625 10.0625 -3.0480957 8.04541016 C-1.76576969 5.83456904 -1.76576969 5.83456904 -2.0625 2.0625 C-2.7225 1.7325 -3.3825 1.4025 -4.0625 1.0625 C-3.0625 0.0625 -3.0625 0.0625 0 0 Z " fill="#1581C7" transform="translate(52.0625,79.9375)"/>
<path d="M0 0 C1.32 0.33 2.64 0.66 4 1 C3.96744792 2.98567708 3.93489583 4.97135417 3.90234375 6.95703125 C3.91736783 9.20305461 3.91736783 9.20305461 5 12 C5 15.92896395 3.99700137 19.19893228 3 23 C3.66 23.33 4.32 23.66 5 24 C3.625 26.5 3.625 26.5 2 29 C1.34 29 0.68 29 0 29 C-2.19872915 24.58509147 -2.30067641 20.4561514 -2.25 15.625 C-2.25773438 14.89539063 -2.26546875 14.16578125 -2.2734375 13.4140625 C-2.25618294 8.58278501 -1.52436141 4.58518234 0 0 Z " fill="#04128D" transform="translate(187,89)"/>
<path d="M0 0 C1.65 0 3.3 0 5 0 C8 5.75 8 5.75 8 8 C9.32 7.67 10.64 7.34 12 7 C13.16846586 11.86261563 12.95036616 16.38979534 12.7421875 21.35546875 C12.82726562 22.22816406 12.91234375 23.10085937 13 24 C13.99 24.66 14.98 25.32 16 26 C15.34 29.3 14.68 32.6 14 36 C13.67 36 13.34 36 13 36 C13 34.02 13 32.04 13 30 C12.34 29.67 11.68 29.34 11 29 C10.57575206 26.50459716 10.25064252 24.07588746 10 21.5625 C9.71291425 16.296177 9.71291425 16.296177 7 12 C7 11.01 7 10.02 7 9 C6.34 9 5.68 9 5 9 C3.7109375 7.5390625 3.7109375 7.5390625 2.375 5.625 C1.92898437 4.99851562 1.48296875 4.37203125 1.0234375 3.7265625 C0 2 0 2 0 0 Z " fill="#03138C" transform="translate(171,64)"/>
<path d="M0 0 C4.92186125 1.19317848 7.08753758 4.1944326 10.17578125 7.92578125 C11.86587296 9.84749152 13.55847359 11.35816793 15.5625 12.9375 C19.60233252 16.26442089 22.58879484 20.363067 25 25 C25 25.99 25 26.98 25 28 C24.4225 27.690625 23.845 27.38125 23.25 27.0625 C21.0661063 25.9327131 21.0661063 25.9327131 18.8125 25.5 C18.214375 25.335 17.61625 25.17 17 25 C16.67 24.34 16.34 23.68 16 23 C17.32 23.33 18.64 23.66 20 24 C20.33 23.34 20.66 22.68 21 22 C20.01 21.67 19.02 21.34 18 21 C17.7834375 20.0409375 17.7834375 20.0409375 17.5625 19.0625 C17.19895007 16.79688294 17.19895007 16.79688294 14.9375 15.75 C14.298125 15.5025 13.65875 15.255 13 15 C13 14.34 13 13.68 13 13 C12.34 13 11.68 13 11 13 C9.47407673 11.24585947 8.1132848 9.39971994 6.73046875 7.53125 C4.76103044 5.44776391 4.76103044 5.44776391 0 6 C0 9.96 0 13.92 0 18 C-0.33 18 -0.66 18 -1 18 C-1.39083065 15.91957837 -1.7621087 13.83547661 -2.125 11.75 C-2.43824219 10.00976562 -2.43824219 10.00976562 -2.7578125 8.234375 C-3.00422792 4.94353687 -2.82204861 3.67573572 -1 1 C-0.67 0.67 -0.34 0.34 0 0 Z " fill="#0B106E" transform="translate(178,14)"/>
<path d="M0 0 C0.33 0.66 0.66 1.32 1 2 C1.66 2 2.32 2 3 2 C3.33 1.34 3.66 0.68 4 0 C4.26554687 0.60328125 4.53109375 1.2065625 4.8046875 1.828125 C5.15789062 2.62734375 5.51109375 3.4265625 5.875 4.25 C6.39707031 5.43335938 6.39707031 5.43335938 6.9296875 6.640625 C7.61724472 8.15626208 8.346295 9.65411278 9.125 11.125 C10.23518586 13.50396971 10.14403872 15.40730309 10 18 C9.01 17.34 8.02 16.68 7 16 C6.8125 13.375 6.8125 13.375 7 11 C6.030625 10.773125 5.06125 10.54625 4.0625 10.3125 C-0.69229318 8.97765027 -4.77811307 6.50824121 -9 4 C-9 3.01 -9 2.02 -9 1 C-5.8035914 -0.06546953 -3.34252724 -0.07427838 0 0 Z " fill="#0567C2" transform="translate(73,184)"/>
<path d="M0 0 C0.66 0.33 1.32 0.66 2 1 C1.17777146 6.9905222 0.38968906 12.42405886 -2 18 C-2.33 17.34 -2.66 16.68 -3 16 C-3.66 16 -4.32 16 -5 16 C-5.99 21.28 -6.98 26.56 -8 32 C-6.35 32 -4.7 32 -3 32 C-3.33 32.66 -3.66 33.32 -4 34 C-8.875 33.125 -8.875 33.125 -10 32 C-10.19969963 25.70946155 -8.50549045 19.7054623 -6.6875 13.75 C-6.38658447 12.74054321 -6.38658447 12.74054321 -6.07958984 11.71069336 C-4.65407602 7.24147011 -2.76237257 3.7931086 0 0 Z " fill="#0DB4ED" transform="translate(15,72)"/>
<path d="M0 0 C0.6875 1.75 0.6875 1.75 1 4 C-1.81393117 8.84621479 -6.48429135 12.59983929 -10.625 16.3125 C-11.19476563 16.82425781 -11.76453125 17.33601563 -12.3515625 17.86328125 C-14 19 -14 19 -17 19 C-16.67 16.69 -16.34 14.38 -16 12 C-14.515 12.99 -14.515 12.99 -13 14 C-12.01 13.67 -11.02 13.34 -10 13 C-9.67 10.03 -9.34 7.06 -9 4 C-2.25 2 -2.25 2 0 2 C0 1.34 0 0.68 0 0 Z " fill="#061C8B" transform="translate(161,133)"/>
<path d="M0 0 C-0.66 0.33 -1.32 0.66 -2 1 C-2 1.66 -2 2.32 -2 3 C-4.31 3 -6.62 3 -9 3 C-9 4.32 -9 5.64 -9 7 C-13.32734391 9.22923777 -16.28400182 8.92470553 -21 8 C-21 8.66 -21 9.32 -21 10 C-26.48946087 11.12029814 -29.83430559 10.79217969 -35 9 C-33.27897313 6.89400659 -32.31381027 6.07225894 -29.625 5.453125 C-28.75875 5.38609375 -27.8925 5.3190625 -27 5.25 C-26.13375 5.17265625 -25.2675 5.0953125 -24.375 5.015625 C-22 5 -22 5 -19 6 C-16.66700175 6.03954234 -14.33291811 6.04401732 -12 6 C-11.608125 5.030625 -11.21625 4.06125 -10.8125 3.0625 C-9 0 -9 0 -6.5625 -0.9375 C-4.12833535 -0.99686987 -2.29985308 -0.76661769 0 0 Z " fill="#207EC0" transform="translate(83,27)"/>
<path d="M0 0 C1.216875 0.144375 2.43375 0.28875 3.6875 0.4375 C7 1 7 1 10 3 C9.67 3.99 9.34 4.98 9 6 C6.525 5.505 6.525 5.505 4 5 C4 4.34 4 3.68 4 3 C2.68 3.33 1.36 3.66 0 4 C0 3.34 0 2.68 0 2 C-4.20827473 1.94171365 -8.41644489 1.906307 -12.625 1.875 C-13.81480469 1.85824219 -15.00460938 1.84148438 -16.23046875 1.82421875 C-17.96103516 1.81455078 -17.96103516 1.81455078 -19.7265625 1.8046875 C-20.78439941 1.79421387 -21.84223633 1.78374023 -22.93212891 1.77294922 C-26.24040692 2.01779233 -28.88396693 2.89942986 -32 4 C-35.375 4.125 -35.375 4.125 -38 4 C-38 4.66 -38 5.32 -38 6 C-40.31 6.66 -42.62 7.32 -45 8 C-44 5 -44 5 -41.9375 3.6484375 C-29.53856434 -1.72663301 -13.21994386 -2.85667557 0 0 Z " fill="#0E3788" transform="translate(133,41)"/>
<path d="M0 0 C2.125 0.9375 2.125 0.9375 4 2 C4 3.65 4 5.3 4 7 C4.7425 7.144375 5.485 7.28875 6.25 7.4375 C7.1575 7.623125 8.065 7.80875 9 8 C9.7425 8.144375 10.485 8.28875 11.25 8.4375 C11.8275 8.623125 12.405 8.80875 13 9 C13.33 9.66 13.66 10.32 14 11 C14.66 11.33 15.32 11.66 16 12 C16.99 11.67 17.98 11.34 19 11 C19.73080266 12.97746603 20.39421747 14.98072489 21 17 C20.67 17.66 20.34 18.32 20 19 C19.34 19 18.68 19 18 19 C16.66666667 17.66666667 15.33333333 16.33333333 14 15 C11.29379163 13.14838374 9.19294143 12.04823536 6 11.25 C1.92838823 9.55349509 0.04864312 6.84347205 -2 3 C-2 2.34 -2 1.68 -2 1 C-1.34 0.67 -0.68 0.34 0 0 Z " fill="#1C87C7" transform="translate(35,157)"/>
<path d="M0 0 C1.2065625 0.0309375 1.2065625 0.0309375 2.4375 0.0625 C3.0975 2.7025 3.7575 5.3425 4.4375 8.0625 C6.4175 8.0625 8.3975 8.0625 10.4375 8.0625 C10.7675 9.7125 11.0975 11.3625 11.4375 13.0625 C5.3828125 14.0390625 5.3828125 14.0390625 3.4375 14.0625 C2.7775 13.4025 2.1175 12.7425 1.4375 12.0625 C1.8125 9.4375 1.8125 9.4375 2.4375 7.0625 C-0.5325 6.5675 -0.5325 6.5675 -3.5625 6.0625 C-3.605221 4.39638095 -3.60313832 2.72867115 -3.5625 1.0625 C-2.5625 0.0625 -2.5625 0.0625 0 0 Z " fill="#0596E3" transform="translate(36.5625,151.9375)"/>
<path d="M0 0 C2.6875 0.875 2.6875 0.875 5 2 C4.67 3.98 4.34 5.96 4 8 C3.01 7.67 2.02 7.34 1 7 C1 6.01 1 5.02 1 4 C-0.98 4.66 -2.96 5.32 -5 6 C-5 7.65 -5 9.3 -5 11 C-6.0725 11.28875 -7.145 11.5775 -8.25 11.875 C-11.09400364 12.72820109 -13.43508983 13.5636503 -16 15 C-16 15.66 -16 16.32 -16 17 C-16.66 16.67 -17.32 16.34 -18 16 C-12.67602224 9.44485239 -6.99670179 4.66446786 0 0 Z " fill="#2796CC" transform="translate(45,36)"/>
<path d="M0 0 C0.5775 0.639375 1.155 1.27875 1.75 1.9375 C4.03786229 4.0347071 5.07654209 4.39514664 8 5 C9.35055201 7.70110402 9 10.00789006 9 13 C9.66 13 10.32 13 11 13 C11 14.32 11 15.64 11 17 C9.68 17.33 8.36 17.66 7 18 C5.62701756 15.94803718 4.27730838 13.88595971 2.9375 11.8125 C2.35258789 10.9452832 2.35258789 10.9452832 1.75585938 10.06054688 C-0.07909863 7.18632062 -1.04562293 5.52571655 -0.74609375 2.07421875 C-0.49988281 1.38972656 -0.25367187 0.70523438 0 0 Z " fill="#116BC7" transform="translate(71,124)"/>
<path d="M0 0 C3.375 -0.1875 3.375 -0.1875 7 0 C7.66 0.99 8.32 1.98 9 3 C4.375 6 4.375 6 1 6 C1 6.99 1 7.98 1 9 C-0.32 9 -1.64 9 -3 9 C-2.67 9.99 -2.34 10.98 -2 12 C-2.99 12.66 -3.98 13.32 -5 14 C-5.99 13.67 -6.98 13.34 -8 13 C-8 11.35 -8 9.7 -8 8 C-7.38125 7.896875 -6.7625 7.79375 -6.125 7.6875 C-3.63473516 7.12474627 -3.63473516 7.12474627 -2 4 C-1.67 4.33 -1.34 4.66 -1 5 C-0.67 3.35 -0.34 1.7 0 0 Z " fill="#056BC5" transform="translate(72,48)"/>
<path d="M0 0 C3.63 0 7.26 0 11 0 C11.33 0.66 11.66 1.32 12 2 C22.56 2 33.12 2 44 2 C41.54436529 4.45563471 40.14878581 4.25471322 36.79476929 4.30354309 C36.0864798 4.30263168 35.37819031 4.30172028 34.6484375 4.30078125 C33.91557526 4.30506638 33.18271301 4.3093515 32.42764282 4.31376648 C30.87250806 4.3195163 29.31734639 4.32000525 27.76220703 4.31567383 C25.40479191 4.31253961 23.04866371 4.33587231 20.69140625 4.36132812 C19.1770849 4.36360393 17.66276021 4.36430331 16.1484375 4.36328125 C15.4522934 4.372491 14.75614929 4.38170074 14.03890991 4.39118958 C8.79300357 4.3426839 4.83039963 3.04425431 0 1 C0 0.67 0 0.34 0 0 Z " fill="#133385" transform="translate(103,213)"/>
<path d="M0 0 C-8.98730916 6.27021569 -19.51133349 6.16554112 -30.125 6.25 C-30.95483398 6.2593457 -31.78466797 6.26869141 -32.63964844 6.27832031 C-33.42114258 6.27413086 -34.20263672 6.26994141 -35.0078125 6.265625 C-35.70535645 6.26336914 -36.40290039 6.26111328 -37.12158203 6.25878906 C-39 6 -39 6 -42 4 C-33.42 4 -24.84 4 -16 4 C-15.67 3.34 -15.34 2.68 -15 2 C-13.68 2.33 -12.36 2.66 -11 3 C-10.67 2.34 -10.34 1.68 -10 1 C-8.22265625 0.33203125 -8.22265625 0.33203125 -6.0625 -0.1875 C-5.35222656 -0.36667969 -4.64195312 -0.54585937 -3.91015625 -0.73046875 C-2 -1 -2 -1 0 0 Z " fill="#0F358C" transform="translate(145,173)"/>
<path d="M0 0 C1.65 0 3.3 0 5 0 C4.67 0.99 4.34 1.98 4 3 C5.98 2.01 7.96 1.02 10 0 C10.33 0.99 10.66 1.98 11 3 C10.34 3 9.68 3 9 3 C9 3.66 9 4.32 9 5 C1.94887561 7.21211746 -4.64657821 7.20177072 -12 7 C-12 6.67 -12 6.34 -12 6 C-9.69 6 -7.38 6 -5 6 C-4.67 4.68 -4.34 3.36 -4 2 C-3.34 2.33 -2.68 2.66 -2 3 C-0.84188612 1.94729537 -0.84188612 1.94729537 0 0 Z " fill="#042BA0" transform="translate(141,208)"/>
<path d="M0 0 C0.33 0 0.66 0 1 0 C1.19335938 0.79664062 1.38671875 1.59328125 1.5859375 2.4140625 C3.18738697 8.98325292 3.18738697 8.98325292 5.1875 15.4375 C6.03236211 18.10206512 6.16335722 20.22292721 6 23 C5.01 23 4.02 23 3 23 C2.67 23.99 2.34 24.98 2 26 C1.34 25.67 0.68 25.34 0 25 C0 16.75 0 8.5 0 0 Z " fill="#0585D7" transform="translate(48,118)"/>
<path d="M0 0 C0 0.66 0 1.32 0 2 C2.64 2 5.28 2 8 2 C7.67 3.32 7.34 4.64 7 6 C7 5.34 7 4.68 7 4 C6.62875 4.515625 6.2575 5.03125 5.875 5.5625 C4 7 4 7 0.8125 6.6875 C-0.115625 6.460625 -1.04375 6.23375 -2 6 C-2.680625 6.99 -2.680625 6.99 -3.375 8 C-3.91125 8.66 -4.4475 9.32 -5 10 C-5.66 10 -6.32 10 -7 10 C-8 7 -8 7 -7.3125 4.4375 C-5.556691 1.17671187 -3.71687237 0 0 0 Z " fill="#02ACEE" transform="translate(24,86)"/>
<path d="M0 0 C0.33 0.99 0.66 1.98 1 3 C0.36191406 3.33773437 -0.27617188 3.67546875 -0.93359375 4.0234375 C-1.75988281 4.46945313 -2.58617188 4.91546875 -3.4375 5.375 C-4.67306641 6.03628906 -4.67306641 6.03628906 -5.93359375 6.7109375 C-8.13466578 7.83418559 -8.13466578 7.83418559 -9 10 C-9.66 10 -10.32 10 -11 10 C-10.773125 10.5775 -10.54625 11.155 -10.3125 11.75 C-10 14 -10 14 -11.125 16.1875 C-13.4209315 18.40690045 -14.90125658 18.47094624 -18 19 C-20.26454073 20.46771271 -20.26454073 20.46771271 -22 22 C-19.21864385 12.8215247 -11.59154284 8.06102856 -4 3 C-2.65961201 2.00947599 -1.32375655 1.01264326 0 0 Z " fill="#1A63B0" transform="translate(96,61)"/>
<path d="M0 0 C4.16138263 -0.08159574 7.9472484 0.01751476 12 1 C11.67 1.66 11.34 2.32 11 3 C8.6875 3.5625 8.6875 3.5625 6 4 C5.29875 4.226875 4.5975 4.45375 3.875 4.6875 C2 5 2 5 -1 3 C-1 3.66 -1 4.32 -1 5 C-4.63 5 -8.26 5 -12 5 C-12 4.34 -12 3.68 -12 3 C-12.99 2.67 -13.98 2.34 -15 2 C-15 1.67 -15 1.34 -15 1 C-11.96638777 0.92945088 -9.23019428 0.95291481 -6.25 1.5625 C-3.97586562 2.24197896 -3.97586562 2.24197896 -2 1 C-1.34 1.33 -0.68 1.66 0 2 C0 1.34 0 0.68 0 0 Z " fill="#0674CB" transform="translate(62,35)"/>
<path d="M0 0 C0.33 0.66 0.66 1.32 1 2 C-0.62451419 2.33569297 -2.24962917 2.6684796 -3.875 3 C-5.23238281 3.2784375 -5.23238281 3.2784375 -6.6171875 3.5625 C-9 4 -9 4 -11 4 C-11 4.66 -11 5.32 -11 6 C-11.99 6 -12.98 6 -14 6 C-14 6.66 -14 7.32 -14 8 C-15.32 8.33 -16.64 8.66 -18 9 C-18 7.68 -18 6.36 -18 5 C-18.99 4.67 -19.98 4.34 -21 4 C-20.67 3.01 -20.34 2.02 -20 1 C-19.01 1 -18.02 1 -17 1 C-17 1.66 -17 2.32 -17 3 C-16.34 3 -15.68 3 -15 3 C-14.67 2.34 -14.34 1.68 -14 1 C-13.11248047 1.01740234 -13.11248047 1.01740234 -12.20703125 1.03515625 C-7.99768215 1.08322386 -4.1077667 1.06006883 0 0 Z " fill="#051F96" transform="translate(176,183)"/>
<path d="M0 0 C0.99 0.33 1.98 0.66 3 1 C3 1.99 3 2.98 3 4 C3.66 4 4.32 4 5 4 C5.33 4.66 5.66 5.32 6 6 C7.65 6 9.3 6 11 6 C10.67 7.32 10.34 8.64 10 10 C9.34 9.67 8.68 9.34 8 9 C7.67 9.99 7.34 10.98 7 12 C1.25 10.25 1.25 10.25 -1 8 C-0.96712417 5.27130593 -0.43602229 2.7033382 0 0 Z " fill="#065ABE" transform="translate(85,194)"/>
<path d="M0 0 C2.5 1.1875 2.5 1.1875 5 3 C5.3125 5.6875 5.3125 5.6875 5 8 C4.34 8 3.68 8 3 8 C2.896875 8.5775 2.79375 9.155 2.6875 9.75 C1.90207202 12.32049158 0.69495803 13.93657284 -1 16 C-2.10852275 11.56590901 -2.21993456 7.54531422 -2 3 C-1.34 2.01 -0.68 1.02 0 0 Z " fill="#090F7D" transform="translate(202,144)"/>
<path d="M0 0 C0.99 0.33 1.98 0.66 3 1 C3.22211116 2.93596892 3.42722992 4.87389328 3.625 6.8125 C3.74101563 7.89144531 3.85703125 8.97039062 3.9765625 10.08203125 C4 13 4 13 2 16 C2.31506627 19.14221967 2.31506627 19.14221967 3 22 C2.34 22 1.68 22 1 22 C0.67 22.66 0.34 23.32 0 24 C-2.49783255 16.50650235 -0.82168549 7.71797439 0 0 Z " fill="#0A6CC1" transform="translate(69,101)"/>
<path d="M0 0 C4.73943655 5.60115228 5.24322543 10.94646251 5 18 C3.02 18.99 3.02 18.99 1 20 C1.33 17.69 1.66 15.38 2 13 C1.01 13.99 0.02 14.98 -1 16 C-1.02692484 13.70839681 -1.04636124 11.41670454 -1.0625 9.125 C-1.07410156 7.84882812 -1.08570313 6.57265625 -1.09765625 5.2578125 C-1 2 -1 2 0 0 Z " fill="#051E94" transform="translate(161,84)"/>
<path d="M0 0 C0.66 0.33 1.32 0.66 2 1 C2.88243368 3.74098406 3.61070642 6.38789373 4.25 9.1875 C4.43401367 9.9923584 4.61802734 10.7972168 4.80761719 11.62646484 C6.3467926 19.1600884 5.7859575 25.49415158 4 33 C3.34 33 2.68 33 2 33 C2.01571045 32.44650879 2.0314209 31.89301758 2.04760742 31.32275391 C2.65220011 17.79667525 2.65220011 17.79667525 -0.44140625 4.77734375 C-1 3 -1 3 0 0 Z " fill="#0C0C6B" transform="translate(212,60)"/>
<path d="M0 0 C1 3 1 3 1 7 C2.32 6.67 3.64 6.34 5 6 C5 6.66 5 7.32 5 8 C6.98 7.34 8.96 6.68 11 6 C10.67 8.31 10.34 10.62 10 13 C2.8387674 11.07197584 -0.87065603 9.41430753 -6 4 C-5.67 3.34 -5.34 2.68 -5 2 C-4.01 2 -3.02 2 -2 2 C-1.34 1.34 -0.68 0.68 0 0 Z " fill="#071A87" transform="translate(159,48)"/>
<path d="M0 0 C2.84403761 1.4841157 5.00472548 3.50205992 7 6 C7.87144303 8.8158188 7.94846968 11.01124154 8 14 C8.77321882 11.01758453 9.41196203 8.02419525 10 5 C10.66 5 11.32 5 12 5 C13.35087719 12.49122807 13.35087719 12.49122807 11.75 14.8125 C11.1725 15.204375 10.595 15.59625 10 16 C8.9890187 16.98889676 7.98744041 17.98759621 7 19 C6.90203125 18.33613281 6.8040625 17.67226563 6.703125 16.98828125 C5.81168289 11.72416187 5.1183503 7.74395482 1 4 C0.01 4 -0.98 4 -2 4 C-2.33 3.01 -2.66 2.02 -3 1 C-2.01 0.67 -1.02 0.34 0 0 Z " fill="#171D76" transform="translate(165,27)"/>
<path d="M0 0 C2.97 1.65 5.94 3.3 9 5 C9 5.66 9 6.32 9 7 C9.763125 7.103125 10.52625 7.20625 11.3125 7.3125 C14.17059424 8.04364039 15.15742885 8.76951913 17 11 C13.38026598 12.31626692 10.90432869 13 7 13 C6.67 10.69 6.34 8.38 6 6 C3.60931266 4.89363605 3.60931266 4.89363605 1 4 C0.01 4.495 0.01 4.495 -1 5 C-0.67 3.35 -0.34 1.7 0 0 Z " fill="#055EBD" transform="translate(73,163)"/>
<path d="M0 0 C0.66 0 1.32 0 2 0 C2.28875 0.969375 2.5775 1.93875 2.875 2.9375 C3.64214682 6.10664203 3.64214682 6.10664203 6 7 C6.77146243 9.67742842 7.42713104 12.28138503 8 15 C8.3403125 16.485 8.3403125 16.485 8.6875 18 C9.08889925 21.85343282 8.59370033 25.17393121 8 29 C7.34 29 6.68 29 6 29 C5.85304687 27.24236328 5.85304687 27.24236328 5.703125 25.44921875 C4.87298208 16.44418117 3.78109159 8.33308536 0 0 Z " fill="#0C1678" transform="translate(161,83)"/>
<path d="M0 0 C0.33 0.66 0.66 1.32 1 2 C1.66 2 2.32 2 3 2 C3 2.99 3 3.98 3 5 C3.66 5.33 4.32 5.66 5 6 C3.35 6.33 1.7 6.66 0 7 C-0.33 6.34 -0.66 5.68 -1 5 C-1.99 5.495 -1.99 5.495 -3 6 C-3.99 5.67 -4.98 5.34 -6 5 C-7.48123547 4.9193378 -8.96582204 4.89238807 -10.44921875 4.90234375 C-11.29677734 4.90556641 -12.14433594 4.90878906 -13.01757812 4.91210938 C-14.33918945 4.92467773 -14.33918945 4.92467773 -15.6875 4.9375 C-17.02651367 4.94426758 -17.02651367 4.94426758 -18.39257812 4.95117188 C-20.59511987 4.96295017 -22.79752599 4.97939836 -25 5 C-23 3 -23 3 -20.84521484 2.77294922 C-19.97590332 2.78342285 -19.1065918 2.79389648 -18.2109375 2.8046875 C-17.26992187 2.81113281 -16.32890625 2.81757813 -15.359375 2.82421875 C-14.37453125 2.84097656 -13.3896875 2.85773437 -12.375 2.875 C-11.38242188 2.88402344 -10.38984375 2.89304687 -9.3671875 2.90234375 C-6.91121866 2.92595884 -4.45572832 2.95889201 -2 3 C-2 2.34 -2 1.68 -2 1 C-1.34 0.67 -0.68 0.34 0 0 Z " fill="#0C2D8B" transform="translate(131,9)"/>
<path d="M0 0 C0.99 0 1.98 0 3 0 C3 0.66 3 1.32 3 2 C3.969375 2.268125 4.93875 2.53625 5.9375 2.8125 C7.4534375 3.4003125 7.4534375 3.4003125 9 4 C9.33 4.99 9.66 5.98 10 7 C11.11375 7.0825 12.2275 7.165 13.375 7.25 C17 8 17 8 18.4375 9.75 C19.06272383 12.25089531 19.14268336 14.43169956 19 17 C18.01 16.34 17.02 15.68 16 15 C15.8125 12.375 15.8125 12.375 16 10 C15.030625 9.773125 14.06125 9.54625 13.0625 9.3125 C8.30770682 7.97765027 4.22188693 5.50824121 0 3 C0 2.01 0 1.02 0 0 Z " fill="#196BB2" transform="translate(64,185)"/>
<path d="M0 0 C0.66 0.33 1.32 0.66 2 1 C1.34 4.3 0.68 7.6 0 11 C-5 12 -5 12 -8 12 C-6.59023295 8.96147295 -4.91129772 6.4060405 -2.875 3.75 C-2.06675781 2.69039062 -2.06675781 2.69039062 -1.2421875 1.609375 C-0.83226562 1.07828125 -0.42234375 0.5471875 0 0 Z " fill="#061791" transform="translate(175,148)"/>
<path d="M0 0 C0.66 0 1.32 0 2 0 C1.39009109 3.55780196 0.4216319 6.6828589 -1 10 C-1.33 10 -1.66 10 -2 10 C-2 8.35 -2 6.7 -2 5 C-6.34170523 7.3836813 -10.2064129 9.78119883 -14 13 C-14.66 12.67 -15.32 12.34 -16 12 C-16 11.34 -16 10.68 -16 10 C-15.071875 9.5875 -14.14375 9.175 -13.1875 8.75 C-9.95523394 7.28707909 -9.95523394 7.28707909 -8.5 4.8125 C-7.7575 3.9153125 -7.7575 3.9153125 -7 3 C-3.8125 2.75 -3.8125 2.75 -1 3 C-0.67 2.01 -0.34 1.02 0 0 Z " fill="#2AA2D3" transform="translate(29,90)"/>
<path d="M0 0 C1.55118743 3.96632735 0.37462964 6.80289395 -0.875 10.75 C-2.43222176 15.89420155 -3.57208127 20.65101588 -4 26 C-2.35 26 -0.7 26 1 26 C0.67 26.66 0.34 27.32 0 28 C-4.875 27.125 -4.875 27.125 -6 26 C-6.28529922 17.0130746 -2.81928856 8.38504272 0 0 Z " fill="#35B2DA" transform="translate(11,78)"/>
<path d="M0 0 C0.66 0 1.32 0 2 0 C1.67 0.99 1.34 1.98 1 3 C0.34 3 -0.32 3 -1 3 C-1.268125 3.928125 -1.53625 4.85625 -1.8125 5.8125 C-2.90977245 8.75781025 -3.53357169 10.15017877 -6 12 C-6.66 12 -7.32 12 -8 12 C-8 8.7 -8 5.4 -8 2 C-5.36 2 -2.72 2 0 2 C0 1.34 0 0.68 0 0 Z " fill="#067CD1" transform="translate(64,62)"/>
<path d="M0 0 C0.66 0.33 1.32 0.66 2 1 C2.37634203 7.80203375 1.77471079 12.75690073 -1 19 C-1.66 19 -2.32 19 -3 19 C-2.62875 17.906875 -2.2575 16.81375 -1.875 15.6875 C-1.441875 13.8621875 -1.441875 13.8621875 -1 12 C-1.66 11.01 -2.32 10.02 -3 9 C-2.65262237 5.61306808 -1.64599285 2.96278714 0 0 Z " fill="#2EA5D3" transform="translate(24,103)"/>
<path d="M0 0 C3.01343955 3.32851768 3.44667544 5.81882813 3.6875 10.25 C3.75324219 11.32765625 3.81898438 12.4053125 3.88671875 13.515625 C3.92410156 14.33546875 3.96148437 15.1553125 4 16 C4.99 16.33 5.98 16.66 7 17 C5.625 19.5 5.625 19.5 4 22 C3.34 22 2.68 22 2 22 C-0.35582065 17.37183267 -0.23521469 13.24465865 -0.125 8.1875 C-0.11597656 7.39923828 -0.10695312 6.61097656 -0.09765625 5.79882812 C-0.07422504 3.86575334 -0.03835838 1.9328362 0 0 Z " fill="#030B80" transform="translate(185,96)"/>
<path d="M0 0 C2.16874252 0.50603992 3.99967627 0.99983813 6 2 C6 1.34 6 0.68 6 0 C6.66 0 7.32 0 8 0 C7.40049704 3.68266103 6.75241109 7.34543185 6 11 C3.5625 9.8125 3.5625 9.8125 1 8 C0.08214652 5.17583545 0 2.97077176 0 0 Z " fill="#0B0E79" transform="translate(192,160)"/>
<path d="M0 0 C4.21957109 1.36422223 8.32389265 2.90816811 12.4375 4.5625 C17.03234288 6.34996748 21.08886962 7.657363 26 8 C26 8.33 26 8.66 26 9 C22.37 9.33 18.74 9.66 15 10 C14.67 9.34 14.34 8.68 14 8 C12.05701029 7.24256333 10.11091836 6.49131081 8.14453125 5.796875 C5.31521959 4.74554608 2.66987557 3.40168468 0 2 C0 1.34 0 0.68 0 0 Z " fill="#134A9B" transform="translate(82,168)"/>
<path d="M0 0 C0 0.66 0 1.32 0 2 C0.99 2.33 1.98 2.66 3 3 C3 3.66 3 4.32 3 5 C-0.28519475 6.09506492 -2.73663415 6.09960608 -6.1875 6.0625 C-7.81751953 6.04896484 -7.81751953 6.04896484 -9.48046875 6.03515625 C-10.31191406 6.02355469 -11.14335938 6.01195312 -12 6 C-10 4 -10 4 -7 3 C-6.67 2.34 -6.34 1.68 -6 1 C-3.911361 0.32624548 -2.19636905 0 0 0 Z " fill="#083090" transform="translate(132,153)"/>
<path d="M0 0 C0.99 0 1.98 0 3 0 C3 0.66 3 1.32 3 2 C6.465 1.505 6.465 1.505 10 1 C9.67 1.99 9.34 2.98 9 4 C13.58154261 6.39542583 18.0276578 8.50829734 23 10 C18.0184127 11.96833449 13.82536047 9.35838476 9.15234375 7.4765625 C5.40694219 5.72221084 2.86912758 3.95110266 0 1 C0 0.67 0 0.34 0 0 Z " fill="#164E98" transform="translate(86,148)"/>
<path d="M0 0 C4.95 0 9.9 0 15 0 C15.33 0.66 15.66 1.32 16 2 C18.01669827 3.13350534 18.01669827 3.13350534 20 4 C18.1875 5.0625 18.1875 5.0625 16 6 C15.01 5.67 14.02 5.34 13 5 C13 4.34 13 3.68 13 3 C10.69 3.33 8.38 3.66 6 4 C5.67 3.34 5.34 2.68 5 2 C2.47266765 1.34444881 2.47266765 1.34444881 0 1 C0 0.67 0 0.34 0 0 Z " fill="#043096" transform="translate(115,58)"/>
<path d="M0 0 C2.36596356 0.17525656 3.68251505 0.65976986 5.30859375 2.40234375 C5.74300781 2.95019531 6.17742187 3.49804688 6.625 4.0625 C7.40875 5.031875 8.1925 6.00125 9 7 C9.66 7 10.32 7 11 7 C10.67 7.99 10.34 8.98 10 10 C9.01 9.67 8.02 9.34 7 9 C7 8.34 7 7.68 7 7 C4.69 7 2.38 7 0 7 C0 4.69 0 2.38 0 0 Z " fill="#071E8F" transform="translate(152,73)"/>
<path d="M0 0 C0.99 0.99 1.98 1.98 3 3 C2.3125 4.9375 2.3125 4.9375 1 7 C-2.77776257 8.07936073 -6.40339702 8.10545718 -10.3125 8.0625 C-11.38113281 8.05347656 -12.44976562 8.04445312 -13.55078125 8.03515625 C-14.35902344 8.02355469 -15.16726562 8.01195312 -16 8 C-15.67 7.34 -15.34 6.68 -15 6 C-12.671875 5.5859375 -12.671875 5.5859375 -9.75 5.375 C-8.79609375 5.30023438 -7.8421875 5.22546875 -6.859375 5.1484375 C-4.23259147 5.01207442 -1.62962569 4.97120848 1 5 C1 4.34 1 3.68 1 3 C0.34 3 -0.32 3 -1 3 C-0.67 2.01 -0.34 1.02 0 0 Z " fill="#0D1374" transform="translate(183,180)"/>
<path d="M0 0 C3.63 1.98 7.26 3.96 11 6 C11 6.99 11 7.98 11 9 C10.01 9.33 9.02 9.66 8 10 C4.42869967 7.95925695 2.2949791 6.44246864 0 3 C0 2.01 0 1.02 0 0 Z " fill="#06299C" transform="translate(138,63)"/>
<path d="M0 0 C0.99 0 1.98 0 3 0 C3 1.98 3 3.96 3 6 C2.01 6.33 1.02 6.66 0 7 C0 7.66 0 8.32 0 9 C-0.99 9 -1.98 9 -3 9 C-3 9.66 -3 10.32 -3 11 C-3.66 11 -4.32 11 -5 11 C-4.5020163 7.26512223 -4.12508244 5.18762365 -2 2 C-1.34 2 -0.68 2 0 2 C0 1.34 0 0.68 0 0 Z " fill="#07A0EA" transform="translate(29,51)"/>
<path d="M0 0 C2.66666667 0 5.33333333 0 8 0 C8 0.99 8 1.98 8 3 C7.30132812 3.24234375 6.60265625 3.4846875 5.8828125 3.734375 C4.97273438 4.06953125 4.06265625 4.4046875 3.125 4.75 C2.22007813 5.07484375 1.31515625 5.3996875 0.3828125 5.734375 C-2.32047018 7.17021695 -2.96706853 8.17427942 -4 11 C-4.66 11 -5.32 11 -6 11 C-6 7 -6 7 -4.5625 5.4375 C-4.046875 4.963125 -3.53125 4.48875 -3 4 C-2.67 3.01 -2.34 2.02 -2 1 C-1.34 1 -0.68 1 0 1 C0 0.67 0 0.34 0 0 Z " fill="#145FBD" transform="translate(91,40)"/>
<path d="M0 0 C0.66 0.33 1.32 0.66 2 1 C1.67 4.3 1.34 7.6 1 11 C-0.32 11.33 -1.64 11.66 -3 12 C-3.12375 11.360625 -3.2475 10.72125 -3.375 10.0625 C-3.58125 9.381875 -3.7875 8.70125 -4 8 C-4.66 7.67 -5.32 7.34 -6 7 C-5.67 6.34 -5.34 5.68 -5 5 C-4.34 5 -3.68 5 -3 5 C-3 4.01 -3 3.02 -3 2 C-2.01 2 -1.02 2 0 2 C0 1.34 0 0.68 0 0 Z " fill="#0E198B" transform="translate(183,132)"/>
<path d="M0 0 C0.99 0.33 1.98 0.66 3 1 C2.54109375 1.60585937 2.0821875 2.21171875 1.609375 2.8359375 C-2.63746124 8.63518867 -5.67101502 14.20109976 -8 21 C-9.14266516 17.64102455 -8.85911331 15.69549648 -7.6875 12.375 C-7.29111328 11.21097656 -7.29111328 11.21097656 -6.88671875 10.0234375 C-6 8 -6 8 -4 6 C-3.67 5.34 -3.34 4.68 -3 4 C-2 2 -2 2 0 0 Z " fill="#1A73AF" transform="translate(62,67)"/>
<path d="M0 0 C0.33 0.66 0.66 1.32 1 2 C-0.12019531 2.13277344 -1.24039063 2.26554687 -2.39453125 2.40234375 C-3.86720729 2.58056569 -5.33986247 2.75896011 -6.8125 2.9375 C-7.55048828 3.02451172 -8.28847656 3.11152344 -9.04882812 3.20117188 C-12.16733121 3.58216546 -15.01108122 4.00369374 -18 5 C-18.99 6.485 -18.99 6.485 -20 8 C-22.475 7.01 -22.475 7.01 -25 6 C-24.67 5.34 -24.34 4.68 -24 4 C-16.21062221 1.51073401 -8.1362249 0.47284674 0 0 Z " fill="#26529D" transform="translate(123,56)"/>
<path d="M0 0 C4.95 0.33 9.9 0.66 15 1 C14.34 2.32 13.68 3.64 13 5 C9.04 5 5.08 5 1 5 C1 4.01 1 3.02 1 2 C0.67 1.34 0.34 0.68 0 0 Z " fill="#0659BA" transform="translate(80,27)"/>
<path d="M0 0 C1.0013988 3.00419641 1.51421457 5.87709365 2 9 C-0.64 9.33 -3.28 9.66 -6 10 C-5.67 7.69 -5.34 5.38 -5 3 C-4.360625 2.87625 -3.72125 2.7525 -3.0625 2.625 C-2.0415625 2.315625 -2.0415625 2.315625 -1 2 C-0.67 1.34 -0.34 0.68 0 0 Z " fill="#122D9B" transform="translate(158,22)"/>
<path d="M0 0 C2.31 0.66 4.62 1.32 7 2 C7.33 1.34 7.66 0.68 8 0 C8 0.99 8 1.98 8 3 C7.34 3.66 6.68 4.32 6 5 C5.01 5 4.02 5 3 5 C3.99 5.66 4.98 6.32 6 7 C5.67 7.66 5.34 8.32 5 9 C5.99 9.66 6.98 10.32 8 11 C6.35 10.67 4.7 10.34 3 10 C2.67 8.68 2.34 7.36 2 6 C1.34 6 0.68 6 0 6 C-0.38218767 4.34385343 -0.71395102 2.67542976 -1 1 C-0.67 0.67 -0.34 0.34 0 0 Z " fill="#07269C" transform="translate(152,200)"/>
<path d="M0 0 C0.99 0.33 1.98 0.66 3 1 C2.34 1 1.68 1 1 1 C1.165 1.763125 1.33 2.52625 1.5 3.3125 C2 6 2 6 2 9 C-0.31 9 -2.62 9 -5 9 C-3.375 2.25 -3.375 2.25 0 0 Z " fill="#0AACF2" transform="translate(22,63)"/>
<path d="M0 0 C2.125 0.375 2.125 0.375 4 1 C3.67 2.65 3.34 4.3 3 6 C0.36 6.66 -2.28 7.32 -5 8 C-5.33 7.01 -5.66 6.02 -6 5 C-5.01 4.67 -4.02 4.34 -3 4 C-2.67 3.34 -2.34 2.68 -2 2 C-1.34 1.34 -0.68 0.68 0 0 Z " fill="#081D98" transform="translate(164,161)"/>
<path d="M0 0 C1.65 0 3.3 0 5 0 C7.41685712 4.22949995 8.34833144 7.12335991 8 12 C7.67 11.01 7.34 10.02 7 9 C6.34 9 5.68 9 5 9 C3.7109375 7.5390625 3.7109375 7.5390625 2.375 5.625 C1.92898437 4.99851562 1.48296875 4.37203125 1.0234375 3.7265625 C0 2 0 2 0 0 Z " fill="#061693" transform="translate(171,64)"/>
<path d="M0 0 C4.54075781 4.14010271 7.71842138 8.82390176 11 14 C10.01 14.495 10.01 14.495 9 15 C8.67 14.34 8.34 13.68 8 13 C6.824375 13.0928125 6.824375 13.0928125 5.625 13.1875 C4.325625 13.0946875 4.325625 13.0946875 3 13 C2.34 12.01 1.68 11.02 1 10 C2.98 10.495 2.98 10.495 5 11 C5.33 10.34 5.66 9.68 6 9 C5.01 8.67 4.02 8.34 3 8 C0 2.77777778 0 2.77777778 0 0 Z " fill="#191E80" transform="translate(193,27)"/>
<path d="M0 0 C2.475 0.495 2.475 0.495 5 1 C5 1.66 5 2.32 5 3 C7.475 3.99 7.475 3.99 10 5 C10 5.66 10 6.32 10 7 C9.34 7 8.68 7 8 7 C8 6.34 8 5.68 8 5 C5.69 5.66 3.38 6.32 1 7 C0.31292445 4.50935112 0 2.62113708 0 0 Z " fill="#082D9F" transform="translate(136,17)"/>
<path d="M0 0 C3.36942405 3.69549735 4.27367846 6.12326965 5 11 C6.44730093 13.32219658 6.44730093 13.32219658 8 15 C7.67 15.66 7.34 16.32 7 17 C5.84372186 15.44521347 4.7003781 13.88080281 3.5625 12.3125 C2.92441406 11.44238281 2.28632812 10.57226562 1.62890625 9.67578125 C-0.00579638 6.99047836 -0.70842966 5.11185069 -1 2 C-0.67 1.34 -0.34 0.68 0 0 Z " fill="#1461AF" transform="translate(71,124)"/>
<path d="M0 0 C1 2 1 2 0.4375 4.375 C-0.06525738 7.39154426 0.40328736 8.46404463 2 11 C0.68 12.32 -0.64 13.64 -2 15 C-2.66 14.67 -3.32 14.34 -4 14 C-3.71926927 11.85270859 -3.42511501 9.70716807 -3.125 7.5625 C-2.96257812 6.36753906 -2.80015625 5.17257813 -2.6328125 3.94140625 C-2.42398438 2.97074219 -2.21515625 2.00007813 -2 1 C-1.34 0.67 -0.68 0.34 0 0 Z " fill="#020D86" transform="translate(180,22)"/>
<path d="M0 0 C-0.99 0.495 -0.99 0.495 -2 1 C-2 1.66 -2 2.32 -2 3 C-4.31 3 -6.62 3 -9 3 C-9 4.32 -9 5.64 -9 7 C-10.65 7.66 -12.3 8.32 -14 9 C-14 8.34 -14 7.68 -14 7 C-13 6 -12 5 -11 4 C-10.71125 3.29875 -10.4225 2.5975 -10.125 1.875 C-9 0 -9 0 -6.625 -0.8125 C-4.10421049 -0.99255639 -2.3796376 -0.79321253 0 0 Z " fill="#286AB0" transform="translate(83,27)"/>
<path d="M0 0 C0.66 0 1.32 0 2 0 C2 1.98 2 3.96 2 6 C2.66 6 3.32 6 4 6 C4 6.99 4 7.98 4 9 C1.625 8.75 1.625 8.75 -1 8 C-2.3125 5.9375 -2.3125 5.9375 -3 4 C-1.625 2 -1.625 2 0 0 Z " fill="#0475CD" transform="translate(62,176)"/>
<path d="M0 0 C0.598125 0.185625 1.19625 0.37125 1.8125 0.5625 C4.16408762 1.22093687 4.16408762 1.22093687 7 0 C7.73080266 1.97746603 8.39421747 3.98072489 9 6 C8.67 6.66 8.34 7.32 8 8 C6 8 6 8 4 6.0625 C3.34 5.381875 2.68 4.70125 2 4 C1.34 3.67 0.68 3.34 0 3 C0 2.01 0 1.02 0 0 Z " fill="#0685DA" transform="translate(47,168)"/>
<path d="M0 0 C2 1 2 1 2 1 Z M0 1 C0 1.66 0 2.32 0 3 C-0.66 3 -1.32 3 -2 3 C-1.67 4.32 -1.34 5.64 -1 7 C-3.95664519 8.4783226 -6.74229737 8.06032783 -10 8 C-8.60449526 3.81348579 -4.64858615 1 0 1 Z " fill="#0754B9" transform="translate(97,63)"/>
<path d="M0 0 C2.37869584 0.42476711 3.85085984 0.88487426 5.78125 2.375 C8.31912433 4.23372486 10.87357697 5.42050414 13.75 6.6875 C14.73484375 7.12449219 15.7196875 7.56148437 16.734375 8.01171875 C17.48203125 8.33785156 18.2296875 8.66398438 19 9 C16.41640173 9.96661182 15.24818298 10.08474541 12.59765625 9.1796875 C7.61327884 6.61453796 3.66157767 4.27184062 0 0 Z " fill="#205493" transform="translate(83,203)"/>
<path d="M0 0 C0.33 0.66 0.66 1.32 1 2 C3.02463255 2.65213292 3.02463255 2.65213292 5 3 C5.33 4.65 5.66 6.3 6 8 C3.04335481 9.4783226 0.25770263 9.06032783 -3 9 C0 7 0 7 2 7 C2 6.01 2 5.02 2 4 C1.01 3.67 0.02 3.34 -1 3 C-0.67 2.01 -0.34 1.02 0 0 Z " fill="#0E136B" transform="translate(164,202)"/>
<path d="M0 0 C0.66 0 1.32 0 2 0 C2 10 2 10 1 13 C-1.0625 11.3125 -1.0625 11.3125 -3 9 C-2.75 6.25 -2.75 6.25 -2 4 C-1.34 4 -0.68 4 0 4 C0 2.68 0 1.36 0 0 Z " fill="#069DE4" transform="translate(30,128)"/>
<path d="M0 0 C2.31 0 4.62 0 7 0 C7 0.66 7 1.32 7 2 C6.34 2 5.68 2 5 2 C5.66 3.65 6.32 5.3 7 7 C5.0625 7.5625 5.0625 7.5625 3 8 C2 7 2 7 1.9375 3.9375 C1.958125 2.968125 1.97875 1.99875 2 1 C1.34 0.67 0.68 0.34 0 0 Z " fill="#045EBC" transform="translate(80,136)"/>
<path d="M0 0 C0.33 0 0.66 0 1 0 C1.2226746 1.43534841 1.42761906 2.87345525 1.625 4.3125 C1.74101562 5.11300781 1.85703125 5.91351563 1.9765625 6.73828125 C2 9 2 9 0 12 C-0.39013716 13.9896995 -0.73202649 15.99019869 -1 18 C-1.33 18 -1.66 18 -2 18 C-2.054348 15.9377952 -2.09294961 13.87517184 -2.125 11.8125 C-2.14820312 10.66394531 -2.17140625 9.51539063 -2.1953125 8.33203125 C-2.00484152 5.08259628 -1.39360127 2.91339479 0 0 Z " fill="#47ACE0" transform="translate(26,130)"/>
<path d="M0 0 C0.33 0.99 0.66 1.98 1 3 C0.36191406 3.33773437 -0.27617188 3.67546875 -0.93359375 4.0234375 C-1.75988281 4.46945313 -2.58617188 4.91546875 -3.4375 5.375 C-4.67306641 6.03628906 -4.67306641 6.03628906 -5.93359375 6.7109375 C-8.13466578 7.83418559 -8.13466578 7.83418559 -9 10 C-9.66 10 -10.32 10 -11 10 C-11.33 10.99 -11.66 11.98 -12 13 C-12.66 12.67 -13.32 12.34 -14 12 C-10.0679294 6.67267854 -5.61946506 3.4524818 0 0 Z " fill="#144E99" transform="translate(96,61)"/>
<path d="M0 0 C2.27057377 -0.05398987 4.54151288 -0.09278742 6.8125 -0.125 C8.07707031 -0.14820313 9.34164062 -0.17140625 10.64453125 -0.1953125 C14 0 14 0 17 2 C13.8803245 2.85082059 11.80145046 2.97112007 8.5625 2.5 C5.03619418 2.00507988 2.45288577 2.24204946 -1 3 C-0.67 2.01 -0.34 1.02 0 0 Z " fill="#0338A4" transform="translate(111,13)"/>
<path d="M0 0 C0.33 0 0.66 0 1 0 C1.53532823 1.55759343 2.05265378 3.12138045 2.5625 4.6875 C2.85253906 5.55761719 3.14257812 6.42773438 3.44140625 7.32421875 C4.05141961 10.24631074 3.77703633 12.14400553 3 15 C2.01 14.34 1.02 13.68 0 13 C-0.29296875 9.9609375 -0.29296875 9.9609375 -0.1875 6.375 C-0.16042969 5.18648437 -0.13335937 3.99796875 -0.10546875 2.7734375 C-0.07066406 1.85820312 -0.03585938 0.94296875 0 0 Z " fill="#040B89" transform="translate(200,128)"/>
<path d="M0 0 C2.97 0.495 2.97 0.495 6 1 C5.01 3.31 4.02 5.62 3 8 C2.67 7.01 2.34 6.02 2 5 C0.68 5 -0.64 5 -2 5 C-1.34 3.35 -0.68 1.7 0 0 Z " fill="#0F1688" transform="translate(200,119)"/>
<path d="M0 0 C2.475 0.99 2.475 0.99 5 2 C4.34 5.3 3.68 8.6 3 12 C2.67 12 2.34 12 2 12 C2 10.02 2 8.04 2 6 C1.34 5.67 0.68 5.34 0 5 C0 3.35 0 1.7 0 0 Z " fill="#1E2485" transform="translate(182,88)"/>
<path d="M0 0 C0 1.32 0 2.64 0 4 C-7.75 4.125 -7.75 4.125 -10 3 C-10 2.34 -10 1.68 -10 1 C-6.59437148 0.22157062 -3.49234244 -0.09978121 0 0 Z " fill="#0435A1" transform="translate(130,178)"/>
<path d="M0 0 C0.66 1.32 1.32 2.64 2 4 C1.01 5.32 0.02 6.64 -1 8 C-3.31 7.67 -5.62 7.34 -8 7 C-8 6.34 -8 5.68 -8 5 C-7.05125 4.731875 -6.1025 4.46375 -5.125 4.1875 C-1.74732727 3.25013412 -1.74732727 3.25013412 0 0 Z " fill="#1C2B8F" transform="translate(157,163)"/>
<path d="M0 0 C1.98 0 3.96 0 6 0 C6.33 1.65 6.66 3.3 7 5 C5.02 5 3.04 5 1 5 C0.67 3.35 0.34 1.7 0 0 Z " fill="#058ADB" transform="translate(41,160)"/>
<path d="M0 0 C2.475 0.495 2.475 0.495 5 1 C4.01 1.495 4.01 1.495 3 2 C3 2.66 3 3.32 3 4 C4.65 4.33 6.3 4.66 8 5 C4.91190305 6.76462683 3.76687864 7 0 7 C0 4.69 0 2.38 0 0 Z " fill="#067CD2" transform="translate(56,147)"/>
<path d="M0 0 C3 1 3 1 4 3 C3.34 3 2.68 3 2 3 C1.67 4.32 1.34 5.64 1 7 C-1.97 6.505 -1.97 6.505 -5 6 C-3.35 4.02 -1.7 2.04 0 0 Z " fill="#1441A1" transform="translate(105,14)"/>
<path d="M0 0 C0.33 3.3 0.66 6.6 1 10 C-2 6 -2 6 -3 4 C-5.01669827 2.86649466 -5.01669827 2.86649466 -7 2 C-4.35261084 0.5393715 -3.10551666 0 0 0 Z " fill="#2C9FD9" transform="translate(32,148)"/>
<path d="M0 0 C-0.33 1.65 -0.66 3.3 -1 5 C-2.65 5.33 -4.3 5.66 -6 6 C-6 4.02 -6 2.04 -6 0 C-3 -1 -3 -1 0 0 Z " fill="#213097" transform="translate(166,128)"/>
<path d="M0 0 C3.3 0 6.6 0 10 0 C9.67 1.32 9.34 2.64 9 4 C9 3.34 9 2.68 9 2 C8.3503125 2.7425 8.3503125 2.7425 7.6875 3.5 C6 5 6 5 3 5 C2.67 4.01 2.34 3.02 2 2 C1.34 1.34 0.68 0.68 0 0 Z " fill="#06A0E6" transform="translate(22,88)"/>
<path d="M0 0 C1.32 0.33 2.64 0.66 4 1 C3.67 3.97 3.34 6.94 3 10 C2.01 9.67 1.02 9.34 0 9 C0 6.03 0 3.06 0 0 Z " fill="#182184" transform="translate(166,112)"/>
<path d="M0 0 C1.32 1.32 2.64 2.64 4 4 C3.67 4.66 3.34 5.32 3 6 C0.03 5.505 0.03 5.505 -3 5 C-3 3.68 -3 2.36 -3 1 C-2.01 0.67 -1.02 0.34 0 0 Z " fill="#050E8A" transform="translate(204,50)"/>
<path d="M0 0 C4.05945076 3.74539583 6.78815487 8.45785844 7.25 14 C7.1675 14.66 7.085 15.32 7 16 C3.04961337 11.25953605 0 6.21355834 0 0 Z " fill="#0B0C67" transform="translate(204,43)"/>
<path d="M0 0 C4.13574827 -0.0984702 7.93631321 0.22596442 12 1 C12 1.66 12 2.32 12 3 C7.545 3.495 7.545 3.495 3 4 C3 3.34 3 2.68 3 2 C2.01 1.67 1.02 1.34 0 1 C0 0.67 0 0.34 0 0 Z " fill="#0883D1" transform="translate(47,36)"/>
<path d="M0 0 C0.66 0.99 1.32 1.98 2 3 C1.34 3 0.68 3 0 3 C0 3.66 0 4.32 0 5 C-3.3 5.66 -6.6 6.32 -10 7 C-8.65868124 4.31736248 -7.061296 3.77928518 -4.4375 2.375 C-3.61121094 1.92898437 -2.78492188 1.48296875 -1.93359375 1.0234375 C-1.29550781 0.68570313 -0.65742188 0.34796875 0 0 Z " fill="#042496" transform="translate(150,208)"/>
<path d="M0 0 C0.98120464 3.05263664 0.98120464 4.94736336 0 8 C1.32 8.33 2.64 8.66 4 9 C2.02 9.99 2.02 9.99 0 11 C-0.99 10.01 -1.98 9.02 -3 8 C-1.125 2.25 -1.125 2.25 0 0 Z " fill="#3AA7D6" transform="translate(20,122)"/>
<path d="M0 0 C2.875 0.25 2.875 0.25 6 1 C8.24329772 3.85510619 8.19667385 6.45987077 8 10 C7.01 9.34 6.02 8.68 5 8 C4.8125 5.375 4.8125 5.375 5 3 C2.525 2.01 2.525 2.01 0 1 C0 0.67 0 0.34 0 0 Z " fill="#1259A6" transform="translate(75,192)"/>
<path d="M0 0 C2.125 0.9375 2.125 0.9375 4 2 C3.67 4.31 3.34 6.62 3 9 C0.74754119 6.31158141 -0.88213958 4.35358125 -2 1 C-1.34 0.67 -0.68 0.34 0 0 Z " fill="#2A9CCF" transform="translate(35,157)"/>
<path d="M0 0 C0.33 0 0.66 0 1 0 C1.33 1.65 1.66 3.3 2 5 C2.45375 4.34 2.9075 3.68 3.375 3 C3.91125 2.34 4.4475 1.68 5 1 C5.66 1 6.32 1 7 1 C6.75 3.375 6.75 3.375 6 6 C4.0625 7.375 4.0625 7.375 2 8 C1.34 7.67 0.68 7.34 0 7 C0 4.69 0 2.38 0 0 Z " fill="#099DDF" transform="translate(25,142)"/>
<path d="M0 0 C2.475 0.495 2.475 0.495 5 1 C5.33 1.99 5.66 2.98 6 4 C5.01 4.66 4.02 5.32 3 6 C2.01 5.67 1.02 5.34 0 5 C0 3.35 0 1.7 0 0 Z " fill="#0975CB" transform="translate(64,56)"/>
<path d="M0 0 C1.9375 0.375 1.9375 0.375 4 1 C4.33 1.66 4.66 2.32 5 3 C7.02463255 3.65213292 7.02463255 3.65213292 9 4 C8.67 4.99 8.34 5.98 8 7 C7.34 6.67 6.68 6.34 6 6 C5.34 6.66 4.68 7.32 4 8 C1 4.25 1 4.25 1 2 C0.67 1.34 0.34 0.68 0 0 Z " fill="#1C339A" transform="translate(148,45)"/>
<path d="M0 0 C0.33 0.66 0.66 1.32 1 2 C-1.64 2 -4.28 2 -7 2 C-7 2.66 -7 3.32 -7 4 C-9.31 4.66 -11.62 5.32 -14 6 C-13 3 -13 3 -9.8125 1.3125 C-6.4652075 -0.01535157 -3.61508773 -0.26451861 0 0 Z " fill="#1D4E97" transform="translate(102,43)"/>
<path d="M0 0 C3.63 0 7.26 0 11 0 C10.67 1.32 10.34 2.64 10 4 C8.51882199 3.71872579 7.04006751 3.42466268 5.5625 3.125 C4.73878906 2.96257812 3.91507812 2.80015625 3.06640625 2.6328125 C2.38449219 2.42398438 1.70257813 2.21515625 1 2 C0.67 1.34 0.34 0.68 0 0 Z " fill="#114492" transform="translate(103,213)"/>
<path d="M0 0 C0 0.66 0 1.32 0 2 C1.98 2.66 3.96 3.32 6 4 C3.60004452 4.85712696 2.48394488 5.22584094 0.125 4.125 C-0.57625 3.75375 -1.2775 3.3825 -2 3 C-3.99110401 2.61709538 -5.99100513 2.27395385 -8 2 C-8 1.67 -8 1.34 -8 1 C-5.23735711 0.40267181 -2.83967231 0 0 0 Z " fill="#082EA0" transform="translate(141,40)"/>
<path d="M0 0 C2.475 0.99 2.475 0.99 5 2 C4.67 3.98 4.34 5.96 4 8 C3.01 7.67 2.02 7.34 1 7 C1 6.01 1 5.02 1 4 C0.34 3.67 -0.32 3.34 -1 3 C-0.67 2.01 -0.34 1.02 0 0 Z " fill="#0F8FDA" transform="translate(45,36)"/>
<path d="M0 0 C0.5775 0.45375 1.155 0.9075 1.75 1.375 C3.7800333 2.84113516 5.73539843 3.94857784 8 5 C6 6 6 6 3.5625 5.9375 C0.75471394 5.77767869 0.75471394 5.77767869 -2 8 C-1.34 5.36 -0.68 2.72 0 0 Z " fill="#1351B5" transform="translate(99,17)"/>
<path d="M0 0 C1.2065625 0.0309375 1.2065625 0.0309375 2.4375 0.0625 C2.4375 0.7225 2.4375 1.3825 2.4375 2.0625 C3.0975 2.3925 3.7575 2.7225 4.4375 3.0625 C4.1075 4.0525 3.7775 5.0425 3.4375 6.0625 C0.10212511 4.95070837 -1.19957344 3.58838702 -3.5625 1.0625 C-2.5625 0.0625 -2.5625 0.0625 0 0 Z " fill="#1052B3" transform="translate(99.5625,207.9375)"/>
<path d="M0 0 C2.97 1.65 5.94 3.3 9 5 C8.34 6.32 7.68 7.64 7 9 C6.67 8.01 6.34 7.02 6 6 C3.60470331 4.67518454 3.60470331 4.67518454 1 4 C0.01 4.495 0.01 4.495 -1 5 C-0.67 3.35 -0.34 1.7 0 0 Z " fill="#0966C3" transform="translate(73,163)"/>
<path d="M0 0 C0.33 0 0.66 0 1 0 C1.6875 2.8125 1.6875 2.8125 2 6 C0.6875 7.875 0.6875 7.875 -1 9 C-1.66 9 -2.32 9 -3 9 C-3 7.68 -3 6.36 -3 5 C-2.34 5 -1.68 5 -1 5 C-1.33 4.01 -1.66 3.02 -2 2 C-1.34 1.34 -0.68 0.68 0 0 Z " fill="#04249E" transform="translate(151,19)"/>
<path d="M0 0 C0.33 1.32 0.66 2.64 1 4 C-0.98 4.99 -0.98 4.99 -3 6 C-5 4 -5 4 -7 1 C-5.5459375 1.0309375 -5.5459375 1.0309375 -4.0625 1.0625 C-1.12534105 1.35618499 -1.12534105 1.35618499 0 0 Z " fill="#0558BD" transform="translate(95,145)"/>
<path d="M0 0 C0.6875 1.75 0.6875 1.75 1 4 C-0.375 6.125 -0.375 6.125 -2 8 C-2.33 8.66 -2.66 9.32 -3 10 C-3.66 10 -4.32 10 -5 10 C-4.37240135 7.07120629 -3.41377341 4.63904371 -2 2 C-1.34 2 -0.68 2 0 2 C0 1.34 0 0.68 0 0 Z " fill="#0E1B75" transform="translate(161,133)"/>
<path d="M0 0 C1.55913346 3.11826692 0.66585225 5.67073874 0 9 C-0.99 9.495 -0.99 9.495 -2 10 C-2.99 9.67 -3.98 9.34 -5 9 C-4.67 8.01 -4.34 7.02 -4 6 C-3.34 6 -2.68 6 -2 6 C-1.34 4.02 -0.68 2.04 0 0 Z " fill="#15A4E6" transform="translate(30,94)"/>
<path d="M0 0 C1.13732426 3.40401948 0.83989957 5.77456664 0.0625 9.25 C-0.13214844 10.14203125 -0.32679687 11.0340625 -0.52734375 11.953125 C-0.68332031 12.62859375 -0.83929688 13.3040625 -1 14 C-1.33 14 -1.66 14 -2 14 C-2.05410687 12.22950311 -2.09284119 10.45853151 -2.125 8.6875 C-2.14820313 7.70136719 -2.17140625 6.71523437 -2.1953125 5.69921875 C-2 3 -2 3 0 0 Z " fill="#3386B8" transform="translate(52,88)"/>
<path d="M0 0 C3.23490776 0.55774272 4.97855006 1.37211508 7 4 C7 4.99 7 5.98 7 7 C6.01 6.67 5.02 6.34 4 6 C4 5.34 4 4.68 4 4 C3.01 3.67 2.02 3.34 1 3 C0.67 2.01 0.34 1.02 0 0 Z " fill="#152782" transform="translate(155,76)"/>
<path d="M0 0 C1 2 1 2 0.328125 4.12890625 C-0.02765625 4.93199219 -0.3834375 5.73507813 -0.75 6.5625 C-1.09546875 7.36816406 -1.4409375 8.17382812 -1.796875 9.00390625 C-3 11 -3 11 -6 12 C-4.43358249 7.69235185 -2.31663844 3.93828536 0 0 Z " fill="#3DAFD9" transform="translate(20,61)"/>
<path d="M0 0 C-0.33 0.99 -0.66 1.98 -1 3 C-2.65 2.67 -4.3 2.34 -6 2 C-6 1.34 -6 0.68 -6 0 C-7.32 0.33 -8.64 0.66 -10 1 C-10 0.34 -10 -0.32 -10 -1 C-5.92224809 -1.9267618 -3.57818963 -2.33958553 0 0 Z " fill="#1C3486" transform="translate(143,44)"/>
<path d="M0 0 C-0.66 1.65 -1.32 3.3 -2 5 C-3.65 5 -5.3 5 -7 5 C-7 3.68 -7 2.36 -7 1 C-2.25 0 -2.25 0 0 0 Z " fill="#04198A" transform="translate(162,202)"/>
<path d="M0 0 C1.98 0 3.96 0 6 0 C5.67 1.32 5.34 2.64 5 4 C2 4 2 4 0 3 C0 2.01 0 1.02 0 0 Z " fill="#0870CA" transform="translate(67,184)"/>
<path d="M0 0 C0.66 0 1.32 0 2 0 C2.103125 0.639375 2.20625 1.27875 2.3125 1.9375 C2.539375 2.618125 2.76625 3.29875 3 4 C3.99 4.33 4.98 4.66 6 5 C6 5.33 6 5.66 6 6 C4.02 6 2.04 6 0 6 C0 4.02 0 2.04 0 0 Z " fill="#0772C9" transform="translate(64,154)"/>
<path d="M0 0 C-1.98 0.99 -1.98 0.99 -4 2 C-4 2.66 -4 3.32 -4 4 C-5.65 4.33 -7.3 4.66 -9 5 C-8 2 -8 2 -5.625 0.25 C-3 -1 -3 -1 0 0 Z " fill="#0E559E" transform="translate(85,50)"/>
<path d="M0 0 C0.66 0.33 1.32 0.66 2 1 C-1.01887244 4.48331435 -3.56909529 5.79157144 -8 7 C-3.76744186 1.25581395 -3.76744186 1.25581395 0 0 Z " fill="#1B85C3" transform="translate(44,37)"/>
<path d="M0 0 C4.37859255 0.50522222 6.81651224 3.17827222 10 6 C9.67 6.66 9.34 7.32 9 8 C5.01824456 5.89851796 2.64960955 3.63094642 0 0 Z " fill="#0D1F75" transform="translate(137,15)"/>
<path d="M0 0 C1.65 0 3.3 0 5 0 C5.66666667 1.33333333 6.33333333 2.66666667 7 4 C4.69 4 2.38 4 0 4 C0 2.68 0 1.36 0 0 Z " fill="#0EAAEA" transform="translate(20,126)"/>
<path d="M0 0 C2.475 0.495 2.475 0.495 5 1 C4 4 4 4 1.9375 5.1875 C1.298125 5.455625 0.65875 5.72375 0 6 C0 4.02 0 2.04 0 0 Z " fill="#131781" transform="translate(211,92)"/>
<path d="M0 0 C0 1.65 0 3.3 0 5 C-1.32 5.33 -2.64 5.66 -4 6 C-4 4.68 -4 3.36 -4 2 C-1 0 -1 0 0 0 Z " fill="#0594E0" transform="translate(40,42)"/>
<path d="M0 0 C4.95 0.99 4.95 0.99 10 2 C10 2.66 10 3.32 10 4 C2.25 3.125 2.25 3.125 0 2 C0 1.34 0 0.68 0 0 Z " fill="#1B5196" transform="translate(83,25)"/>
<path d="M0 0 C-2.71182212 2.60334924 -3.89133813 2.99456691 -7.75 3.1875 C-8.8225 3.125625 -9.895 3.06375 -11 3 C-10 1 -10 1 -8.22265625 0.33203125 C-7.15337891 0.07486328 -7.15337891 0.07486328 -6.0625 -0.1875 C-5.35222656 -0.36667969 -4.64195312 -0.54585937 -3.91015625 -0.73046875 C-2 -1 -2 -1 0 0 Z " fill="#0F277A" transform="translate(145,173)"/>
<path d="M0 0 C0.66 0.33 1.32 0.66 2 1 C-0.38957269 4.24299151 -2.2047869 6.50902342 -6 8 C-4.95125002 5.37812506 -4.35068687 4.20628639 -1.875 2.75 C-1.25625 2.5025 -0.6375 2.255 0 2 C0 1.34 0 0.68 0 0 Z " fill="#09156F" transform="translate(164,158)"/>
<path d="M0 0 C2.25245881 2.68841859 3.88213958 4.64641875 5 8 C3.35 7.67 1.7 7.34 0 7 C0 4.69 0 2.38 0 0 Z " fill="#146CB7" transform="translate(59,144)"/>
<path d="M0 0 C0.82638376 2.89234315 1 4.88742431 1 8 C0.01 8 -0.98 8 -2 8 C-2.125 5.125 -2.125 5.125 -2 2 C-1.34 1.34 -0.68 0.68 0 0 Z " fill="#081E96" transform="translate(164,119)"/>
<path d="M0 0 C0.99 0.33 1.98 0.66 3 1 C3.33 3.97 3.66 6.94 4 10 C2 8 2 8 1.5 5.4375 C1.335 4.633125 1.17 3.82875 1 3 C0.34 2.67 -0.32 2.34 -1 2 C-0.67 1.34 -0.34 0.68 0 0 Z " fill="#0A126B" transform="translate(178,77)"/>
<path d="M0 0 C2.96404505 2.80804268 5.44499019 5.18315774 7 9 C5.1875 8.875 5.1875 8.875 3 8 C0 2.96428571 0 2.96428571 0 0 Z " fill="#232672" transform="translate(193,27)"/>
<path d="M0 0 C0.66 0.33 1.32 0.66 2 1 C0.515 4.96 0.515 4.96 -1 9 C-1.66 8.67 -2.32 8.34 -3 8 C-3 6.68 -3 5.36 -3 4 C-2.34 4 -1.68 4 -1 4 C-0.67 2.68 -0.34 1.36 0 0 Z " fill="#0D0F74" transform="translate(211,103)"/>
<path d="M0 0 C0.66 0.33 1.32 0.66 2 1 C2 2.65 2 4.3 2 6 C1.01 6.33 0.02 6.66 -1 7 C-1.04254356 5.00045254 -1.04080783 2.99958364 -1 1 C-0.67 0.67 -0.34 0.34 0 0 Z " fill="#28A6E3" transform="translate(24,103)"/>
<path d="M0 0 C1.5 1.3125 1.5 1.3125 3 3 C3 3.99 3 4.98 3 6 C1.35 5.67 -0.3 5.34 -2 5 C-1.34 3.35 -0.68 1.7 0 0 Z " fill="#0769C6" transform="translate(77,82)"/>
<path d="M0 0 C2.31 0.66 4.62 1.32 7 2 C7.33 1.34 7.66 0.68 8 0 C8 0.99 8 1.98 8 3 C5.36 3 2.72 3 0 3 C0 2.01 0 1.02 0 0 Z " fill="#0D2491" transform="translate(152,200)"/>
<path d="M0 0 C1.32 0.33 2.64 0.66 4 1 C3.34 3.31 2.68 5.62 2 8 C0.23537317 4.91190305 0 3.76687864 0 0 Z " fill="#030F88" transform="translate(192,160)"/>
<path d="M0 0 C1.485 0.99 1.485 0.99 3 2 C2.67 3.65 2.34 5.3 2 7 C1.01 7 0.02 7 -1 7 C-0.67 4.69 -0.34 2.38 0 0 Z " fill="#052590" transform="translate(145,145)"/>
<path d="M0 0 C3 1 3 1 4 3 C3.01 3.99 2.02 4.98 1 6 C0.34 4.35 -0.32 2.7 -1 1 C-0.67 0.67 -0.34 0.34 0 0 Z " fill="#0265BF" transform="translate(76,128)"/>
<path d="M0 0 C0.99 0 1.98 0 3 0 C3.22786458 2.01822917 3.45572917 4.03645833 3.68359375 6.0546875 C3.91292961 8.07404316 3.91292961 8.07404316 5 10 C4.01 9.67 3.02 9.34 2 9 C1.26953125 6.93359375 1.26953125 6.93359375 0.8125 4.4375 C0.65394531 3.61121094 0.49539062 2.78492187 0.33203125 1.93359375 C0.16767578 0.97646484 0.16767578 0.97646484 0 0 Z " fill="#080D73" transform="translate(199,124)"/>
<path d="M0 0 C0.99 0 1.98 0 3 0 C3 0.99 3 1.98 3 3 C1 4.6875 1 4.6875 -1 6 C-1.33 5.01 -1.66 4.02 -2 3 C-1.34 2.01 -0.68 1.02 0 0 Z " fill="#01A0E4" transform="translate(29,106)"/>
<path d="M0 0 C2.5 1.8125 2.5 1.8125 5 4 C5 4.99 5 5.98 5 7 C1.26360784 5.75453595 0.81243487 4.36595047 -1 1 C-0.67 0.67 -0.34 0.34 0 0 Z " fill="#172181" transform="translate(165,59)"/>
<path d="M0 0 C5.75 0.75 5.75 0.75 8 3 C5.69 3 3.38 3 1 3 C0.67 2.01 0.34 1.02 0 0 Z " fill="#082986" transform="translate(127,40)"/>
<path d="M0 0 C2.475 0.99 2.475 0.99 5 2 C5 2.66 5 3.32 5 4 C3.68 4.33 2.36 4.66 1 5 C0.34 3.68 -0.32 2.36 -1 1 C-0.67 0.67 -0.34 0.34 0 0 Z " fill="#23267E" transform="translate(178,14)"/>
<path d="M0 0 C1.65 0 3.3 0 5 0 C5 0.33 5 0.66 5 1 C3.35 1 1.7 1 0 1 C0 0.67 0 0.34 0 0 Z " fill="#888894" transform="translate(169,189)"/>
<path d="M0 0 C2 1 2 1 2 1 Z " fill="#24243E" transform="translate(191,175)"/>
<path d="" fill="#333366" transform="translate(0,0)"/>
<path d="" fill="#333366" transform="translate(0,0)"/>
<path d="" fill="#FFFFFF" transform="translate(0,0)"/>
<path d="" fill="#333366" transform="translate(0,0)"/>
<path d="" fill="#FFFFFF" transform="translate(0,0)"/>
<path d="" fill="#FFFFFF" transform="translate(0,0)"/>
<path d="" fill="#FFFFFF" transform="translate(0,0)"/>
<path d="" fill="#333366" transform="translate(0,0)"/>
<path d="" fill="#FFFFFF" transform="translate(0,0)"/>
<path d="" fill="#555555" transform="translate(0,0)"/>
<path d="" fill="#555555" transform="translate(0,0)"/>
<path d="" fill="#555555" transform="translate(0,0)"/>
<path d="" fill="#FFFFFF" transform="translate(0,0)"/>
<path d="" fill="#1C1C55" transform="translate(0,0)"/>
<path d="" fill="#FFFFFF" transform="translate(0,0)"/>
<path d="" fill="#FFFFFF" transform="translate(0,0)"/>
<path d="" fill="#1E2D4B" transform="translate(0,0)"/>
<path d="" fill="#555555" transform="translate(0,0)"/>
<path d="" fill="#808080" transform="translate(0,0)"/>
<path d="" fill="#555555" transform="translate(0,0)"/>
<path d="" fill="#8080BF" transform="translate(0,0)"/>
<path d="" fill="#404080" transform="translate(0,0)"/>
<path d="" fill="#24246D" transform="translate(0,0)"/>
<path d="" fill="#404080" transform="translate(0,0)"/>
<path d="" fill="#FFFFFF" transform="translate(0,0)"/>
<path d="" fill="#154055" transform="translate(0,0)"/>
<path d="" fill="#FFFFFF" transform="translate(0,0)"/>
<path d="" fill="#FFFFFF" transform="translate(0,0)"/>
<path d="" fill="#555555" transform="translate(0,0)"/>
<path d="" fill="#246D6D" transform="translate(0,0)"/>
<path d="" fill="#333333" transform="translate(0,0)"/>
<path d="" fill="#808080" transform="translate(0,0)"/>
<path d="" fill="#4E4E89" transform="translate(0,0)"/>
<path d="" fill="#336666" transform="translate(0,0)"/>
<path d="" fill="#555555" transform="translate(0,0)"/>
</svg>
